<svg aria-hidden="true" class="k-icons" xmlns="http://www.w3.org/2000/svg" overflow="hidden">
  <defs>
    <symbol id="icon-account" viewBox="0 0 24 24">
			<path d="M12 2C17.5228 2 22 6.47715 22 12C22 17.5228 17.5228 22 12 22C6.47715 22 2 17.5228 2 12C2 6.47715 6.47715 2 12 2ZM12.1597 16C10.1243 16 8.29182 16.8687 7.01276 18.2556C8.38039 19.3474 10.114 20 12 20C13.9695 20 15.7727 19.2883 17.1666 18.1081C15.8956 16.8074 14.1219 16 12.1597 16ZM12 4C7.58172 4 4 7.58172 4 12C4 13.8106 4.6015 15.4807 5.61557 16.8214C7.25639 15.0841 9.58144 14 12.1597 14C14.6441 14 16.8933 15.0066 18.5218 16.6342C19.4526 15.3267 20 13.7273 20 12C20 7.58172 16.4183 4 12 4ZM12 5C14.2091 5 16 6.79086 16 9C16 11.2091 14.2091 13 12 13C9.79086 13 8 11.2091 8 9C8 6.79086 9.79086 5 12 5ZM12 7C10.8954 7 10 7.89543 10 9C10 10.1046 10.8954 11 12 11C13.1046 11 14 10.1046 14 9C14 7.89543 13.1046 7 12 7Z"></path>
    </symbol>
    <symbol id="icon-add" viewBox="0 0 24 24">
			<path d="M11 11V7H13V11H17V13H13V17H11V13H7V11H11ZM12 22C6.47715 22 2 17.5228 2 12C2 6.47715 6.47715 2 12 2C17.5228 2 22 6.47715 22 12C22 17.5228 17.5228 22 12 22ZM12 20C16.4183 20 20 16.4183 20 12C20 7.58172 16.4183 4 12 4C7.58172 4 4 7.58172 4 12C4 16.4183 7.58172 20 12 20Z"></path>
    </symbol>
    <symbol id="icon-alert" viewBox="0 0 24 24">
			<path d="M12.865 3.00017L22.3912 19.5002C22.6674 19.9785 22.5035 20.5901 22.0252 20.8662C21.8732 20.954 21.7008 21.0002 21.5252 21.0002H2.47266C1.92037 21.0002 1.47266 20.5525 1.47266 20.0002C1.47266 19.8246 1.51886 19.6522 1.60663 19.5002L11.1329 3.00017C11.4091 2.52187 12.0206 2.358 12.4989 2.63414C12.651 2.72191 12.7772 2.84815 12.865 3.00017ZM4.20471 19.0002H19.7932L11.9989 5.50017L4.20471 19.0002ZM10.9989 16.0002H12.9989V18.0002H10.9989V16.0002ZM10.9989 9.00017H12.9989V14.0002H10.9989V9.00017Z" />
    </symbol>
    <symbol id="icon-anchor" viewBox="0 0 24 24">
			<path d="M13 9.87398V19.928C16.6187 19.4745 19.4869 16.5923 19.9381 12.9558H17L20.7042 7C21.529 8.46132 22 10.1508 22 11.9509C22 17.5009 17.5228 22 12 22C6.47715 22 2 17.5009 2 11.9509C2 10.1508 2.47097 8.46132 3.29582 7L7 12.9558H4.06189C4.51314 16.5923 7.38128 19.4745 11 19.928V9.87398C9.27477 9.42994 8 7.86384 8 6C8 3.79086 9.79086 2 12 2C14.2091 2 16 3.79086 16 6C16 7.86384 14.7252 9.42994 13 9.87398ZM12 8C13.1046 8 14 7.10457 14 6C14 4.89543 13.1046 4 12 4C10.8954 4 10 4.89543 10 6C10 7.10457 10.8954 8 12 8Z"></path>
    </symbol>
    <symbol id="icon-angle-down" viewBox="0 0 24 24">
			<path d="M11.9997 13.1714L16.9495 8.22168L18.3637 9.63589L11.9997 15.9999L5.63574 9.63589L7.04996 8.22168L11.9997 13.1714Z" />
    </symbol>
    <symbol id="icon-angle-left" viewBox="0 0 24 24">
			<path d="M10.8284 12.0007L15.7782 16.9504L14.364 18.3646L8 12.0007L14.364 5.63672L15.7782 7.05093L10.8284 12.0007Z" />
    </symbol>
    <symbol id="icon-angle-right" viewBox="0 0 24 24">
			<path d="M13.1714 12.0007L8.22168 7.05093L9.63589 5.63672L15.9999 12.0007L9.63589 18.3646L8.22168 16.9504L13.1714 12.0007Z" />
    </symbol>
    <symbol id="icon-angle-up" viewBox="0 0 24 24">
			<path d="M11.9997 10.8284L7.04996 15.7782L5.63574 14.364L11.9997 8L18.3637 14.364L16.9495 15.7782L11.9997 10.8284Z"></path>
    </symbol>
    <symbol id="icon-archive" viewBox="0 0 24 24">
      <path d="M4 3H20L22 7V20C22 20.5523 21.5523 21 21 21H3C2.44772 21 2 20.5523 2 20V7.00353L4 3ZM13 14V10H11V14H8L12 18L16 14H13ZM19.7639 7L18.7639 5H5.23656L4.23744 7H19.7639Z"></path>
    </symbol>
    <symbol id="icon-attachment" viewBox="0 0 24 24">
			<path d="M14 13.5V8C14 5.79086 12.2091 4 10 4C7.79086 4 6 5.79086 6 8V13.5C6 17.0899 8.91015 20 12.5 20C16.0899 20 19 17.0899 19 13.5V4H21V13.5C21 18.1944 17.1944 22 12.5 22C7.80558 22 4 18.1944 4 13.5V8C4 4.68629 6.68629 2 10 2C13.3137 2 16 4.68629 16 8V13.5C16 15.433 14.433 17 12.5 17C10.567 17 9 15.433 9 13.5V8H11V13.5C11 14.3284 11.6716 15 12.5 15C13.3284 15 14 14.3284 14 13.5Z"></path>
    </symbol>
    <symbol id="icon-audio" viewBox="0 0 24 24">
      <path d="M20 3V17C20 19.2091 18.2091 21 16 21C13.7909 21 12 19.2091 12 17C12 14.7909 13.7909 13 16 13C16.7286 13 17.4117 13.1948 18 13.5351V5H9V17C9 19.2091 7.20914 21 5 21C2.79086 21 1 19.2091 1 17C1 14.7909 2.79086 13 5 13C5.72857 13 6.41165 13.1948 7 13.5351V3H20ZM5 19C6.10457 19 7 18.1046 7 17C7 15.8954 6.10457 15 5 15C3.89543 15 3 15.8954 3 17C3 18.1046 3.89543 19 5 19ZM16 19C17.1046 19 18 18.1046 18 17C18 15.8954 17.1046 15 16 15C14.8954 15 14 15.8954 14 17C14 18.1046 14.8954 19 16 19Z"></path>
    </symbol>
    <symbol id="icon-badge" viewBox="0 0 16 16">
      <path d="M14,6V3c0-0.552-0.448-1-1-1h-3L8,0L6,2H3C2.448,2,2,2.448,2,3v3L0,8l2,2v3c0,0.552,0.448,1,1,1h3l2,2l2-2h3 c0.552,0,1-0.448,1-1v-3l2-2L14,6z" />
    </symbol>
    <symbol id="icon-bars" viewBox="0 0 16 16">
      <path d="M15 7H1c-.6 0-1 .4-1 1s.4 1 1 1h14c.6 0 1-.4 1-1s-.4-1-1-1zM15 1H1c-.6 0-1 .4-1 1s.4 1 1 1h14c.6 0 1-.4 1-1s-.4-1-1-1zM15 13H1c-.6 0-1 .4-1 1s.4 1 1 1h14c.6 0 1-.4 1-1s-.4-1-1-1z" />
    </symbol>
    <symbol id="icon-bell" viewBox="0 0 16 16">
      <path d="M10,14H6c0,1.1,0.9,2,2,2S10,15.1,10,14z"/>
      <path d="M15,11h-0.5C13.8,10.3,13,9.3,13,8V5c0-2.8-2.2-5-5-5S3,2.2,3,5v3c0,1.3-0.8,2.3-1.5,3H1c-0.6,0-1,0.4-1,1 s0.4,1,1,1h14c0.6,0,1-0.4,1-1S15.6,11,15,11z"/>
    </symbol>
    <symbol id="icon-blank" viewBox="0 0 16 16" />
    <symbol id="icon-bold" viewBox="0 0 24 24">
			<path d="M8 11H12.5C13.8807 11 15 9.88071 15 8.5C15 7.11929 13.8807 6 12.5 6H8V11ZM18 15.5C18 17.9853 15.9853 20 13.5 20H6V4H12.5C14.9853 4 17 6.01472 17 8.5C17 9.70431 16.5269 10.7981 15.7564 11.6058C17.0979 12.3847 18 13.837 18 15.5ZM8 13V18H13.5C14.8807 18 16 16.8807 16 15.5C16 14.1193 14.8807 13 13.5 13H8Z"></path>
    </symbol>
    <symbol id="icon-bolt" viewBox="0 0 24 24">
			<path d="M13 9H21L11 24V15H4L13 0V9ZM11 11V7.22063L7.53238 13H13V17.3944L17.263 11H11Z"></path>
    </symbol>
    <symbol id="icon-book" viewBox="0 0 24 24">
      <path d="M13 21V23H11V21H3C2.44772 21 2 20.5523 2 20V4C2 3.44772 2.44772 3 3 3H9C10.1947 3 11.2671 3.52375 12 4.35418C12.7329 3.52375 13.8053 3 15 3H21C21.5523 3 22 3.44772 22 4V20C22 20.5523 21.5523 21 21 21H13ZM20 19V5H15C13.8954 5 13 5.89543 13 7V19H20ZM11 19V7C11 5.89543 10.1046 5 9 5H4V19H11Z"></path>
    </symbol>
    <symbol id="icon-bookmark" viewBox="0 0 24 24">
      <path d="M5 2H19C19.5523 2 20 2.44772 20 3V22.1433C20 22.4194 19.7761 22.6434 19.5 22.6434C19.4061 22.6434 19.314 22.6168 19.2344 22.5669L12 18.0313L4.76559 22.5669C4.53163 22.7136 4.22306 22.6429 4.07637 22.4089C4.02647 22.3293 4 22.2373 4 22.1433V3C4 2.44772 4.44772 2 5 2Z"></path>
    </symbol>
    <symbol id="icon-box" viewBox="0 0 24 24">
			<path d="M4.5 7.65311V16.3469L12 20.689L19.5 16.3469V7.65311L12 3.311L4.5 7.65311ZM12 1L21.5 6.5V17.5L12 23L2.5 17.5V6.5L12 1ZM6.49896 9.97065L11 12.5765V17.625H13V12.5765L17.501 9.97066L16.499 8.2398L12 10.8445L7.50104 8.2398L6.49896 9.97065Z"></path>
    </symbol>
    <symbol id="icon-bug" viewBox="0 0 24 24">
      <path d="M6.05636 8.30049C6.11995 8.19854 6.18609 8.09835 6.25469 8H17.7453C17.8139 8.09835 17.88 8.19854 17.9436 8.30049L19.9641 7.13397L20.9641 8.86602L18.7512 10.1436C18.9134 10.7348 19 11.3573 19 12V13H22V15H19C19 15.9534 18.8094 16.8623 18.4642 17.6907L20.9641 19.134L19.9641 20.866L17.4383 19.4077C16.3533 20.7447 14.7853 21.6737 13 21.9291V14H11V21.9291C9.21467 21.6737 7.64665 20.7447 6.56171 19.4077L4.0359 20.866L3.0359 19.134L5.5358 17.6907C5.19061 16.8623 5 15.9534 5 15H2V13H5V12C5 11.3573 5.08661 10.7348 5.2488 10.1436L3.0359 8.86602L4.0359 7.13397L6.05636 8.30049ZM8 6C8 3.79086 9.79086 2 12 2C14.2091 2 16 3.79086 16 6H8Z"></path>
    </symbol>
    <symbol id="icon-brush" viewBox="0 0 24 24">
      <path d="M13.2886 6.21289L18.2278 2.3713C18.6259 2.06168 19.1922 2.09694 19.5488 2.45355L22.543 5.44774C22.8997 5.80435 22.9349 6.3707 22.6253 6.76879L18.7847 11.7067C19.0778 12.895 19.0836 14.1719 18.7444 15.4377C17.8463 18.7896 14.8142 20.9984 11.5016 20.9984C8 20.9984 3.5 19.4966 1 17.9966C4.97978 14.9966 4.04722 13.1864 4.5 11.4966C5.55843 7.54646 9.34224 5.23923 13.2886 6.21289ZM16.7015 8.09149C16.7673 8.15494 16.8319 8.21952 16.8952 8.2852L18.0297 9.41972L20.5046 6.23774L18.7589 4.49198L15.5769 6.96685L16.7015 8.09149Z"></path>
    </symbol>
    <symbol id="icon-calendar" viewBox="0 0 24 24">
     <path d="M9 1V3H15V1H17V3H21C21.5523 3 22 3.44772 22 4V20C22 20.5523 21.5523 21 21 21H3C2.44772 21 2 20.5523 2 20V4C2 3.44772 2.44772 3 3 3H7V1H9ZM20 11H4V19H20V11ZM8 13V15H6V13H8ZM13 13V15H11V13H13ZM18 13V15H16V13H18ZM7 5H4V9H20V5H17V7H15V5H9V7H7V5Z"></path>
    </symbol>
    <symbol id="icon-cancel" viewBox="0 0 24 24">
			<path d="M12 22C6.47715 22 2 17.5228 2 12C2 6.47715 6.47715 2 12 2C17.5228 2 22 6.47715 22 12C22 17.5228 17.5228 22 12 22ZM12 20C16.4183 20 20 16.4183 20 12C20 7.58172 16.4183 4 12 4C7.58172 4 4 7.58172 4 12C4 16.4183 7.58172 20 12 20ZM12 10.5858L14.8284 7.75736L16.2426 9.17157L13.4142 12L16.2426 14.8284L14.8284 16.2426L12 13.4142L9.17157 16.2426L7.75736 14.8284L10.5858 12L7.75736 9.17157L9.17157 7.75736L12 10.5858Z"></path>
    </symbol>
    <symbol id="icon-cancel-small" viewBox="0 0 16 16">
      <polygon points="10.1,4.5 8,6.6 5.9,4.5 4.5,5.9 6.6,8 4.5,10.1 5.9,11.5 8,9.4 10.1,11.5 11.5,10.1 9.4,8 11.5,5.9 " />
    </symbol>
    <symbol id="icon-car" viewBox="0 0 24 24">
      <path d="M19 20H5V21C5 21.5523 4.55228 22 4 22H3C2.44772 22 2 21.5523 2 21V11L4.4805 5.21216C4.79566 4.47679 5.51874 4 6.31879 4H17.6812C18.4813 4 19.2043 4.47679 19.5195 5.21216L22 11V21C22 21.5523 21.5523 22 21 22H20C19.4477 22 19 21.5523 19 21V20ZM20 13H4V18H20V13ZM4.17594 11H19.8241L17.6812 6H6.31879L4.17594 11ZM6.5 17C5.67157 17 5 16.3284 5 15.5C5 14.6716 5.67157 14 6.5 14C7.32843 14 8 14.6716 8 15.5C8 16.3284 7.32843 17 6.5 17ZM17.5 17C16.6716 17 16 16.3284 16 15.5C16 14.6716 16.6716 14 17.5 14C18.3284 14 19 14.6716 19 15.5C19 16.3284 18.3284 17 17.5 17Z"></path>
    </symbol>
    <symbol id="icon-cart" viewBox="0 0 24 24">
      <path d="M4.00488 16V4H2.00488V2H5.00488C5.55717 2 6.00488 2.44772 6.00488 3V15H18.4433L20.4433 7H8.00488V5H21.7241C22.2764 5 22.7241 5.44772 22.7241 6C22.7241 6.08176 22.7141 6.16322 22.6942 6.24254L20.1942 16.2425C20.083 16.6877 19.683 17 19.2241 17H5.00488C4.4526 17 4.00488 16.5523 4.00488 16ZM6.00488 23C4.90031 23 4.00488 22.1046 4.00488 21C4.00488 19.8954 4.90031 19 6.00488 19C7.10945 19 8.00488 19.8954 8.00488 21C8.00488 22.1046 7.10945 23 6.00488 23ZM18.0049 23C16.9003 23 16.0049 22.1046 16.0049 21C16.0049 19.8954 16.9003 19 18.0049 19C19.1095 19 20.0049 19.8954 20.0049 21C20.0049 22.1046 19.1095 23 18.0049 23Z"></path>
    </symbol>
    <symbol id="icon-chart" viewBox="0 0 24 24">
      <path d="M3 12H7V21H3V12ZM17 8H21V21H17V8ZM10 2H14V21H10V2Z"></path>
    </symbol>
    <symbol id="icon-chat" viewBox="0 0 24 24">
      <path d="M8 18H18.2372L20 19.3851V9H21C21.5523 9 22 9.44772 22 10V23.5L17.5455 20H9C8.44772 20 8 19.5523 8 19V18ZM5.45455 16L1 19.5V4C1 3.44772 1.44772 3 2 3H17C17.5523 3 18 3.44772 18 4V16H5.45455Z"></path>
    </symbol>
    <symbol id="icon-check" viewBox="0 0 24 24">
			<path d="M12 22C6.47715 22 2 17.5228 2 12C2 6.47715 6.47715 2 12 2C17.5228 2 22 6.47715 22 12C22 17.5228 17.5228 22 12 22ZM12 20C16.4183 20 20 16.4183 20 12C20 7.58172 16.4183 4 12 4C7.58172 4 4 7.58172 4 12C4 16.4183 7.58172 20 12 20ZM11.0026 16L6.75999 11.7574L8.17421 10.3431L11.0026 13.1716L16.6595 7.51472L18.0737 8.92893L11.0026 16Z" />
    </symbol>
    <symbol id="icon-checklist" viewBox="0 0 16 16">
			<path d="M1,7H5A1,1,0,0,0,6,6V2A1,1,0,0,0,5,1H1A1,1,0,0,0,0,2V6A1,1,0,0,0,1,7ZM2,3H4V5H2Z" />
			<path d="M6.219,8.377v0L2.917,12.5l-1.21-1.21A1,1,0,0,0,.293,12.707l2,2A1,1,0,0,0,3,15h.055a1,1,0,0,0,.726-.373l4-5a1,1,0,1,0-1.562-1.25Z" />
			<path d="M9,5h6a1,1,0,0,0,0-2H9A1,1,0,0,0,9,5Z" />
			<path d="M15,11H9a1,1,0,0,0,0,2h6a1,1,0,0,0,0-2Z" />
    </symbol>
    <symbol id="icon-circle" viewBox="0 0 16 16">
      <circle cx="8" cy="8" r="8" />
    </symbol>
    <symbol id="icon-circle-filled" viewBox="0 0 16 16">
      <path d="M8,0C3.6,0,0,3.6,0,8s3.6,8,8,8s8-3.6,8-8S12.4,0,8,0z M8,14c-3.3,0-6-2.7-6-6s2.7-6,6-6s6,2.7,6,6 S11.3,14,8,14z" />
      <circle cx="8" cy="8" r="4" />
    </symbol>
    <symbol id="icon-circle-half" viewBox="0 0 16 16">
      <path d="M8,0C3.6,0,0,3.6,0,8s3.6,8,8,8s8-3.6,8-8S12.4,0,8,0z M2,8c0-3.3,2.7-6,6-6v12C4.7,14,2,11.3,2,8z" />
    </symbol>
    <symbol id="icon-circle-nested" viewBox="0 0 16 16">
      <path d="M8,0C3.6,0,0,3.6,0,8s3.6,8,8,8s8-3.6,8-8S12.4,0,8,0z M8,14c-3.3,0-6-2.7-6-6s2.7-6,6-6s6,2.7,6,6 S11.3,14,8,14z" />
      <path d="M8,4C5.8,4,4,5.8,4,8s1.8,4,4,4s4-1.8,4-4S10.2,4,8,4z M8,10c-1.1,0-2-0.9-2-2s0.9-2,2-2 s2,0.9,2,2S9.1,10,8,10z" />
    </symbol>
    <symbol id="icon-circle-outline" viewBox="0 0 16 16">
      <path d="M8 0C3.6 0 0 3.6 0 8s3.6 8 8 8 8-3.6 8-8-3.6-8-8-8zm0 14c-3.3 0-6-2.7-6-6s2.7-6 6-6 6 2.7 6 6-2.7 6-6 6z" />
    </symbol>
		<symbol id="icon-clear" viewBox="0 0 24 24">
			<path d="M8.58564 8.85461L3.63589 13.8044L8.83021 18.9987L9.99985 18.998V18.9967H11.1714L14.9496 15.2186L8.58564 8.85461ZM9.99985 7.44039L16.3638 13.8044L19.1922 10.9759L12.8283 4.61197L9.99985 7.44039ZM13.9999 18.9967H20.9999V20.9967H11.9999L8.00229 20.9992L1.51457 14.5115C1.12405 14.1209 1.12405 13.4878 1.51457 13.0972L12.1212 2.49065C12.5117 2.10012 13.1449 2.10012 13.5354 2.49065L21.3136 10.2688C21.7041 10.6593 21.7041 11.2925 21.3136 11.683L13.9999 18.9967Z"></path>
    </symbol>
    <symbol id="icon-clock" viewBox="0 0 24 24">
      <path d="M12 22C6.47715 22 2 17.5228 2 12C2 6.47715 6.47715 2 12 2C17.5228 2 22 6.47715 22 12C22 17.5228 17.5228 22 12 22ZM12 20C16.4183 20 20 16.4183 20 12C20 7.58172 16.4183 4 12 4C7.58172 4 4 7.58172 4 12C4 16.4183 7.58172 20 12 20ZM13 12H17V14H11V7H13V12Z"></path>
    </symbol>
    <symbol id="icon-code" viewBox="0 0 24 24">
			<path d="M24 12L18.3431 17.6569L16.9289 16.2426L21.1716 12L16.9289 7.75736L18.3431 6.34315L24 12ZM2.82843 12L7.07107 16.2426L5.65685 17.6569L0 12L5.65685 6.34315L7.07107 7.75736L2.82843 12ZM9.78845 21H7.66009L14.2116 3H16.3399L9.78845 21Z"></path>
    </symbol>
    <symbol id="icon-cog" viewBox="0 0 24 24">
			<path d="M2.21329 14.0601C1.92026 12.6755 1.93213 11.2743 2.21413 9.94038C3.32405 10.0711 4.29284 9.7035 4.60963 8.93871C4.92641 8.17392 4.50129 7.22896 3.62405 6.53655C4.36788 5.3939 5.35029 4.39471 6.53651 3.62289C7.22898 4.50059 8.17422 4.92601 8.9392 4.60914C9.70418 4.29227 10.0717 3.32308 9.94077 2.21281C11.3253 1.91977 12.7265 1.93164 14.0605 2.21364C13.9298 3.32356 14.2973 4.29235 15.0621 4.60914C15.8269 4.92593 16.7719 4.5008 17.4643 3.62356C18.6069 4.36739 19.6061 5.3498 20.3779 6.53602C19.5002 7.22849 19.0748 8.17373 19.3917 8.93871C19.7086 9.70369 20.6778 10.0713 21.788 9.94028C22.0811 11.3248 22.0692 12.726 21.7872 14.06C20.6773 13.9293 19.7085 14.2969 19.3917 15.0616C19.0749 15.8264 19.5 16.7714 20.3773 17.4638C19.6335 18.6064 18.651 19.6056 17.4648 20.3775C16.7724 19.4998 15.8271 19.0743 15.0621 19.3912C14.2971 19.7081 13.9296 20.6773 14.0606 21.7875C12.676 22.0806 11.2748 22.0687 9.94087 21.7867C10.0716 20.6768 9.70399 19.708 8.9392 19.3912C8.17441 19.0744 7.22945 19.4995 6.53703 20.3768C5.39439 19.633 4.3952 18.6506 3.62338 17.4643C4.50108 16.7719 4.92649 15.8266 4.60963 15.0616C4.29276 14.2967 3.32356 13.9291 2.21329 14.0601ZM4.00073 12.2104C5.10054 12.5148 6.00815 13.2117 6.45739 14.2963C6.90662 15.3808 6.75764 16.5154 6.19519 17.5083C6.29175 17.61 6.39096 17.7092 6.4927 17.8056C7.48558 17.2432 8.6201 17.0943 9.70456 17.5435C10.789 17.9927 11.4859 18.9002 11.7904 19.9999C11.9305 20.0037 12.0707 20.0038 12.2109 20.0001C12.5153 18.9003 13.2122 17.9927 14.2968 17.5435C15.3813 17.0942 16.5159 17.2432 17.5088 17.8057C17.6105 17.7091 17.7096 17.6099 17.806 17.5081C17.2437 16.5153 17.0947 15.3807 17.5439 14.2963C17.9931 13.2118 18.9007 12.5149 20.0004 12.2105C20.0042 12.0704 20.0043 11.9301 20.0006 11.7899C18.9008 11.4856 17.9932 10.7886 17.5439 9.70407C17.0947 8.61953 17.2437 7.48494 17.8061 6.49204C17.7096 6.39031 17.6104 6.2912 17.5086 6.19479C16.5158 6.75717 15.3812 6.9061 14.2968 6.4569C13.2123 6.0077 12.5154 5.10016 12.211 4.00044C12.0709 3.99666 11.9306 3.99659 11.7904 4.00024C11.486 5.10005 10.7891 6.00767 9.70456 6.4569C8.62002 6.90613 7.48543 6.75715 6.49252 6.1947C6.39079 6.29126 6.29169 6.39047 6.19528 6.49222C6.75766 7.48509 6.90659 8.61961 6.45739 9.70407C6.00819 10.7885 5.10065 11.4855 4.00092 11.7899C3.99715 11.93 3.99708 12.0702 4.00073 12.2104ZM12.0007 15.0002C10.3438 15.0002 9.00066 13.657 9.00066 12.0002C9.00066 10.3433 10.3438 9.00018 12.0007 9.00018C13.6575 9.00018 15.0007 10.3433 15.0007 12.0002C15.0007 13.657 13.6575 15.0002 12.0007 15.0002ZM12.0007 13.0002C12.5529 13.0002 13.0007 12.5525 13.0007 12.0002C13.0007 11.4479 12.5529 11.0002 12.0007 11.0002C11.4484 11.0002 11.0007 11.4479 11.0007 12.0002C11.0007 12.5525 11.4484 13.0002 12.0007 13.0002Z"></path>
    </symbol>
    <symbol id="icon-collapse" viewBox="0 0 16 16">
      <path d="M15.707 1.707A.999.999 0 1 0 14.293.293l-2.5 2.5L9 0v7h7l-2.793-2.793 2.5-2.5zM2.793 11.793l-2.5 2.5a.999.999 0 1 0 1.414 1.414l2.5-2.5L7 16V9H0l2.793 2.793z" />
    </symbol>
    <symbol id="icon-copy" viewBox="0 0 24 24">
			<path d="M6.9998 6V3C6.9998 2.44772 7.44752 2 7.9998 2H19.9998C20.5521 2 20.9998 2.44772 20.9998 3V17C20.9998 17.5523 20.5521 18 19.9998 18H16.9998V20.9991C16.9998 21.5519 16.5499 22 15.993 22H4.00666C3.45059 22 3 21.5554 3 20.9991L3.0026 7.00087C3.0027 6.44811 3.45264 6 4.00942 6H6.9998ZM5.00242 8L5.00019 20H14.9998V8H5.00242ZM8.9998 6H16.9998V16H18.9998V4H8.9998V6Z" />
    </symbol>
    <symbol id="icon-credit-card" viewBox="0 0 24 24">
      <path d="M22.0049 10V20C22.0049 20.5523 21.5572 21 21.0049 21H3.00488C2.4526 21 2.00488 20.5523 2.00488 20V10H22.0049ZM22.0049 8H2.00488V4C2.00488 3.44772 2.4526 3 3.00488 3H21.0049C21.5572 3 22.0049 3.44772 22.0049 4V8ZM15.0049 16V18H19.0049V16H15.0049Z"></path>
    </symbol>
    <symbol id="icon-crop" viewBox="0 0 24 24">
      <path d="M15 17V19H6C5.44772 19 5 18.5523 5 18V7H2V5H5V2H7V17H15ZM17 22V7H9V5H18C18.5523 5 19 5.44772 19 6V17H22V19H19V22H17Z"></path>
    </symbol>
    <symbol id="icon-dashboard" viewBox="0 0 24 24">
			<path d="M22 20C22 20.5523 21.5523 21 21 21H3C2.44772 21 2 20.5523 2 20V4C2 3.44772 2.44772 3 3 3H21C21.5523 3 22 3.44772 22 4V20ZM11 15H4V19H11V15ZM20 11H13V19H20V11ZM11 5H4V13H11V5ZM20 5H13V9H20V5Z"></path>    </symbol>
    <symbol id="icon-discord" viewBox="0 0 24 24">
      <path d="M8.52062 13.8456C7.48059 13.8456 6.63159 12.9011 6.63159 11.7444 6.63159 10.5876 7.45936 9.64307 8.52062 9.64307 9.57123 9.64307 10.4308 10.5876 10.4096 11.7444 10.4096 12.9011 9.57123 13.8456 8.52062 13.8456ZM15.4941 13.8456C14.454 13.8456 13.604 12.9011 13.604 11.7444 13.604 10.5876 14.4328 9.64307 15.4941 9.64307 16.5447 9.64307 17.4043 10.5876 17.3831 11.7444 17.3831 12.9011 16.5553 13.8456 15.4941 13.8456ZM10.1253 4.32272 9.81655 3.75977 9.18323 3.86532C7.71915 4.10934 6.32658 4.54652 5.02544 5.1458L4.79651 5.25124 4.65507 5.45985C2.0418 9.31417 1.3258 13.1084 1.68032 16.836L1.71897 17.2423 2.04912 17.4822C3.78851 18.7463 5.47417 19.5186 7.12727 20.0254L7.91657 20.2674 9.03013 17.5504C10.9397 18.0224 13.0592 18.0225 14.969 17.5508L16.0757 20.2681 16.8668 20.0254C18.5173 19.5191 20.2137 18.7469 21.9466 17.4809L22.2726 17.2428 22.3131 16.8412C22.7491 12.521 21.616 8.75749 19.3547 5.45628L19.2128 5.2492 18.9846 5.1448C17.6767 4.5466 16.2852 4.10957 14.8309 3.86549L14.2132 3.76182 13.8987 4.30344C13.8112 4.4542 13.7215 4.6244 13.6364 4.79662 12.5441 4.68445 11.456 4.68421 10.3726 4.79627 10.2882 4.62711 10.2025 4.46356 10.1253 4.32272ZM6.71436 16.61C6.91235 16.724 7.11973 16.8356 7.32557 16.9378L6.8764 18.0338C5.75585 17.6256 4.61837 17.0635 3.4476 16.2555 3.22313 13.1175 3.86092 9.95075 6.01196 6.68602 6.90962 6.29099 7.8535 5.98255 8.83606 5.77271 8.89631 5.89807 8.95235 6.02042 8.99839 6.12892L9.27128 6.77213 9.96259 6.67074C11.3152 6.47235 12.6772 6.47209 14.0523 6.671L14.7424 6.77082 15.0147 6.12892C15.0621 6.01719 15.1167 5.89523 15.1743 5.77298 16.1525 5.98301 17.098 6.29188 18.0029 6.68787 19.8781 9.50833 20.8241 12.6541 20.5486 16.255 19.3837 17.0623 18.2422 17.6246 17.1193 18.0333L16.6735 16.9387C16.8799 16.8362 17.0879 16.7243 17.2865 16.61 17.7763 16.3277 18.3039 15.9757 18.6402 15.6395L17.3606 14.36C17.1969 14.5237 16.837 14.7805 16.3831 15.0421 15.9388 15.2981 15.498 15.5049 15.2164 15.598 13.2126 16.2606 10.7883 16.2606 8.78443 15.598 8.50285 15.5049 8.06205 15.2981 7.61772 15.0421 7.16383 14.7805 6.80392 14.5237 6.64017 14.36L5.36065 15.6395C5.6969 15.9757 6.2245 16.3277 6.71436 16.61Z"></path>
    </symbol>
    <symbol id="icon-discount" viewBox="0 0 24 24">
      <path d="M17.5049 21.0029C15.5719 21.0029 14.0049 19.4359 14.0049 17.5029C14.0049 15.5699 15.5719 14.0029 17.5049 14.0029C19.4379 14.0029 21.0049 15.5699 21.0049 17.5029C21.0049 19.4359 19.4379 21.0029 17.5049 21.0029ZM17.5049 19.0029C18.3333 19.0029 19.0049 18.3314 19.0049 17.5029C19.0049 16.6745 18.3333 16.0029 17.5049 16.0029C16.6765 16.0029 16.0049 16.6745 16.0049 17.5029C16.0049 18.3314 16.6765 19.0029 17.5049 19.0029ZM6.50488 10.0029C4.57189 10.0029 3.00488 8.43593 3.00488 6.50293C3.00488 4.56993 4.57189 3.00293 6.50488 3.00293C8.43788 3.00293 10.0049 4.56993 10.0049 6.50293C10.0049 8.43593 8.43788 10.0029 6.50488 10.0029ZM6.50488 8.00293C7.33331 8.00293 8.00488 7.33136 8.00488 6.50293C8.00488 5.6745 7.33331 5.00293 6.50488 5.00293C5.67646 5.00293 5.00488 5.6745 5.00488 6.50293C5.00488 7.33136 5.67646 8.00293 6.50488 8.00293ZM19.076 3.51765L20.4902 4.93186L4.93382 20.4882L3.5196 19.074L19.076 3.51765Z"></path>
    </symbol>
    <symbol id="icon-display" viewBox="0 0 24 24">
      <path d="M4 16H20V5H4V16ZM13 18V20H17V22H7V20H11V18H2.9918C2.44405 18 2 17.5511 2 16.9925V4.00748C2 3.45107 2.45531 3 2.9918 3H21.0082C21.556 3 22 3.44892 22 4.00748V16.9925C22 17.5489 21.5447 18 21.0082 18H13Z"></path>
    </symbol>
    <symbol id="icon-divider" viewBox="0 0 24 24">
			<path d="M19 11V5H5V11H19ZM19 13H5V19H19V13ZM4 3H20C20.5523 3 21 3.44772 21 4V20C21 20.5523 20.5523 21 20 21H4C3.44772 21 3 20.5523 3 20V4C3 3.44772 3.44772 3 4 3Z"></path>
    </symbol>
    <symbol id="icon-document" viewBox="0 0 24 24">
      <path d="M20 22H4C3.44772 22 3 21.5523 3 21V3C3 2.44772 3.44772 2 4 2H20C20.5523 2 21 2.44772 21 3V21C21 21.5523 20.5523 22 20 22ZM19 20V4H5V20H19ZM7 6H11V10H7V6ZM7 12H17V14H7V12ZM7 16H17V18H7V16ZM13 7H17V9H13V7Z"></path>
    </symbol>
    <symbol id="icon-dots" viewBox="0 0 24 24">
			<path d="M5 10C3.9 10 3 10.9 3 12C3 13.1 3.9 14 5 14C6.1 14 7 13.1 7 12C7 10.9 6.1 10 5 10ZM19 10C17.9 10 17 10.9 17 12C17 13.1 17.9 14 19 14C20.1 14 21 13.1 21 12C21 10.9 20.1 10 19 10ZM12 10C10.9 10 10 10.9 10 12C10 13.1 10.9 14 12 14C13.1 14 14 13.1 14 12C14 10.9 13.1 10 12 10Z"></path>
    </symbol>
    <symbol id="icon-download" viewBox="0 0 24 24">
			<path d="M13 10H18L12 16L6 10H11V3H13V10ZM4 19H20V12H22V20C22 20.5523 21.5523 21 21 21H3C2.44772 21 2 20.5523 2 20V12H4V19Z"></path>
    </symbol>
    <symbol id="icon-draft" viewBox="0 0 16 16">
      <path d="M4 0v9H0v4c0 1.7 1.3 3 3 3h10c1.7 0 3-1.3 3-3V0H4zm10 13c0 .6-.4 1-1 1H6V2h8v11z" />
      <path d="M8 5h4v2H8V5zM8 9h4v2H8V9z" />
    </symbol>
    <symbol id="icon-edit" viewBox="0 0 16 16">
      <path d="M8.1 3.5L.3 11.3c-.2.2-.3.4-.3.7v3c0 .6.4 1 1 1h3c.3 0 .5-.1.7-.3l7.8-7.8-4.4-4.4zM15.7 3.3l-3-3c-.4-.4-1-.4-1.4 0L9.5 2.1l4.4 4.4 1.8-1.8c.4-.4.4-1 0-1.4z" />
    </symbol>
		<symbol id="icon-edit-sheet" viewBox="0 0 24 24">
			<path d="M6.41421 15.89L16.5563 5.74786L15.1421 4.33365L5 14.4758V15.89H6.41421ZM7.24264 17.89H3V13.6474L14.435 2.21233C14.8256 1.8218 15.4587 1.8218 15.8492 2.21233L18.6777 5.04075C19.0682 5.43128 19.0682 6.06444 18.6777 6.45497L7.24264 17.89ZM3 19.89H21V21.89H3V19.89Z"></path>
		</symbol>
    <symbol id="icon-email" viewBox="0 0 24 24">
			<path d="M3 3H21C21.5523 3 22 3.44772 22 4V20C22 20.5523 21.5523 21 21 21H3C2.44772 21 2 20.5523 2 20V4C2 3.44772 2.44772 3 3 3ZM20 7.23792L12.0718 14.338L4 7.21594V19H20V7.23792ZM4.51146 5L12.0619 11.662L19.501 5H4.51146Z"></path>
    </symbol>
    <symbol id="icon-expand" viewBox="0 0 16 16">
      <path d="M7.4 10L6 8.6l-2.7 2.7L0 8v8h8l-3.3-3.3zM11.3 3.3L8.6 6 10 7.4l2.7-2.7L16 8V0H8z" />
    </symbol>
    <symbol id="icon-facebook" viewBox="0 0 24 24">
      <path d="M15.4024 21V14.0344H17.7347L18.0838 11.3265H15.4024V9.59765C15.4024 8.81364 15.62 8.27934 16.7443 8.27934L18.1783 8.27867V5.85676C17.9302 5.82382 17.0791 5.75006 16.0888 5.75006C14.0213 5.75006 12.606 7.01198 12.606 9.32952V11.3265H10.2677V14.0344H12.606V21H4C3.44772 21 3 20.5523 3 20V4C3 3.44772 3.44772 3 4 3H20C20.5523 3 21 3.44772 21 4V20C21 20.5523 20.5523 21 20 21H15.4024Z"></path>
    </symbol>
    <symbol id="icon-file" viewBox="0 0 32 32">
      <use href="#icon-attachment" />
    </symbol>
    <symbol id="icon-file-audio" viewBox="0 0 32 32">
      <use href="#icon-audio" />
    </symbol>
    <symbol id="icon-file-code" viewBox="0 0 32 32">
      <use href="#icon-code" />
    </symbol>
    <symbol id="icon-file-document" viewBox="0 0 32 32">
      <use href="#icon-document" />
    </symbol>
    <symbol id="icon-file-image" viewBox="0 0 32 32">
      <use href="#icon-image" />
    </symbol>
    <symbol id="icon-file-spreadsheet" viewBox="0 0 32 32">
      <use href="#icon-table" />
    </symbol>
    <symbol id="icon-file-text" viewBox="0 0 32 32">
      <use href="#icon-markdown" />
    </symbol>
    <symbol id="icon-file-video" viewBox="0 0 32 32">
      <use href="#icon-video" />
    </symbol>
    <symbol id="icon-file-word" viewBox="0 0 32 32">
      <use href="#icon-pen" />
    </symbol>
    <symbol id="icon-file-zip" viewBox="0 0 32 32">
      <use href="#icon-archive" />
    </symbol>
    <symbol id="icon-filter" viewBox="0 0 16 16">
      <use href="#icon-funnel" />
    </symbol>
    <symbol id="icon-flag" viewBox="0 0 16 16">
      <path d="M13,6l2-5H3c0-0.6-0.4-1-1-1S1,0.4,1,1v14c0,0.6,0.4,1,1,1s1-0.4,1-1v-4h12L13,6z" />
    </symbol>
    <symbol id="icon-folder" viewBox="0 0 24 24">
      <path d="M12.4142 5H21C21.5523 5 22 5.44772 22 6V20C22 20.5523 21.5523 21 21 21H3C2.44772 21 2 20.5523 2 20V4C2 3.44772 2.44772 3 3 3H10.4142L12.4142 5ZM20 11H4V19H20V11ZM20 9V7H11.5858L9.58579 5H4V9H20Z"></path>
    </symbol>
    <symbol id="icon-folder-structure" viewBox="0 0 24 24">
      <path d="M10 2C10.5523 2 11 2.44772 11 3V7C11 7.55228 10.5523 8 10 8H8V10H13V9C13 8.44772 13.4477 8 14 8H20C20.5523 8 21 8.44772 21 9V13C21 13.5523 20.5523 14 20 14H14C13.4477 14 13 13.5523 13 13V12H8V18H13V17C13 16.4477 13.4477 16 14 16H20C20.5523 16 21 16.4477 21 17V21C21 21.5523 20.5523 22 20 22H14C13.4477 22 13 21.5523 13 21V20H7C6.44772 20 6 19.5523 6 19V8H4C3.44772 8 3 7.55228 3 7V3C3 2.44772 3.44772 2 4 2H10ZM19 18H15V20H19V18ZM19 10H15V12H19V10ZM9 4H5V6H9V4Z"></path>
    </symbol>
    <symbol id="icon-food" viewBox="0 0 16 16">
      <path d="M6,0,5.6,5H4.4L4,0H3L2.6,5H1.4L1,0H0V6A2,2,0,0,0,2,8v6.5a1.5,1.5,0,0,0,3,0V8A2,2,0,0,0,7,6V0Z" />
      <path d="M15,0a5,5,0,0,0-5,5v6h2v3.5A1.5,1.5,0,0,0,13.5,16h0A1.5,1.5,0,0,0,15,14.5V0Z" />
    </symbol>
    <symbol id="icon-funnel" viewBox="0 0 24 24">
			<path d="M10 18H14V16H10V18ZM3 6V8H21V6H3ZM6 13H18V11H6V13Z"></path>
    </symbol>
    <symbol id="icon-github" viewBox="0 0 16 16">
      <path fill-rule="evenodd" clip-rule="evenodd" d="M8,0.2c-4.4,0-8,3.6-8,8c0,3.5,2.3,6.5,5.5,7.6 C5.9,15.9,6,15.6,6,15.4c0-0.2,0-0.7,0-1.4C3.8,14.5,3.3,13,3.3,13c-0.4-0.9-0.9-1.2-0.9-1.2c-0.7-0.5,0.1-0.5,0.1-0.5 c0.8,0.1,1.2,0.8,1.2,0.8C4.4,13.4,5.6,13,6,12.8c0.1-0.5,0.3-0.9,0.5-1.1c-1.8-0.2-3.6-0.9-3.6-4c0-0.9,0.3-1.6,0.8-2.1 c-0.1-0.2-0.4-1,0.1-2.1c0,0,0.7-0.2,2.2,0.8c0.6-0.2,1.3-0.3,2-0.3c0.7,0,1.4,0.1,2,0.3c1.5-1,2.2-0.8,2.2-0.8 c0.4,1.1,0.2,1.9,0.1,2.1c0.5,0.6,0.8,1.3,0.8,2.1c0,3.1-1.9,3.7-3.7,3.9C9.7,12,10,12.5,10,13.2c0,1.1,0,1.9,0,2.2 c0,0.2,0.1,0.5,0.6,0.4c3.2-1.1,5.5-4.1,5.5-7.6C16,3.8,12.4,0.2,8,0.2z" />
    </symbol>
    <symbol id="icon-globe" viewBox="0 0 24 24">
			<path d="M6.23509 6.45329C4.85101 7.89148 4 9.84636 4 12C4 16.4183 7.58172 20 12 20C13.0808 20 14.1116 19.7857 15.0521 19.3972C15.1671 18.6467 14.9148 17.9266 14.8116 17.6746C14.582 17.115 13.8241 16.1582 12.5589 14.8308C12.2212 14.4758 12.2429 14.2035 12.3636 13.3943L12.3775 13.3029C12.4595 12.7486 12.5971 12.4209 14.4622 12.1248C15.4097 11.9746 15.6589 12.3533 16.0043 12.8777C16.0425 12.9358 16.0807 12.9928 16.1198 13.0499C16.4479 13.5297 16.691 13.6394 17.0582 13.8064C17.2227 13.881 17.428 13.9751 17.7031 14.1314C18.3551 14.504 18.3551 14.9247 18.3551 15.8472V15.9518C18.3551 16.3434 18.3168 16.6872 18.2566 16.9859C19.3478 15.6185 20 13.8854 20 12C20 8.70089 18.003 5.8682 15.1519 4.64482C14.5987 5.01813 13.8398 5.54726 13.575 5.91C13.4396 6.09538 13.2482 7.04166 12.6257 7.11976C12.4626 7.14023 12.2438 7.12589 12.012 7.11097C11.3905 7.07058 10.5402 7.01606 10.268 7.75495C10.0952 8.2232 10.0648 9.49445 10.6239 10.1543C10.7134 10.2597 10.7307 10.4547 10.6699 10.6735C10.59 10.9608 10.4286 11.1356 10.3783 11.1717C10.2819 11.1163 10.0896 10.8931 9.95938 10.7412C9.64554 10.3765 9.25405 9.92233 8.74797 9.78176C8.56395 9.73083 8.36166 9.68867 8.16548 9.64736C7.6164 9.53227 6.99443 9.40134 6.84992 9.09302C6.74442 8.8672 6.74488 8.55621 6.74529 8.22764C6.74529 7.8112 6.74529 7.34029 6.54129 6.88256C6.46246 6.70541 6.35689 6.56446 6.23509 6.45329ZM12 22C6.47715 22 2 17.5228 2 12C2 6.47715 6.47715 2 12 2C17.5228 2 22 6.47715 22 12C22 17.5228 17.5228 22 12 22Z"></path>
    </symbol>
    <symbol id="icon-grid" viewBox="0 0 16 16">
      <path d="M6 0H1C0.4 0 0 0.4 0 1V6C0 6.6 0.4 7 1 7H6C6.6 7 7 6.6 7 6V1C7 0.4 6.6 0 6 0Z" />
      <path d="M15 0H10C9.4 0 9 0.4 9 1V6C9 6.6 9.4 7 10 7H15C15.6 7 16 6.6 16 6V1C16 0.4 15.6 0 15 0Z" />
      <path d="M6 9H1C0.4 9 0 9.4 0 10V15C0 15.6 0.4 16 1 16H6C6.6 16 7 15.6 7 15V10C7 9.4 6.6 9 6 9Z" />
      <path d="M15 9H10C9.4 9 9 9.4 9 10V15C9 15.6 9.4 16 10 16H15C15.6 16 16 15.6 16 15V10C16 9.4 15.6 9 15 9Z" />
    </symbol>
    <symbol id="icon-grid-bottom" viewBox="0 0 16 16">
      <path d="M6 0H1C0.4 0 0 0.4 0 1V6C0 6.6 0.4 7 1 7H6C6.6 7 7 6.6 7 6V1C7 0.4 6.6 0 6 0Z" fill-opacity="0.25"/>
      <path d="M15 0H10C9.4 0 9 0.4 9 1V6C9 6.6 9.4 7 10 7H15C15.6 7 16 6.6 16 6V1C16 0.4 15.6 0 15 0Z" fill-opacity="0.25"/>
      <path d="M15 9H1C0.4 9 0 9.4 0 10V15C0 15.6 0.4 16 1 16H15C15.6 16 16 15.6 16 15V10C16 9.4 15.6 9 15 9Z"/>
    </symbol>
    <symbol id="icon-grid-bottom-left" viewBox="0 0 16 16">
      <path d="M6 0H1C0.4 0 0 0.4 0 1V6C0 6.6 0.4 7 1 7H6C6.6 7 7 6.6 7 6V1C7 0.4 6.6 0 6 0Z" fill-opacity="0.25"/>
      <path d="M15 0H10C9.4 0 9 0.4 9 1V6C9 6.6 9.4 7 10 7H15C15.6 7 16 6.6 16 6V1C16 0.4 15.6 0 15 0Z" fill-opacity="0.25"/>
      <path d="M6 9H1C0.4 9 0 9.4 0 10V15C0 15.6 0.4 16 1 16H6C6.6 16 7 15.6 7 15V10C7 9.4 6.6 9 6 9Z"/>
      <path d="M15 9H10C9.4 9 9 9.4 9 10V15C9 15.6 9.4 16 10 16H15C15.6 16 16 15.6 16 15V10C16 9.4 15.6 9 15 9Z" fill-opacity="0.25"/>
    </symbol>
    <symbol id="icon-grid-bottom-right" viewBox="0 0 16 16">
      <path d="M6 0H1C0.4 0 0 0.4 0 1V6C0 6.6 0.4 7 1 7H6C6.6 7 7 6.6 7 6V1C7 0.4 6.6 0 6 0Z" fill-opacity="0.25"/>
      <path d="M15 0H10C9.4 0 9 0.4 9 1V6C9 6.6 9.4 7 10 7H15C15.6 7 16 6.6 16 6V1C16 0.4 15.6 0 15 0Z" fill-opacity="0.25"/>
      <path d="M6 9H1C0.4 9 0 9.4 0 10V15C0 15.6 0.4 16 1 16H6C6.6 16 7 15.6 7 15V10C7 9.4 6.6 9 6 9Z" fill-opacity="0.25"/>
      <path d="M15 9H10C9.4 9 9 9.4 9 10V15C9 15.6 9.4 16 10 16H15C15.6 16 16 15.6 16 15V10C16 9.4 15.6 9 15 9Z"/>
    </symbol>
    <symbol id="icon-grid-full" viewBox="0 0 16 16">
      <path d="M15 0H1C0.4 0 0 0.4 0 1L0 15C0 15.6 0.4 16 1 16H15C15.6 16 16 15.6 16 15V1C16 0.4 15.6 0 15 0Z"/>
    </symbol>
    <symbol id="icon-grid-left" viewBox="0 0 16 16">
      <path d="M6 0H1C0.4 0 0 0.4 0 1V15C0 15.6 0.4 16 1 16H6C6.6 16 7 15.6 7 15V1C7 0.4 6.6 0 6 0Z"/>
      <path d="M15 0H10C9.4 0 9 0.4 9 1V6C9 6.6 9.4 7 10 7H15C15.6 7 16 6.6 16 6V1C16 0.4 15.6 0 15 0Z" fill-opacity="0.25"/>
      <path d="M15 9H10C9.4 9 9 9.4 9 10V15C9 15.6 9.4 16 10 16H15C15.6 16 16 15.6 16 15V10C16 9.4 15.6 9 15 9Z" fill-opacity="0.25"/>
    </symbol>
    <symbol id="icon-grid-right" viewBox="0 0 16 16">
      <path d="M6 0H1C0.4 0 0 0.4 0 1V6C0 6.6 0.4 7 1 7H6C6.6 7 7 6.6 7 6V1C7 0.4 6.6 0 6 0Z" fill-opacity="0.25"/>
      <path d="M6 9H1C0.4 9 0 9.4 0 10V15C0 15.6 0.4 16 1 16H6C6.6 16 7 15.6 7 15V10C7 9.4 6.6 9 6 9Z" fill-opacity="0.25"/>
      <path d="M15 0H10C9.4 0 9 0.4 9 1V15C9 15.6 9.4 16 10 16H15C15.6 16 16 15.6 16 15V1C16 0.4 15.6 0 15 0Z"/>
    </symbol>
    <symbol id="icon-grid-top" viewBox="0 0 16 16">
      <path d="M15 0L1 0C0.4 0 0 0.4 0 1V6C0 6.6 0.4 7 1 7H15C15.6 7 16 6.6 16 6V1C16 0.4 15.6 0 15 0Z"/>
      <path d="M6 9H1C0.4 9 0 9.4 0 10V15C0 15.6 0.4 16 1 16H6C6.6 16 7 15.6 7 15V10C7 9.4 6.6 9 6 9Z" fill-opacity="0.25"/>
      <path d="M15 9H10C9.4 9 9 9.4 9 10V15C9 15.6 9.4 16 10 16H15C15.6 16 16 15.6 16 15V10C16 9.4 15.6 9 15 9Z" fill-opacity="0.25"/>
    </symbol>
    <symbol id="icon-grid-top-left" viewBox="0 0 16 16">
      <path d="M6 0H1C0.4 0 0 0.4 0 1V6C0 6.6 0.4 7 1 7H6C6.6 7 7 6.6 7 6V1C7 0.4 6.6 0 6 0Z"/>
      <path d="M15 0H10C9.4 0 9 0.4 9 1V6C9 6.6 9.4 7 10 7H15C15.6 7 16 6.6 16 6V1C16 0.4 15.6 0 15 0Z" fill-opacity="0.25"/>
      <path d="M6 9H1C0.4 9 0 9.4 0 10V15C0 15.6 0.4 16 1 16H6C6.6 16 7 15.6 7 15V10C7 9.4 6.6 9 6 9Z" fill-opacity="0.25"/>
      <path d="M15 9H10C9.4 9 9 9.4 9 10V15C9 15.6 9.4 16 10 16H15C15.6 16 16 15.6 16 15V10C16 9.4 15.6 9 15 9Z" fill-opacity="0.25"/>
    </symbol>
    <symbol id="icon-grid-top-right" viewBox="0 0 16 16">
      <path d="M6 0H1C0.4 0 0 0.4 0 1V6C0 6.6 0.4 7 1 7H6C6.6 7 7 6.6 7 6V1C7 0.4 6.6 0 6 0Z" fill-opacity="0.25"/>
      <path d="M15 0H10C9.4 0 9 0.4 9 1V6C9 6.6 9.4 7 10 7H15C15.6 7 16 6.6 16 6V1C16 0.4 15.6 0 15 0Z"/>
      <path d="M6 9H1C0.4 9 0 9.4 0 10V15C0 15.6 0.4 16 1 16H6C6.6 16 7 15.6 7 15V10C7 9.4 6.6 9 6 9Z" fill-opacity="0.25"/>
      <path d="M15 9H10C9.4 9 9 9.4 9 10V15C9 15.6 9.4 16 10 16H15C15.6 16 16 15.6 16 15V10C16 9.4 15.6 9 15 9Z" fill-opacity="0.25"/>
    </symbol>
    <symbol id="icon-h1" viewBox="0 0 24 24">
			<path d="M13 20H11V13H4V20H2V4H4V11H11V4H13V20ZM21.0005 8V20H19.0005L19 10.204L17 10.74V8.67L19.5005 8H21.0005Z" />
    </symbol>
    <symbol id="icon-h2" viewBox="0 0 24 24">
			<path d="M4 4V11H11V4H13V20H11V13H4V20H2V4H4ZM18.5 8C20.5711 8 22.25 9.67893 22.25 11.75C22.25 12.6074 21.9623 13.3976 21.4781 14.0292L21.3302 14.2102L18.0343 18H22V20H15L14.9993 18.444L19.8207 12.8981C20.0881 12.5908 20.25 12.1893 20.25 11.75C20.25 10.7835 19.4665 10 18.5 10C17.5818 10 16.8288 10.7071 16.7558 11.6065L16.75 11.75H14.75C14.75 9.67893 16.4289 8 18.5 8Z" />
    </symbol>
    <symbol id="icon-h3" viewBox="0 0 24 24">
			<path d="M22 8L21.9984 10L19.4934 12.883C21.0823 13.3184 22.25 14.7728 22.25 16.5C22.25 18.5711 20.5711 20.25 18.5 20.25C16.674 20.25 15.1528 18.9449 14.8184 17.2166L16.7821 16.8352C16.9384 17.6413 17.6481 18.25 18.5 18.25C19.4665 18.25 20.25 17.4665 20.25 16.5C20.25 15.5335 19.4665 14.75 18.5 14.75C18.214 14.75 17.944 14.8186 17.7056 14.9403L16.3992 13.3932L19.3484 10H15V8H22ZM4 4V11H11V4H13V20H11V13H4V20H2V4H4Z"></path>
    </symbol>
    <symbol id="icon-h4" viewBox="0 0 24 24">
			<path d="M13 20H11V13H4V20H2V4H4V11H11V4H13V20ZM22 8V16H23.5V18H22V20H20V18H14.5V16.66L19.5 8H22ZM20 11.133L17.19 16H20V11.133Z"></path>
		</symbol>
    <symbol id="icon-h5" viewBox="0 0 24 24">
			<path d="M22 8V10H17.6769L17.2126 12.6358C17.5435 12.5472 17.8912 12.5 18.25 12.5C20.4591 12.5 22.25 14.2909 22.25 16.5C22.25 18.7091 20.4591 20.5 18.25 20.5C16.4233 20.5 14.8827 19.2756 14.4039 17.6027L16.3271 17.0519C16.5667 17.8881 17.3369 18.5 18.25 18.5C19.3546 18.5 20.25 17.6046 20.25 16.5C20.25 15.3954 19.3546 14.5 18.25 14.5C17.6194 14.5 17.057 14.7918 16.6904 15.2478L14.8803 14.3439L16 8H22ZM4 4V11H11V4H13V20H11V13H4V20H2V4H4Z"></path>
    </symbol>
    <symbol id="icon-h6" viewBox="0 0 24 24">
			<path d="M21.097 8L18.499 12.5C20.7091 12.5 22.5 14.2909 22.5 16.5C22.5 18.7091 20.7091 20.5 18.5 20.5C16.2909 20.5 14.5 18.7091 14.5 16.5C14.5 15.7636 14.699 15.0737 15.0461 14.4811L18.788 8H21.097ZM4 4V11H11V4H13V20H11V13H4V20H2V4H4ZM18.5 14.5C17.3954 14.5 16.5 15.3954 16.5 16.5C16.5 17.6046 17.3954 18.5 18.5 18.5C19.6046 18.5 20.5 17.6046 20.5 16.5C20.5 15.3954 19.6046 14.5 18.5 14.5Z"></path>
    </symbol>
    <symbol id="icon-headline" viewBox="0 0 24 24">
      <path d="M17 11V4H19V21H17V13H7V21H5V4H7V11H17Z"></path>
    </symbol>
    <symbol id="icon-heart" viewBox="0 0 24 24">
      <path d="M12.001 4.52853C14.35 2.42 17.98 2.49 20.2426 4.75736C22.5053 7.02472 22.583 10.637 20.4786 12.993L11.9999 21.485L3.52138 12.993C1.41705 10.637 1.49571 7.01901 3.75736 4.75736C6.02157 2.49315 9.64519 2.41687 12.001 4.52853Z"></path>
    </symbol>
    <symbol id="icon-heart-outline" viewBox="0 0 24 24">
      <path d="M12.001 4.52853C14.35 2.42 17.98 2.49 20.2426 4.75736C22.5053 7.02472 22.583 10.637 20.4786 12.993L11.9999 21.485L3.52138 12.993C1.41705 10.637 1.49571 7.01901 3.75736 4.75736C6.02157 2.49315 9.64519 2.41687 12.001 4.52853ZM18.827 6.1701C17.3279 4.66794 14.9076 4.60701 13.337 6.01687L12.0019 7.21524L10.6661 6.01781C9.09098 4.60597 6.67506 4.66808 5.17157 6.17157C3.68183 7.66131 3.60704 10.0473 4.97993 11.6232L11.9999 18.6543L19.0201 11.6232C20.3935 10.0467 20.319 7.66525 18.827 6.1701Z"></path>
    </symbol>
    <symbol id="icon-hidden" viewBox="0 0 24 24">
      <path d="M17.8827 19.2968C16.1814 20.3755 14.1638 21.0002 12.0003 21.0002C6.60812 21.0002 2.12215 17.1204 1.18164 12.0002C1.61832 9.62282 2.81932 7.5129 4.52047 5.93457L1.39366 2.80777L2.80788 1.39355L22.6069 21.1925L21.1927 22.6068L17.8827 19.2968ZM5.9356 7.3497C4.60673 8.56015 3.6378 10.1672 3.22278 12.0002C4.14022 16.0521 7.7646 19.0002 12.0003 19.0002C13.5997 19.0002 15.112 18.5798 16.4243 17.8384L14.396 15.8101C13.7023 16.2472 12.8808 16.5002 12.0003 16.5002C9.51498 16.5002 7.50026 14.4854 7.50026 12.0002C7.50026 11.1196 7.75317 10.2981 8.19031 9.60442L5.9356 7.3497ZM12.9139 14.328L9.67246 11.0866C9.5613 11.3696 9.50026 11.6777 9.50026 12.0002C9.50026 13.3809 10.6196 14.5002 12.0003 14.5002C12.3227 14.5002 12.6309 14.4391 12.9139 14.328ZM20.8068 16.5925L19.376 15.1617C20.0319 14.2268 20.5154 13.1586 20.7777 12.0002C19.8603 7.94818 16.2359 5.00016 12.0003 5.00016C11.1544 5.00016 10.3329 5.11773 9.55249 5.33818L7.97446 3.76015C9.22127 3.26959 10.5793 3.00016 12.0003 3.00016C17.3924 3.00016 21.8784 6.87992 22.8189 12.0002C22.5067 13.6998 21.8038 15.2628 20.8068 16.5925ZM11.7229 7.50857C11.8146 7.50299 11.9071 7.50016 12.0003 7.50016C14.4855 7.50016 16.5003 9.51488 16.5003 12.0002C16.5003 12.0933 16.4974 12.1858 16.4919 12.2775L11.7229 7.50857Z"></path>
    </symbol>
    <symbol id="icon-home" viewBox="0 0 24 24">
			<path d="M19 21.0001H5C4.44772 21.0001 4 20.5524 4 20.0001V11.0001L1 11.0001L11.3273 1.61162C11.7087 1.26488 12.2913 1.26488 12.6727 1.61162L23 11.0001L20 11.0001V20.0001C20 20.5524 19.5523 21.0001 19 21.0001ZM13 19.0001H18V9.15757L12 3.70302L6 9.15757V19.0001H11V13.0001H13V19.0001Z"></path>
    </symbol>
    <symbol id="icon-image" viewBox="0 0 24 24">
			<path d="M2.9918 21C2.44405 21 2 20.5551 2 20.0066V3.9934C2 3.44476 2.45531 3 2.9918 3H21.0082C21.556 3 22 3.44495 22 3.9934V20.0066C22 20.5552 21.5447 21 21.0082 21H2.9918ZM20 15V5H4V19L14 9L20 15ZM20 17.8284L14 11.8284L6.82843 19H20V17.8284ZM8 11C6.89543 11 6 10.1046 6 9C6 7.89543 6.89543 7 8 7C9.10457 7 10 7.89543 10 9C10 10.1046 9.10457 11 8 11Z" />
    </symbol>
    <symbol id="icon-images" viewBox="0 0 16 16">
      <path d="M15,4H1A.945.945,0,0,0,0,5V15a.945.945,0,0,0,1,1H15a.945.945,0,0,0,1-1V5A.945.945,0,0,0,15,4ZM14,14H2V6H14Z" />
      <rect x="2" width="12" height="2" />
      <polygon points="5 13 10 8 13 13 5 13" />
      <circle cx="5" cy="9" r="1" />
    </symbol>
    <symbol id="icon-import" viewBox="0 0 16 16">
      <use href="#icon-download" />
    </symbol>
    <symbol id="icon-info" viewBox="0 0 24 24">
			<path d="M12 22C6.47715 22 2 17.5228 2 12C2 6.47715 6.47715 2 12 2C17.5228 2 22 6.47715 22 12C22 17.5228 17.5228 22 12 22ZM12 20C16.4183 20 20 16.4183 20 12C20 7.58172 16.4183 4 12 4C7.58172 4 4 7.58172 4 12C4 16.4183 7.58172 20 12 20ZM11 7H13V9H11V7ZM11 11H13V17H11V11Z"></path>
    </symbol>
    <symbol id="icon-instagram" viewBox="0 0 24 24">
      <path d="M12.001 9C10.3436 9 9.00098 10.3431 9.00098 12C9.00098 13.6573 10.3441 15 12.001 15C13.6583 15 15.001 13.6569 15.001 12C15.001 10.3427 13.6579 9 12.001 9ZM12.001 7C14.7614 7 17.001 9.2371 17.001 12C17.001 14.7605 14.7639 17 12.001 17C9.24051 17 7.00098 14.7629 7.00098 12C7.00098 9.23953 9.23808 7 12.001 7ZM18.501 6.74915C18.501 7.43926 17.9402 7.99917 17.251 7.99917C16.5609 7.99917 16.001 7.4384 16.001 6.74915C16.001 6.0599 16.5617 5.5 17.251 5.5C17.9393 5.49913 18.501 6.0599 18.501 6.74915ZM12.001 4C9.5265 4 9.12318 4.00655 7.97227 4.0578C7.18815 4.09461 6.66253 4.20007 6.17416 4.38967C5.74016 4.55799 5.42709 4.75898 5.09352 5.09255C4.75867 5.4274 4.55804 5.73963 4.3904 6.17383C4.20036 6.66332 4.09493 7.18811 4.05878 7.97115C4.00703 9.0752 4.00098 9.46105 4.00098 12C4.00098 14.4745 4.00753 14.8778 4.05877 16.0286C4.0956 16.8124 4.2012 17.3388 4.39034 17.826C4.5591 18.2606 4.7605 18.5744 5.09246 18.9064C5.42863 19.2421 5.74179 19.4434 6.17187 19.6094C6.66619 19.8005 7.19148 19.9061 7.97212 19.9422C9.07618 19.9939 9.46203 20 12.001 20C14.4755 20 14.8788 19.9934 16.0296 19.9422C16.8117 19.9055 17.3385 19.7996 17.827 19.6106C18.2604 19.4423 18.5752 19.2402 18.9074 18.9085C19.2436 18.5718 19.4445 18.2594 19.6107 17.8283C19.8013 17.3358 19.9071 16.8098 19.9432 16.0289C19.9949 14.9248 20.001 14.5389 20.001 12C20.001 9.52552 19.9944 9.12221 19.9432 7.97137C19.9064 7.18906 19.8005 6.66149 19.6113 6.17318C19.4434 5.74038 19.2417 5.42635 18.9084 5.09255C18.573 4.75715 18.2616 4.55693 17.8271 4.38942C17.338 4.19954 16.8124 4.09396 16.0298 4.05781C14.9258 4.00605 14.5399 4 12.001 4ZM12.001 2C14.7176 2 15.0568 2.01 16.1235 2.06C17.1876 2.10917 17.9135 2.2775 18.551 2.525C19.2101 2.77917 19.7668 3.1225 20.3226 3.67833C20.8776 4.23417 21.221 4.7925 21.476 5.45C21.7226 6.08667 21.891 6.81333 21.941 7.8775C21.9885 8.94417 22.001 9.28333 22.001 12C22.001 14.7167 21.991 15.0558 21.941 16.1225C21.8918 17.1867 21.7226 17.9125 21.476 18.55C21.2218 19.2092 20.8776 19.7658 20.3226 20.3217C19.7668 20.8767 19.2076 21.22 18.551 21.475C17.9135 21.7217 17.1876 21.89 16.1235 21.94C15.0568 21.9875 14.7176 22 12.001 22C9.28431 22 8.94514 21.99 7.87848 21.94C6.81431 21.8908 6.08931 21.7217 5.45098 21.475C4.79264 21.2208 4.23514 20.8767 3.67931 20.3217C3.12348 19.7658 2.78098 19.2067 2.52598 18.55C2.27848 17.9125 2.11098 17.1867 2.06098 16.1225C2.01348 15.0558 2.00098 14.7167 2.00098 12C2.00098 9.28333 2.01098 8.94417 2.06098 7.8775C2.11014 6.8125 2.27848 6.0875 2.52598 5.45C2.78014 4.79167 3.12348 4.23417 3.67931 3.67833C4.23514 3.1225 4.79348 2.78 5.45098 2.525C6.08848 2.2775 6.81348 2.11 7.87848 2.06C8.94514 2.0125 9.28431 2 12.001 2Z"></path>
    </symbol>
    <symbol id="icon-italic" viewBox="0 0 24 24">
			<path d="M15 20H7V18H9.92661L12.0425 6H9V4H17V6H14.0734L11.9575 18H15V20Z"></path>
    </symbol>
    <symbol id="icon-key" viewBox="0 0 24 24">
			<path d="M10.7577 11.8279L18.6066 3.979L20.0208 5.39322L18.6066 6.80743L21.0815 9.28231L19.6673 10.6965L17.1924 8.22164L15.7782 9.63586L17.8995 11.7572L16.4853 13.1714L14.364 11.0501L12.1719 13.2421C13.4581 15.1835 13.246 17.8249 11.5355 19.5354C9.58291 21.488 6.41709 21.488 4.46447 19.5354C2.51184 17.5827 2.51184 14.4169 4.46447 12.4643C6.17493 10.7538 8.81633 10.5417 10.7577 11.8279ZM10.1213 18.1211C11.2929 16.9496 11.2929 15.0501 10.1213 13.8785C8.94975 12.7069 7.05025 12.7069 5.87868 13.8785C4.70711 15.0501 4.70711 16.9496 5.87868 18.1211C7.05025 19.2927 8.94975 19.2927 10.1213 18.1211Z"></path>
    </symbol>
    <symbol id="icon-layers" viewBox="0 0 16 16">
      <path d="M8,6H1C0.4,6,0,6.4,0,7v8c0,0.6,0.4,1,1,1h7c0.6,0,1-0.4,1-1V7C9,6.4,8.6,6,8,6z"/>
      <path d="M11,3H3v2h7v8h2V4C12,3.4,11.6,3,11,3z"/>
      <path d="M14,0H6v2h7v8h2V1C15,0.4,14.6,0,14,0z"/>
    </symbol>
    <symbol id="icon-linkedin" viewBox="0 0 16 16">
      <path d="M15.3,0H0.7C0.3,0,0,0.3,0,0.7v14.7C0,15.7,0.3,16,0.7,16h14.7c0.4,0,0.7-0.3,0.7-0.7V0.7 C16,0.3,15.7,0,15.3,0z M4.7,13.6H2.4V6h2.4V13.6z M3.6,5C2.8,5,2.2,4.3,2.2,3.6c0-0.8,0.6-1.4,1.4-1.4c0.8,0,1.4,0.6,1.4,1.4 C4.9,4.3,4.3,5,3.6,5z M13.6,13.6h-2.4V9.9c0-0.9,0-2-1.2-2c-1.2,0-1.4,1-1.4,2v3.8H6.2V6h2.3v1h0c0.3-0.6,1.1-1.2,2.2-1.2 c2.4,0,2.8,1.6,2.8,3.6V13.6z"/>
    </symbol>
    <symbol id="icon-list-bullet" viewBox="0 0 24 24">
			<path d="M8 4H21V6H8V4ZM4.5 6.5C3.67157 6.5 3 5.82843 3 5C3 4.17157 3.67157 3.5 4.5 3.5C5.32843 3.5 6 4.17157 6 5C6 5.82843 5.32843 6.5 4.5 6.5ZM4.5 13.5C3.67157 13.5 3 12.8284 3 12C3 11.1716 3.67157 10.5 4.5 10.5C5.32843 10.5 6 11.1716 6 12C6 12.8284 5.32843 13.5 4.5 13.5ZM4.5 20.4C3.67157 20.4 3 19.7284 3 18.9C3 18.0716 3.67157 17.4 4.5 17.4C5.32843 17.4 6 18.0716 6 18.9C6 19.7284 5.32843 20.4 4.5 20.4ZM8 11H21V13H8V11ZM8 18H21V20H8V18Z"></path>
    </symbol>
    <symbol id="icon-list-numbers" viewBox="0 0 24 24">
			<path d="M5.75024 3.5H4.71733L3.25 3.89317V5.44582L4.25002 5.17782L4.25018 8.5H3V10H7V8.5H5.75024V3.5ZM10 4H21V6H10V4ZM10 11H21V13H10V11ZM10 18H21V20H10V18ZM2.875 15.625C2.875 14.4514 3.82639 13.5 5 13.5C6.17361 13.5 7.125 14.4514 7.125 15.625C7.125 16.1106 6.96183 16.5587 6.68747 16.9167L6.68271 16.9229L5.31587 18.5H7V20H3.00012L2.99959 18.8786L5.4717 16.035C5.5673 15.9252 5.625 15.7821 5.625 15.625C5.625 15.2798 5.34518 15 5 15C4.67378 15 4.40573 15.2501 4.37747 15.5688L4.3651 15.875H2.875V15.625Z"></path>
    </symbol>
    <symbol id="icon-live" viewBox="0 0 24 24">
      <path d="M18.364 18.3638C21.8787 14.8491 21.8787 9.15061 18.364 5.63589L19.7782 4.22168C24.0739 8.51745 24.0739 15.4823 19.7782 19.778L18.364 18.3638ZM5.63604 5.63589C2.12132 9.15061 2.12132 14.8491 5.63604 18.3638L4.22183 19.778C-0.0739417 15.4823 -0.0739417 8.51745 4.22183 4.22168L5.63604 5.63589ZM15.5355 15.5353C17.4882 13.5827 17.4882 10.4168 15.5355 8.4642L16.9497 7.04999C19.6834 9.78366 19.6834 14.2158 16.9497 16.9495L15.5355 15.5353ZM8.46447 8.4642C6.51184 10.4168 6.51184 13.5827 8.46447 15.5353L7.05025 16.9495C4.31658 14.2158 4.31658 9.78366 7.05025 7.04999L8.46447 8.4642ZM12 13.9998C13.1046 13.9998 14 13.1044 14 11.9998C14 10.8952 13.1046 9.99981 12 9.99981C10.8954 9.99981 10 10.8952 10 11.9998C10 13.1044 10.8954 13.9998 12 13.9998Z"></path>
    </symbol>
    <symbol id="icon-loader" viewBox="0 0 24 24">
			<path d="M18.364 5.63604L16.9497 7.05025C15.683 5.7835 13.933 5 12 5C8.13401 5 5 8.13401 5 12C5 15.866 8.13401 19 12 19C15.866 19 19 15.866 19 12H21C21 16.9706 16.9706 21 12 21C7.02944 21 3 16.9706 3 12C3 7.02944 7.02944 3 12 3C14.4853 3 16.7353 4.00736 18.364 5.63604Z" />
    </symbol>
    <symbol id="icon-lock" viewBox="0 0 24 24">
      <path d="M19 10H20C20.5523 10 21 10.4477 21 11V21C21 21.5523 20.5523 22 20 22H4C3.44772 22 3 21.5523 3 21V11C3 10.4477 3.44772 10 4 10H5V9C5 5.13401 8.13401 2 12 2C15.866 2 19 5.13401 19 9V10ZM5 12V20H19V12H5ZM11 14H13V18H11V14ZM17 10V9C17 6.23858 14.7614 4 12 4C9.23858 4 7 6.23858 7 9V10H17Z"></path>
    </symbol>
    <symbol id="icon-logout" viewBox="0 0 24 24">
			<path d="M5 22C4.44772 22 4 21.5523 4 21V3C4 2.44772 4.44772 2 5 2H19C19.5523 2 20 2.44772 20 3V6H18V4H6V20H18V18H20V21C20 21.5523 19.5523 22 19 22H5ZM18 16V13H11V11H18V8L23 12L18 16Z"></path>
    </symbol>
    <symbol id="icon-map" viewBox="0 0 16 16">
      <path d="M14.6,0.1L10,1.9L6.4,0.1C6.2,0,5.9,0,5.6,0.1l-5,2C0.2,2.2,0,2.6,0,3v12c0,0.7,0.7,1.2,1.4,0.9L6,14.1 l3.6,1.8c0.3,0.1,0.5,0.1,0.8,0l5-1.9c0.4-0.1,0.6-0.5,0.6-0.9V1C16,0.3,15.3-0.2,14.6,0.1z M7,2.6l2,1v9.8l-2-1V2.6z M2,3.7l3-1.2 v9.8l-3,1.2V3.7z M14,12.4l-3,1.1V3.7l3-1.2V12.4z"/>
    </symbol>
    <symbol id="icon-markdown" viewBox="0 0 24 24">
			<path d="M3 3H21C21.5523 3 22 3.44772 22 4V20C22 20.5523 21.5523 21 21 21H3C2.44772 21 2 20.5523 2 20V4C2 3.44772 2.44772 3 3 3ZM4 5V19H20V5H4ZM7 15.5H5V8.5H7L9 10.5L11 8.5H13V15.5H11V11.5L9 13.5L7 11.5V15.5ZM18 12.5H20L17 15.5L14 12.5H16V8.5H18V12.5Z"></path>
    </symbol>
    <symbol id="icon-mastodon" viewBox="0 0 16 16">
			<path d="M14.943 3.935c-.215-1.591-1.612-2.845-3.268-3.088-.28-.041-1.338-.19-3.79-.19h-.019c-2.453 0-2.979.148-3.258.19-1.61.236-3.08 1.363-3.437 2.973-.172.793-.19 1.672-.158 2.478.045 1.157.054 2.311.16 3.463.073.765.2 1.524.382 2.27.339 1.38 1.711 2.53 3.056 2.998 1.44.488 2.988.57 4.472.234.163-.038.325-.081.484-.131.36-.114.783-.241 1.093-.465a.036.036 0 0 0 .015-.027v-1.116a.033.033 0 0 0-.041-.031c-.951.225-1.925.338-2.902.336-1.682 0-2.134-.792-2.264-1.122a3.463 3.463 0 0 1-.196-.884.032.032 0 0 1 .04-.033c.935.224 1.893.337 2.855.336.231 0 .461 0 .693-.006.967-.027 1.986-.076 2.938-.26l.067-.015c1.501-.286 2.93-1.184 3.075-3.458.005-.09.018-.938.018-1.03.001-.316.103-2.24-.015-3.422Zm-2.31 5.674h-1.578V5.772c0-.808-.339-1.22-1.028-1.22-.758 0-1.138.488-1.138 1.45v2.1H7.32v-2.1c0-.962-.38-1.45-1.138-1.45-.686 0-1.029.412-1.03 1.22v3.837H3.577V5.656c0-.808.208-1.45.623-1.926.429-.474.991-.718 1.689-.718.808 0 1.418.308 1.825.924l.393.655.393-.655c.407-.616 1.017-.924 1.823-.924.698 0 1.26.244 1.69.718.415.475.623 1.117.623 1.926l-.002 3.953Z"/>
    </symbol>
		<symbol id="icon-merge" viewBox="0 0 16 16">
      <path d="M11.5,5a.5.5,0,0,0,.376-.829l-3.5-4a.516.516,0,0,0-.752,0l-3.5,4A.5.5,0,0,0,4.5,5H7V9.586L2.293,14.293a1,1,0,1,0,1.414,1.414l5-5A1,1,0,0,0,9,10V5Z" /><path d="M13.707,14.293l-2.458-2.458a1,1,0,0,0-1.415,1.414l2.459,2.458a1,1,0,0,0,1.414-1.414Z" />
    </symbol>
    <symbol id="icon-menu" viewBox="0 0 16 16">
      <path d="M0 0h16v3H0V0zM0 6h16v3H0V6zM0 12h16v3H0v-3z" />
    </symbol>
    <symbol id="icon-mobile" viewBox="0 0 16 16">
      <path d="M12,0H4C2.897,0,2,0.897,2,2v12c0,1.103,0.897,2,2,2h8c1.103,0,2-0.897,2-2V2C14,0.897,13.103,0,12,0z M8,14 c-0.552,0-1-0.448-1-1s0.448-1,1-1s1,0.448,1,1S8.552,14,8,14z M12,10H4V2h8V10z" />
    </symbol>
    <symbol id="icon-money" viewBox="0 0 16 16">
      <path d="M15,2H1C0.4,2,0,2.4,0,3v10c0,0.6,0.4,1,1,1h14c0.6,0,1-0.4,1-1V3C16,2.4,15.6,2,15,2z M11.1,12H4.9 C4.5,10.6,3.4,9.5,2,9.1V6.9C3.4,6.5,4.5,5.4,4.9,4h6.3c0.4,1.4,1.5,2.5,2.9,2.9v2.3C12.6,9.5,11.5,10.6,11.1,12z" />
      <circle cx="8" cy="8" r="2" />
    </symbol>
    <symbol id="icon-moon" viewBox="0 0 16 16">
      <path d="M5.2,2C2.2,2.8,0,5.6,0,8.9C0,12.8,3.2,16,7.1,16c3.3,0,6-2.2,6.9-5.2C8.7,12.2,3.8,7.3,5.2,2z" />
      <circle cx="10" cy="1" r="1" />
      <circle cx="15" cy="7" r="1" />
      <circle cx="10" cy="6" r="1" />
    </symbol>
    <symbol id="icon-open" viewBox="0 0 24 24">
			<path d="M10 3V5H5V19H19V14H21V20C21 20.5523 20.5523 21 20 21H4C3.44772 21 3 20.5523 3 20V4C3 3.44772 3.44772 3 4 3H10ZM17.5858 5H13V3H21V11H19V6.41421L12 13.4142L10.5858 12L17.5858 5Z"></path>
    </symbol>
    <symbol id="icon-order-alpha-asc" viewBox="0 0 16 16">
      <path d="M5.473,7,5.13,5.693H2.865L2.512,7H.442L2.717,0H5.23l2.3,7ZM4.739,4.149,4.438,3c-.069-.255-.155-.584-.255-.987s-.166-.693-.2-.868q-.042.243-.169.8t-.56,2.2Z" />
      <path d="M6.714,16H1.261V14.831l3.031-4.3H1.333V9H6.638v1.164L3.607,14.473H6.714Z" />
      <polygon points="13 11 13 0 11 0 11 11 8 11 12 16 16 11 13 11" />
    </symbol>
    <symbol id="icon-order-alpha-desc" viewBox="0 0 16 16">
      <path d="M5.031 7L4.688 5.693H2.423L2.07 7H0L2.275 0H4.788L7.088 7H5.031ZM4.297 4.149L3.996 3C3.927 2.745 3.841 2.416 3.741 2.013C3.641 1.61 3.575 1.32 3.541 1.145C3.513 1.307 3.45667 1.57367 3.372 1.945C3.28733 2.31633 3.10067 3.04967 2.812 4.145L4.297 4.149Z" />
      <path d="M6.453 16H1V14.831L4.031 10.531H1.072V9H6.377V10.164L3.346 14.473H6.453V16Z" />
      <path d="M11 5L11 16L13 16L13 5L16 5L12 -3.49691e-07L8 5L11 5Z" />
    </symbol>
    <symbol id="icon-order-num-asc" viewBox="0 0 16 16">
      <path d="M13 11L13 -1.52588e-05L11 -1.52588e-05L11 11H8L12 16L16 11L13 11Z" />
      <path d="M5.17 0.2V7H3.25V2.08L1.86 2.93L1 1.64L3.41 0.2H5.17Z" />
      <path d="M3.88 9.04C4.46667 9.04 4.96667 9.15333 5.38 9.38C5.79333 9.6 6.10333 9.91 6.31 10.31C6.51667 10.7033 6.62 11.1567 6.62 11.67C6.62 12.5833 6.45667 13.3533 6.13 13.98C5.80333 14.6067 5.3 15.11 4.62 15.49C3.94667 15.87 3.08 16.1467 2.02 16.32L1.63 14.96C2.21667 14.8333 2.69 14.6967 3.05 14.55C3.41 14.4033 3.7 14.2233 3.92 14.01C4.14667 13.79 4.32667 13.51 4.46 13.17C4.27333 13.3567 4.07667 13.4933 3.87 13.58C3.67 13.6667 3.42333 13.71 3.13 13.71C2.77 13.71 2.44 13.62 2.14 13.44C1.84 13.2533 1.6 12.99 1.42 12.65C1.24 12.3033 1.15 11.9 1.15 11.44C1.15 10.9733 1.26667 10.56 1.5 10.2C1.74 9.83333 2.06667 9.55 2.48 9.35C2.9 9.14333 3.36667 9.04 3.88 9.04ZM3.79 12.37C3.93667 12.37 4.08 12.3333 4.22 12.26C4.36 12.1867 4.48333 12.0733 4.59 11.92C4.59667 11.5333 4.57667 11.2333 4.53 11.02C4.49 10.8 4.41667 10.6433 4.31 10.55C4.21 10.45 4.06 10.4 3.86 10.4C3.64 10.4 3.46333 10.48 3.33 10.64C3.19667 10.8 3.13 11.0333 3.13 11.34C3.13 12.0267 3.35 12.37 3.79 12.37Z" />
    </symbol>
    <symbol id="icon-order-num-desc" viewBox="0 0 16 16">
      <path d="M11 5L11 16L13 16L13 5L16 5L12 -3.49691e-07L8 5L11 5Z"/>
      <path d="M5.17 0.2V7H3.25V2.08L1.86 2.93L1 1.64L3.41 0.2H5.17Z"/>
      <path d="M3.88 9.04C4.46667 9.04 4.96667 9.15333 5.38 9.38C5.79333 9.6 6.10333 9.91 6.31 10.31C6.51667 10.7033 6.62 11.1567 6.62 11.67C6.62 12.5833 6.45667 13.3533 6.13 13.98C5.80333 14.6067 5.3 15.11 4.62 15.49C3.94667 15.87 3.08 16.1467 2.02 16.32L1.63 14.96C2.21667 14.8333 2.69 14.6967 3.05 14.55C3.41 14.4033 3.7 14.2233 3.92 14.01C4.14667 13.79 4.32667 13.51 4.46 13.17C4.27333 13.3567 4.07667 13.4933 3.87 13.58C3.67 13.6667 3.42333 13.71 3.13 13.71C2.77 13.71 2.44 13.62 2.14 13.44C1.84 13.2533 1.6 12.99 1.42 12.65C1.24 12.3033 1.15 11.9 1.15 11.44C1.15 10.9733 1.26667 10.56 1.5 10.2C1.74 9.83333 2.06667 9.55 2.48 9.35C2.9 9.14333 3.36667 9.04 3.88 9.04ZM3.79 12.37C3.93667 12.37 4.08 12.3333 4.22 12.26C4.36 12.1867 4.48333 12.0733 4.59 11.92C4.59667 11.5333 4.57667 11.2333 4.53 11.02C4.49 10.8 4.41667 10.6433 4.31 10.55C4.21 10.45 4.06 10.4 3.86 10.4C3.64 10.4 3.46333 10.48 3.33 10.64C3.19667 10.8 3.13 11.0333 3.13 11.34C3.13 12.0267 3.35 12.37 3.79 12.37Z"/>
    </symbol>
    <symbol id="icon-page" viewBox="0 0 24 24">
			<path d="M9 2.00318V2H19.9978C20.5513 2 21 2.45531 21 2.9918V21.0082C21 21.556 20.5551 22 20.0066 22H3.9934C3.44476 22 3 21.5501 3 20.9932V8L9 2.00318ZM5.82918 8H9V4.83086L5.82918 8ZM11 4V9C11 9.55228 10.5523 10 10 10H5V20H19V4H11Z"></path>
    </symbol>
    <symbol id="icon-palette" viewBox="0 0 16 16">
      <path d="M13.9,3.8c-3.6-1.7-6.6,1.8-8,0c-0.5-0.7,0.7-2,0-2.9c-0.5-0.6-1.7-0.5-2.4,0C1.4,2.4,0,4.8,0,7.5 c0,4.4,3.6,8,8,8c3.7,0,6.8-2.5,7.7-5.9C16.1,8.5,16.5,5.1,13.9,3.8z M3,8C2.4,8,2,7.6,2,7c0-0.6,0.4-1,1-1s1,0.4,1,1 C4,7.6,3.6,8,3,8z M5,12c-0.6,0-1-0.4-1-1c0-0.6,0.4-1,1-1s1,0.4,1,1C6,11.6,5.6,12,5,12z M9,14c-0.6,0-1-0.4-1-1c0-0.6,0.4-1,1-1 s1,0.4,1,1C10,13.6,9.6,14,9,14z M12,10c-1.1,0-2-0.9-2-2c0-1.1,0.9-2,2-2s2,0.9,2,2C14,9.1,13.1,10,12,10z" />
    </symbol>
    <symbol id="icon-paragraph" viewBox="0 0 24 24">
			<path d="M12 6V21H10V16C6.68629 16 4 13.3137 4 10C4 6.68629 6.68629 4 10 4H20V6H17V21H15V6H12ZM10 6C7.79086 6 6 7.79086 6 10C6 12.2091 7.79086 14 10 14V6Z"></path>
    </symbol>
    <symbol id="icon-parent" viewBox="0 0 16 16">
      <path d="M14,6H3.4l4-4L6,0.6L0.3,6.3c-0.4,0.4-0.4,1,0,1.4L6,13.4L7.4,12l-4-4H13v7h2V7C15,6.4,14.6,6,14,6z" />
    </symbol>
    <symbol id="icon-paypal" viewBox="0 0 24 24">
      <path d="M20.0673 8.47768C20.5591 9.35823 20.6237 10.4924 20.3676 11.8053C19.627 15.6107 17.0916 16.9253 13.8536 16.9253H13.3536C12.9583 16.9253 12.6216 17.214 12.5596 17.6047L12.519 17.8253L11.8896 21.818L11.857 21.988C11.795 22.3787 11.4583 22.6667 11.063 22.6667H7.72031C7.42365 22.6667 7.19698 22.402 7.24298 22.1093L7.41807 21H8.9367L9.88603 14.9793H11.2716C15.9496 14.9793 19.0209 12.7768 20.0673 8.47768ZM17.1066 3.38784C17.8693 4.25635 18.0908 5.19891 17.8597 6.67324C17.8405 6.79594 17.82 6.91391 17.7973 7.03253C17.0621 10.8057 14.7087 12.4793 10.8417 12.4793H8.95703C8.32647 12.4793 7.78368 12.8928 7.60372 13.4811L7.58913 13.4788L6.65969 19.3733H3.12169C3.08991 19.3733 3.06598 19.3454 3.07097 19.3136L5.66905 2.80233C5.74174 2.34036 6.13984 2 6.6075 2H12.583C14.7658 2 16.2998 2.46869 17.1066 3.38784Z"></path>
    </symbol>
    <symbol id="icon-pen" viewBox="0 0 24 24">
      <path d="M17.8492 11.8051L17.1421 11.098L7.24264 20.9975H3V16.7549L14.3137 5.44114L19.9706 11.098C20.3611 11.4885 20.3611 12.1217 19.9706 12.5122L12.8995 19.5833L11.4853 18.1691L17.8492 11.8051ZM18.5563 2.61272L21.3848 5.44114C21.7753 5.83167 21.7753 6.46483 21.3848 6.85536L19.9706 8.26957L15.7279 4.02693L17.1421 2.61272C17.5327 2.22219 18.1658 2.22219 18.5563 2.61272Z"></path>
    </symbol>
    <symbol id="icon-phone" viewBox="0 0 24 24">
      <path d="M21 16.42V19.9561C21 20.4811 20.5941 20.9167 20.0705 20.9537C19.6331 20.9846 19.2763 21 19 21C10.1634 21 3 13.8366 3 5C3 4.72371 3.01545 4.36687 3.04635 3.9295C3.08337 3.40588 3.51894 3 4.04386 3H7.5801C7.83678 3 8.05176 3.19442 8.07753 3.4498C8.10067 3.67907 8.12218 3.86314 8.14207 4.00202C8.34435 5.41472 8.75753 6.75936 9.3487 8.00303C9.44359 8.20265 9.38171 8.44159 9.20185 8.57006L7.04355 10.1118C8.35752 13.1811 10.8189 15.6425 13.8882 16.9565L15.4271 14.8019C15.5572 14.6199 15.799 14.5573 16.001 14.6532C17.2446 15.2439 18.5891 15.6566 20.0016 15.8584C20.1396 15.8782 20.3225 15.8995 20.5502 15.9225C20.8056 15.9483 21 16.1633 21 16.42Z"></path>
    </symbol>
    <symbol id="icon-pin" viewBox="0 0 24 24">
      <path d="M12 23.7279L5.63604 17.364C2.12132 13.8492 2.12132 8.15076 5.63604 4.63604C9.15076 1.12132 14.8492 1.12132 18.364 4.63604C21.8787 8.15076 21.8787 13.8492 18.364 17.364L12 23.7279ZM16.9497 15.9497C19.6834 13.2161 19.6834 8.78392 16.9497 6.05025C14.2161 3.31658 9.78392 3.31658 7.05025 6.05025C4.31658 8.78392 4.31658 13.2161 7.05025 15.9497L12 20.8995L16.9497 15.9497ZM12 13C10.8954 13 10 12.1046 10 11C10 9.89543 10.8954 9 12 9C13.1046 9 14 9.89543 14 11C14 12.1046 13.1046 13 12 13Z"></path>
    </symbol>
    <symbol id="icon-pinterest" viewBox="0 0 24 24">
      <path d="M13.3717 2.09442C8.42512 1.41268 3.73383 4.48505 2.38064 9.29256C1.02745 14.1001 3.42711 19.1692 8.00271 21.1689C7.94264 20.4008 7.99735 19.628 8.16502 18.8761C8.34964 18.0374 9.46121 13.4132 9.46121 13.4132C9.23971 12.9173 9.12893 12.379 9.13659 11.8359C9.13659 10.3509 9.99353 9.24295 11.0597 9.24295C11.4472 9.23718 11.8181 9.40028 12.0758 9.68981C12.3335 9.97934 12.4526 10.3667 12.402 10.751C12.402 11.6512 11.8236 13.0131 11.5228 14.2903C11.4014 14.7656 11.5131 15.2703 11.8237 15.65C12.1343 16.0296 12.6069 16.2389 13.0967 16.2139C14.9944 16.2139 16.2675 13.7825 16.2675 10.9126C16.2675 8.71205 14.8098 7.0655 12.1243 7.0655C10.826 7.01531 9.56388 7.4996 8.63223 8.40543C7.70057 9.31126 7.18084 10.5595 7.19423 11.859C7.16563 12.5722 7.39566 13.2717 7.84194 13.8287C8.01361 13.9564 8.07985 14.1825 8.00425 14.3827C7.9581 14.5673 7.84194 15.0059 7.79578 15.1675C7.77632 15.278 7.70559 15.3728 7.60516 15.4228C7.50473 15.4729 7.38651 15.4724 7.28654 15.4214C5.9019 14.8674 5.24957 13.3439 5.24957 11.6051C5.24957 8.75822 7.63424 5.3497 12.4036 5.3497C16.1998 5.3497 18.723 8.1273 18.723 11.0972C18.723 15.0059 16.5468 17.9451 13.3298 17.9451C12.3526 17.9761 11.4273 17.5061 10.8759 16.6986C10.8759 16.6986 10.2974 19.0146 10.1835 19.4531C9.95101 20.2099 9.60779 20.9281 9.16505 21.5844C10.0877 21.8643 11.0471 22.0044 12.0113 22C14.6636 22.0017 17.2078 20.9484 19.0829 19.072C20.958 17.1957 22.0099 14.6504 22.0069 11.9975C22.004 7.00306 18.3183 2.77616 13.3717 2.09442Z"></path>
    </symbol>
    <symbol id="icon-pipette" viewBox="0 0 24 24">
			<path d="M6.45711 18.954L15.0208 10.3903L13.6066 8.97608L5.04289 17.5398L6.45711 18.954ZM12.1924 7.56186L10.7782 6.14765L12.1924 4.73344L13.9602 6.5012L16.7886 3.67278C17.1791 3.28225 17.8123 3.28225 18.2028 3.67278L20.3241 5.7941C20.7146 6.18462 20.7146 6.81779 20.3241 7.20831L17.4957 10.0367L19.2635 11.8045L17.8492 13.2187L16.435 11.8045L7.24264 20.9969H3V16.7543L12.1924 7.56186Z"></path>
    </symbol>
    <symbol id="icon-plane" viewBox="0 0 16 16">
			<path d="M15.707,.293c-.273-.272-.68-.365-1.043-.234L.664,5.059C.287,5.193,.026,5.54,.002,5.939c-.024,.4,.192,.775,.551,.955l4.586,2.292,4.641-3.314c.23-.164,.513,.119,.349,.349l-3.315,4.642,2.292,4.586c.171,.339,.518,.552,.895,.552,.021,0,.041-.001,.061-.002,.4-.024,.747-.284,.882-.662L15.943,1.336c.129-.363,.037-.77-.236-1.043Z" />
    </symbol>
    <symbol id="icon-play" viewBox="0 0 24 24">
      <path d="M19.376 12.4158L8.77735 19.4816C8.54759 19.6348 8.23715 19.5727 8.08397 19.3429C8.02922 19.2608 8 19.1643 8 19.0656V4.93408C8 4.65794 8.22386 4.43408 8.5 4.43408C8.59871 4.43408 8.69522 4.4633 8.77735 4.51806L19.376 11.5838C19.6057 11.737 19.6678 12.0474 19.5146 12.2772C19.478 12.3321 19.4309 12.3792 19.376 12.4158Z"></path>
    </symbol>
    <symbol id="icon-plus" viewBox="0 0 16 16">
			<path d="M11.5,7H9V4.5A.5.5,0,0,0,8.5,4h-1a.5.5,0,0,0-.5.5V7H4.5a.5.5,0,0,0-.5.5v1a.5.5,0,0,0,.5.5H7v2.5a.5.5,0,0,0,.5.5h1a.5.5,0,0,0,.5-.5V9h2.5a.5.5,0,0,0,.5-.5v-1A.5.5,0,0,0,11.5,7Z" />
    </symbol>
    <symbol id="icon-preview" viewBox="0 0 24 24">
			<path d="M12.0003 3C17.3924 3 21.8784 6.87976 22.8189 12C21.8784 17.1202 17.3924 21 12.0003 21C6.60812 21 2.12215 17.1202 1.18164 12C2.12215 6.87976 6.60812 3 12.0003 3ZM12.0003 19C16.2359 19 19.8603 16.052 20.7777 12C19.8603 7.94803 16.2359 5 12.0003 5C7.7646 5 4.14022 7.94803 3.22278 12C4.14022 16.052 7.7646 19 12.0003 19ZM12.0003 16.5C9.51498 16.5 7.50026 14.4853 7.50026 12C7.50026 9.51472 9.51498 7.5 12.0003 7.5C14.4855 7.5 16.5003 9.51472 16.5003 12C16.5003 14.4853 14.4855 16.5 12.0003 16.5ZM12.0003 14.5C13.381 14.5 14.5003 13.3807 14.5003 12C14.5003 10.6193 13.381 9.5 12.0003 9.5C10.6196 9.5 9.50026 10.6193 9.50026 12C9.50026 13.3807 10.6196 14.5 12.0003 14.5Z"></path>
    </symbol>
    <symbol id="icon-print" viewBox="0 0 24 24">
      <path d="M17 2C17.5523 2 18 2.44772 18 3V7H21C21.5523 7 22 7.44772 22 8V18C22 18.5523 21.5523 19 21 19H18V21C18 21.5523 17.5523 22 17 22H7C6.44772 22 6 21.5523 6 21V19H3C2.44772 19 2 18.5523 2 18V8C2 7.44772 2.44772 7 3 7H6V3C6 2.44772 6.44772 2 7 2H17ZM16 17H8V20H16V17ZM20 9H4V17H6V16C6 15.4477 6.44772 15 7 15H17C17.5523 15 18 15.4477 18 16V17H20V9ZM8 10V12H5V10H8ZM16 4H8V7H16V4Z"></path>
    </symbol>
    <symbol id="icon-protected" viewBox="0 0 24 24">
      <path d="M7.0943 5.68009L18.3199 16.9057C19.3736 15.5506 20 13.8491 20 12C20 7.58172 16.4183 4 12 4C10.1509 4 8.44939 4.62644 7.0943 5.68009ZM16.9057 18.3199L5.68009 7.0943C4.62644 8.44939 4 10.1509 4 12C4 16.4183 7.58172 20 12 20C13.8491 20 15.5506 19.3736 16.9057 18.3199ZM4.92893 4.92893C6.73748 3.12038 9.23885 2 12 2C17.5228 2 22 6.47715 22 12C22 14.7611 20.8796 17.2625 19.0711 19.0711C17.2625 20.8796 14.7611 22 12 22C6.47715 22 2 17.5228 2 12C2 9.23885 3.12038 6.73748 4.92893 4.92893Z"></path>
    </symbol>
    <symbol id="icon-qr-code" viewBox="0 0 24 24">
      <path d="M16 17V16H13V13H16V15H18V17H17V19H15V21H13V18H15V17H16ZM21 21H17V19H19V17H21V21ZM3 3H11V11H3V3ZM5 5V9H9V5H5ZM13 3H21V11H13V3ZM15 5V9H19V5H15ZM3 13H11V21H3V13ZM5 15V19H9V15H5ZM18 13H21V15H18V13ZM6 6H8V8H6V6ZM6 16H8V18H6V16ZM16 6H18V8H16V6Z"></path>
    </symbol>
    <symbol id="icon-question" viewBox="0 0 24 24">
			<path d="M12 22C6.47715 22 2 17.5228 2 12C2 6.47715 6.47715 2 12 2C17.5228 2 22 6.47715 22 12C22 17.5228 17.5228 22 12 22ZM12 20C16.4183 20 20 16.4183 20 12C20 7.58172 16.4183 4 12 4C7.58172 4 4 7.58172 4 12C4 16.4183 7.58172 20 12 20ZM11 15H13V17H11V15ZM13 13.3551V14H11V12.5C11 11.9477 11.4477 11.5 12 11.5C12.8284 11.5 13.5 10.8284 13.5 10C13.5 9.17157 12.8284 8.5 12 8.5C11.2723 8.5 10.6656 9.01823 10.5288 9.70577L8.56731 9.31346C8.88637 7.70919 10.302 6.5 12 6.5C13.933 6.5 15.5 8.067 15.5 10C15.5 11.5855 14.4457 12.9248 13 13.3551Z"></path>
    </symbol>
    <symbol id="icon-quote" viewBox="0 0 24 24">
			<path d="M4.58341 17.3211C3.55316 16.2275 3 15 3 13.0104C3 9.51092 5.45651 6.37372 9.03059 4.82324L9.92328 6.20085C6.58804 8.00545 5.93618 10.3461 5.67564 11.8221C6.21263 11.5444 6.91558 11.4467 7.60471 11.5106C9.40908 11.6778 10.8312 13.1591 10.8312 15C10.8312 16.933 9.26416 18.5 7.33116 18.5C6.2581 18.5 5.23196 18.0096 4.58341 17.3211ZM14.5834 17.3211C13.5532 16.2275 13 15 13 13.0104C13 9.51092 15.4565 6.37372 19.0306 4.82324L19.9233 6.20085C16.588 8.00545 15.9362 10.3461 15.6756 11.8221C16.2126 11.5444 16.9156 11.4467 17.6047 11.5106C19.4091 11.6778 20.8312 13.1591 20.8312 15C20.8312 16.933 19.2642 18.5 17.3312 18.5C16.2581 18.5 15.232 18.0096 14.5834 17.3211Z"></path>
    </symbol>
    <symbol id="icon-refresh" viewBox="0 0 24 24">
			<path d="M12 4C9.25144 4 6.82508 5.38626 5.38443 7.5H8V9.5H2V3.5H4V5.99936C5.82381 3.57166 8.72764 2 12 2C17.5228 2 22 6.47715 22 12H20C20 7.58172 16.4183 4 12 4ZM4 12C4 16.4183 7.58172 20 12 20C14.7486 20 17.1749 18.6137 18.6156 16.5H16V14.5H22V20.5H20V18.0006C18.1762 20.4283 15.2724 22 12 22C6.47715 22 2 17.5228 2 12H4Z"></path>
    </symbol>
    <symbol id="icon-road-sign" viewBox="0 0 16 16">
      <path d="M9,10v5c0,0.6-0.4,1-1,1H6c-0.6,0-1-0.4-1-1v-5H9z" />
      <path d="M13,2l3,3l-3,3H1C0.4,8,0,7.6,0,7l0-4c0-0.6,0.4-1,1-1H13z" />
      <path d="M6,0l2,0c0.6,0,1,0.4,1,1v1H5V1C5,0.4,5.4,0,6,0z" />
    </symbol>
    <symbol id="icon-remove" viewBox="0 0 24 24">
     <path d="M12 22C6.47715 22 2 17.5228 2 12C2 6.47715 6.47715 2 12 2C17.5228 2 22 6.47715 22 12C22 17.5228 17.5228 22 12 22ZM12 20C16.4183 20 20 16.4183 20 12C20 7.58172 16.4183 4 12 4C7.58172 4 4 7.58172 4 12C4 16.4183 7.58172 20 12 20ZM7 11H17V13H7V11Z"></path>
    </symbol>
    <symbol id="icon-search" viewBox="0 0 24 24">
			<path d="M18.031 16.6168L22.3137 20.8995L20.8995 22.3137L16.6168 18.031C15.0769 19.263 13.124 20 11 20C6.032 20 2 15.968 2 11C2 6.032 6.032 2 11 2C15.968 2 20 6.032 20 11C20 13.124 19.263 15.0769 18.031 16.6168ZM16.0247 15.8748C17.2475 14.6146 18 12.8956 18 11C18 7.1325 14.8675 4 11 4C7.1325 4 4 7.1325 4 11C4 14.8675 7.1325 18 11 18C12.8956 18 14.6146 17.2475 15.8748 16.0247L16.0247 15.8748Z"></path>
    </symbol>
    <symbol id="icon-server" viewBox="0 0 24 24">
      <path d="M5 11H19V5H5V11ZM21 4V20C21 20.5523 20.5523 21 20 21H4C3.44772 21 3 20.5523 3 20V4C3 3.44772 3.44772 3 4 3H20C20.5523 3 21 3.44772 21 4ZM19 13H5V19H19V13ZM7 15H10V17H7V15ZM7 7H10V9H7V7Z"></path>
    </symbol>
    <symbol id="icon-settings" viewBox="0 0 24 24">
			<path d="M21 18V21H19V18H17V16H23V18H21ZM5 18V21H3V18H1V16H7V18H5ZM11 6V3H13V6H15V8H9V6H11ZM11 10H13V21H11V10ZM3 14V3H5V14H3ZM19 14V3H21V14H19Z"></path>
    </symbol>
    <symbol id="icon-share" viewBox="0 0 16 16">
      <path d="M15,16H1c-0.6,0-1-0.4-1-1V3c0-0.6,0.4-1,1-1h3v2H2v10h12V9h2v6C16,15.6,15.6,16,15,16z" />
      <path d="M10,3c-3.2,0-6,2.5-6,7c1.1-1.7,2.4-3,6-3v3l6-5l-6-5V3z" />
    </symbol>
    <symbol id="icon-shuffle" viewBox="0 0 24 24">
			<path d="M18 17.8832V16L23 19L18 22V19.9095C14.9224 19.4698 12.2513 17.4584 11.0029 14.5453L11 14.5386L10.9971 14.5453C9.57893 17.8544 6.32508 20 2.72483 20H2V18H2.72483C5.52503 18 8.05579 16.3312 9.15885 13.7574L9.91203 12L9.15885 10.2426C8.05579 7.66878 5.52503 6 2.72483 6H2V4H2.72483C6.32508 4 9.57893 6.14557 10.9971 9.45473L11 9.46141L11.0029 9.45473C12.2513 6.5416 14.9224 4.53022 18 4.09051V2L23 5L18 8V6.11684C15.7266 6.53763 13.7737 8.0667 12.8412 10.2426L12.088 12L12.8412 13.7574C13.7737 15.9333 15.7266 17.4624 18 17.8832Z"></path>
    </symbol>
    <symbol id="icon-sitemap" viewBox="0 0 16 16">
      <rect x="6" y="12" width="4" height="4" />
      <rect x="6" width="4" height="4" />
      <rect x="12" y="12" width="4" height="4" />
      <rect y="12" width="4" height="4" />
      <path d="M3,9h4v2h2V9h4v2h2V8c0-0.6-0.4-1-1-1H9V5H7v2H2C1.4,7,1,7.4,1,8v3h2V9z" />
    </symbol>
    <symbol id="icon-smile" viewBox="0 0 16 16">
      <path d="M8 0C3.6 0 0 3.6 0 8s3.6 8 8 8 8-3.6 8-8-3.6-8-8-8zm0 14c-3.3 0-6-2.7-6-6s2.7-6 6-6 6 2.7 6 6-2.7 6-6 6z" />
      <path d="M7 6a1 1 0 1 1-2 0 1 1 0 0 1 2 0zM11 6a1 1 0 1 1-2 0 1 1 0 0 1 2 0zM8 12c1.7 0 3-1.3 3-3H5c0 1.7 1.3 3 3 3z" />
    </symbol>
    <symbol id="icon-sort" viewBox="0 0 24 24">
			<path d="M8.5 7C9.32843 7 10 6.32843 10 5.5C10 4.67157 9.32843 4 8.5 4C7.67157 4 7 4.67157 7 5.5C7 6.32843 7.67157 7 8.5 7ZM8.5 13.5C9.32843 13.5 10 12.8284 10 12C10 11.1716 9.32843 10.5 8.5 10.5C7.67157 10.5 7 11.1716 7 12C7 12.8284 7.67157 13.5 8.5 13.5ZM10 18.5C10 19.3284 9.32843 20 8.5 20C7.67157 20 7 19.3284 7 18.5C7 17.6716 7.67157 17 8.5 17C9.32843 17 10 17.6716 10 18.5ZM15.5 7C16.3284 7 17 6.32843 17 5.5C17 4.67157 16.3284 4 15.5 4C14.6716 4 14 4.67157 14 5.5C14 6.32843 14.6716 7 15.5 7ZM17 12C17 12.8284 16.3284 13.5 15.5 13.5C14.6716 13.5 14 12.8284 14 12C14 11.1716 14.6716 10.5 15.5 10.5C16.3284 10.5 17 11.1716 17 12ZM15.5 20C16.3284 20 17 19.3284 17 18.5C17 17.6716 16.3284 17 15.5 17C14.6716 17 14 17.6716 14 18.5C14 19.3284 14.6716 20 15.5 20Z"></path>
    </symbol>
		<symbol id="icon-split" viewBox="0 0 16 16">
      <path d="M15.5 16h-5a.5.5 0 0 1-.354-.854l1.793-1.792-1.646-1.647a1 1 0 1 1 1.414-1.414l1.647 1.646 1.792-1.793A.5.5 0 0 1 16 10.5v5a.5.5 0 0 1-.5.5ZM4.061 13.354l1.793 1.792A.5.5 0 0 1 5.5 16h-5a.5.5 0 0 1-.5-.5v-5a.5.5 0 0 1 .854-.354l1.792 1.793L7 7.586V1a1 1 0 1 1 2 0v7a1 1 0 0 1-.293.707Z"/>
    </symbol>
    <symbol id="icon-star" viewBox="0 0 16 16">
      <path d="M15.144,5.439l-4.317-.628L8.9.9A1.041,1.041,0,0,0,7.1.9L5.173,4.812.856,5.439A1,1,0,0,0,.3,7.145l3.123,3.045-.737,4.3a1,1,0,0,0,1.451,1.054L8,13.513l3.861,2.029a1,1,0,0,0,1.451-1.054l-.737-4.3L15.7,7.145a1,1,0,0,0-.554-1.705Z"/>
    </symbol>
    <symbol id="icon-star-outline" viewBox="0 0 16 16">
      <path d="M11.86,15.542L8,13.513l-3.86,2.029c-0.727,0.387-1.592-0.235-1.451-1.054l0.737-4.299L0.302,7.145 c-0.594-0.58-0.263-1.587,0.555-1.706l4.316-0.627L7.104,0.9c0.336-0.683,1.457-0.683,1.793,0l1.931,3.911l4.316,0.627 c0.818,0.119,1.148,1.126,0.555,1.706l-3.124,3.045l0.737,4.299C13.453,15.311,12.586,15.924,11.86,15.542z M8.466,11.498 l2.532,1.331l-0.483-2.82c-0.056-0.324,0.052-0.655,0.287-0.885l2.049-1.998L10.02,6.715C9.693,6.668,9.412,6.463,9.267,6.168 L8,3.602L6.733,6.168c-0.146,0.295-0.427,0.5-0.753,0.547L3.149,7.126l2.049,1.998c0.235,0.229,0.343,0.561,0.287,0.885 l-0.483,2.82l2.532-1.331C7.826,11.344,8.174,11.344,8.466,11.498z" />
    </symbol>
		<symbol id="icon-status-draft" viewBox="0 0 32 32">
      <use href="#icon-circle-outline" />
    </symbol>
		<symbol id="icon-status-unlisted" viewBox="0 0 32 32">
      <use href="#icon-circle-half" />
    </symbol>
		<symbol id="icon-status-listed" viewBox="0 0 32 32">
      <use href="#icon-circle" />
    </symbol>
    <symbol id="icon-store" viewBox="0 0 16 16">
      <path d="M13.9,0.5C13.7,0.2,13.4,0,13,0H3C2.6,0,2.3,0.2,2.1,0.5C0,4.5,0,4.7,0,5c0,1.1,0.9,2,2,2v8c0,0.6,0.4,1,1,1 h10c0.6,0,1-0.4,1-1V7c1.1,0,2-0.9,2-2C16,4.7,16,4.5,13.9,0.5z M10,14v-4H6v4H4V6.7C4.3,6.9,4.6,7,5,7c0.6,0,1.1-0.3,1.5-0.7 C6.9,6.7,7.4,7,8,7s1.1-0.3,1.5-0.7C9.9,6.7,10.4,7,11,7c0.4,0,0.7-0.1,1-0.3V14H10z" />
    </symbol>
    <symbol id="icon-strikethrough" viewBox="0 0 24 24">
			<path d="M13 9H11V6H5V4H19V6H13V9ZM13 15V20H11V15H13ZM3 11H21V13H3V11Z"></path>
    </symbol>
    <symbol id="icon-sun" viewBox="0 0 24 24">
      <path d="M12 18C8.68629 18 6 15.3137 6 12C6 8.68629 8.68629 6 12 6C15.3137 6 18 8.68629 18 12C18 15.3137 15.3137 18 12 18ZM11 1H13V4H11V1ZM11 20H13V23H11V20ZM3.51472 4.92893L4.92893 3.51472L7.05025 5.63604L5.63604 7.05025L3.51472 4.92893ZM16.9497 18.364L18.364 16.9497L20.4853 19.0711L19.0711 20.4853L16.9497 18.364ZM19.0711 3.51472L20.4853 4.92893L18.364 7.05025L16.9497 5.63604L19.0711 3.51472ZM5.63604 16.9497L7.05025 18.364L4.92893 20.4853L3.51472 19.0711L5.63604 16.9497ZM23 11V13H20V11H23ZM4 11V13H1V11H4Z"></path>
    </symbol>
		<symbol id="icon-subscript" viewBox="0 0 24 24">
      <path d="M11 6V19H9V6H3V4H17V6H11ZM19.5507 16.5803C19.7042 16.4345 19.8 16.2284 19.8 16C19.8 15.5582 19.4418 15.2 19 15.2C18.5582 15.2 18.2 15.5582 18.2 16C18.2 16.0762 18.2107 16.15 18.2306 16.2198L17.0765 16.5496C17.0267 16.375 17 16.1906 17 16C17 14.8954 17.8954 14 19 14C20.1046 14 21 14.8954 21 16C21 16.5727 20.7593 17.0892 20.3735 17.4538L18.7441 19H21V20H17V19L19.5507 16.5803V16.5803Z"></path>
    </symbol>
		<symbol id="icon-superscript" viewBox="0 0 24 24">
      <path d="M11 7V20H9V7H3V5H15V7H11ZM19.5507 6.5803C19.7042 6.43453 19.8 6.22845 19.8 6C19.8 5.55817 19.4418 5.2 19 5.2C18.5582 5.2 18.2 5.55817 18.2 6C18.2 6.07624 18.2107 6.14999 18.2306 6.21983L17.0765 6.54958C17.0267 6.37497 17 6.1906 17 6C17 4.89543 17.8954 4 19 4C20.1046 4 21 4.89543 21 6C21 6.57273 20.7593 7.08923 20.3735 7.45384L18.7441 9H21V10H17V9L19.5507 6.5803V6.5803Z"></path>
    </symbol>
    <symbol id="icon-table" viewBox="0 0 16 16">
      <path fill-rule="evenodd" d="M0 1C0 0.447723 0.447715 0 1 0H15C15.5523 0 16 0.447723 16 1V15C16 15.5523 15.5523 16 15 16H1C0.447715 16 0 15.5523 0 15V1ZM6 3H10V5H6V3ZM5 5V3H2V5H5ZM2 6V8H5V6H2ZM6 8V6H10V8H6ZM5 9H2V11H5V9ZM6 11V9H10V11H6ZM5 12H2V14H5V12ZM6 12H10V14H6V12ZM11 12V14H14V12H11ZM14 11V9H11V11H14ZM11 8H14V6H11V8ZM11 5H14V3H11V5Z" />
    </symbol>
    <symbol id="icon-tablet" viewBox="0 0 24 24">
      <path d="M6 4V20H18V4H6ZM5 2H19C19.5523 2 20 2.44772 20 3V21C20 21.5523 19.5523 22 19 22H5C4.44772 22 4 21.5523 4 21V3C4 2.44772 4.44772 2 5 2ZM12 17C12.5523 17 13 17.4477 13 18C13 18.5523 12.5523 19 12 19C11.4477 19 11 18.5523 11 18C11 17.4477 11.4477 17 12 17Z"></path>
    </symbol>
    <symbol id="icon-tag" viewBox="0 0 24 24">
      <path d="M10.9042 2.1001L20.8037 3.51431L22.2179 13.4138L13.0255 22.6062C12.635 22.9967 12.0019 22.9967 11.6113 22.6062L1.71184 12.7067C1.32131 12.3162 1.32131 11.683 1.71184 11.2925L10.9042 2.1001ZM13.7327 10.5854C14.5137 11.3664 15.78 11.3664 16.5611 10.5854C17.3421 9.80433 17.3421 8.538 16.5611 7.75695C15.78 6.9759 14.5137 6.9759 13.7327 7.75695C12.9516 8.538 12.9516 9.80433 13.7327 10.5854Z"></path>
    </symbol>
    <symbol id="icon-template" viewBox="0 0 24 24">
			<path d="M7 4V2H17V4H20.0066C20.5552 4 21 4.44495 21 4.9934V21.0066C21 21.5552 20.5551 22 20.0066 22H3.9934C3.44476 22 3 21.5551 3 21.0066V4.9934C3 4.44476 3.44495 4 3.9934 4H7ZM7 6H5V20H19V6H17V8H7V6ZM9 4V6H15V4H9Z"></path>
    </symbol>
    <symbol id="icon-text" viewBox="0 0 24 24">
      <use href="#icon-text-left" />
    </symbol>
    <symbol id="icon-text-center" viewBox="0 0 24 24">
      <path d="M3 4H21V6H3V4ZM5 19H19V21H5V19ZM3 14H21V16H3V14ZM5 9H19V11H5V9Z"></path>
    </symbol>
    <symbol id="icon-text-justify" viewBox="0 0 24 24">
      <path d="M3 4H21V6H3V4ZM3 19H21V21H3V19ZM3 14H21V16H3V14ZM3 9H21V11H3V9Z"></path>
    </symbol>
    <symbol id="icon-text-left" viewBox="0 0 24 24">
			<path d="M3 4H21V6H3V4ZM3 19H17V21H3V19ZM3 14H21V16H3V14ZM3 9H17V11H3V9Z"></path>
    </symbol>
    <symbol id="icon-text-right" viewBox="0 0 24 24">
      <path d="M3 4H21V6H3V4ZM7 19H21V21H7V19ZM3 14H21V16H3V14ZM7 9H21V11H7V9Z"></path>
    </symbol>
    <symbol id="icon-ticket" viewBox="0 0 24 24">
      <path d="M21.0049 2.99951C21.5572 2.99951 22.0049 3.44723 22.0049 3.99951V9.49951C20.6242 9.49951 19.5049 10.6188 19.5049 11.9995C19.5049 13.3802 20.6242 14.4995 22.0049 14.4995V19.9995C22.0049 20.5518 21.5572 20.9995 21.0049 20.9995H3.00488C2.4526 20.9995 2.00488 20.5518 2.00488 19.9995V14.4995C3.38559 14.4995 4.50488 13.3802 4.50488 11.9995C4.50488 10.6188 3.38559 9.49951 2.00488 9.49951V3.99951C2.00488 3.44723 2.4526 2.99951 3.00488 2.99951H21.0049Z"></path>
    </symbol>
    <symbol id="icon-tiktok" viewBox="0 0 24 24">
      <path d="M16 8.24537V15.5C16 19.0899 13.0899 22 9.5 22C5.91015 22 3 19.0899 3 15.5C3 11.9101 5.91015 9 9.5 9C10.0163 9 10.5185 9.06019 11 9.17393V12.3368C10.5454 12.1208 10.0368 12 9.5 12C7.567 12 6 13.567 6 15.5C6 17.433 7.567 19 9.5 19C11.433 19 13 17.433 13 15.5V2H16C16 4.76142 18.2386 7 21 7V10C19.1081 10 17.3696 9.34328 16 8.24537Z"></path>
    </symbol>
    <symbol id="icon-title" viewBox="0 0 24 24">
			<path d="M13 6V21H11V6H5V4H19V6H13Z"></path>
    </symbol>
    <symbol id="icon-toggle-off" viewBox="0 0 24 24">
      <path d="M8 7C5.23858 7 3 9.23858 3 12C3 14.7614 5.23858 17 8 17H16C18.7614 17 21 14.7614 21 12C21 9.23858 18.7614 7 16 7H8ZM8 5H16C19.866 5 23 8.13401 23 12C23 15.866 19.866 19 16 19H8C4.13401 19 1 15.866 1 12C1 8.13401 4.13401 5 8 5ZM8 15C6.34315 15 5 13.6569 5 12C5 10.3431 6.34315 9 8 9C9.65685 9 11 10.3431 11 12C11 13.6569 9.65685 15 8 15Z"></path>
    </symbol>
    <symbol id="icon-toggle-on" viewBox="0 0 24 24">
      <path d="M8 5H16C19.866 5 23 8.13401 23 12C23 15.866 19.866 19 16 19H8C4.13401 19 1 15.866 1 12C1 8.13401 4.13401 5 8 5ZM16 15C17.6569 15 19 13.6569 19 12C19 10.3431 17.6569 9 16 9C14.3431 9 13 10.3431 13 12C13 13.6569 14.3431 15 16 15Z"></path>
    </symbol>
    <symbol id="icon-trash" viewBox="0 0 24 24">
			<path d="M17 6H22V8H20V21C20 21.5523 19.5523 22 19 22H5C4.44772 22 4 21.5523 4 21V8H2V6H7V3C7 2.44772 7.44772 2 8 2H16C16.5523 2 17 2.44772 17 3V6ZM18 8H6V20H18V8ZM9 11H11V17H9V11ZM13 11H15V17H13V11ZM9 4V6H15V4H9Z"></path>
    </symbol>
    <symbol id="icon-underline" viewBox="0 0 24 24">
			<path d="M8 3V12C8 14.2091 9.79086 16 12 16C14.2091 16 16 14.2091 16 12V3H18V12C18 15.3137 15.3137 18 12 18C8.68629 18 6 15.3137 6 12V3H8ZM4 20H20V22H4V20Z"></path>
    </symbol>
    <symbol id="icon-undo" viewBox="0 0 16 16">
      <path d="M2.502 12.333a6.996 6.996 0 0 1-1.405-3.168l1.973-.331a4.982 4.982 0 0 0 1.003 2.26l-1.571 1.239zM6.834 14.903a7.015 7.015 0 0 1-2.976-1.259l1.186-1.611c.624.459 1.358.77 2.122.898l-.332 1.972zM9.165 14.903l-.33-1.973a4.99 4.99 0 0 0 2.209-.964l1.219 1.586a6.997 6.997 0 0 1-3.098 1.351zM8 1c-1.873 0-3.65.759-4.948 2.052L.9.9.2 7.3l6.4-.7-2.135-2.135A5.023 5.023 0 0 1 8 3c2.757 0 5 2.243 5 5 0 1.06-.327 2.072-.947 2.928l1.621 1.173A6.96 6.96 0 0 0 15 8c0-3.86-3.141-7-7-7z" />
    </symbol>
    <symbol id="icon-unlock" viewBox="0 0 24 24">
      <path d="M7 10H20C20.5523 10 21 10.4477 21 11V21C21 21.5523 20.5523 22 20 22H4C3.44772 22 3 21.5523 3 21V11C3 10.4477 3.44772 10 4 10H5V9C5 5.13401 8.13401 2 12 2C14.7405 2 17.1131 3.5748 18.2624 5.86882L16.4731 6.76344C15.6522 5.12486 13.9575 4 12 4C9.23858 4 7 6.23858 7 9V10ZM10 15V17H14V15H10Z"></path>
    </symbol>
    <symbol id="icon-upload" viewBox="0 0 24 24">
			<path d="M4 19H20V12H22V20C22 20.5523 21.5523 21 21 21H3C2.44772 21 2 20.5523 2 20V12H4V19ZM13 9V16H11V9H6L12 3L18 9H13Z"></path>
    </symbol>
    <symbol id="icon-url" viewBox="0 0 24 24">
			<path d="M18.3643 15.5353L16.95 14.1211L18.3643 12.7069C20.3169 10.7543 20.3169 7.58847 18.3643 5.63585C16.4116 3.68323 13.2458 3.68323 11.2932 5.63585L9.87898 7.05007L8.46477 5.63585L9.87898 4.22164C12.6127 1.48797 17.0448 1.48797 19.7785 4.22164C22.5121 6.95531 22.5121 11.3875 19.7785 14.1211L18.3643 15.5353ZM15.5358 18.3638L14.1216 19.778C11.388 22.5117 6.9558 22.5117 4.22213 19.778C1.48846 17.0443 1.48846 12.6122 4.22213 9.87849L5.63634 8.46428L7.05055 9.87849L5.63634 11.2927C3.68372 13.2453 3.68372 16.4112 5.63634 18.3638C7.58896 20.3164 10.7548 20.3164 12.7074 18.3638L14.1216 16.9496L15.5358 18.3638ZM14.8287 7.75717L16.2429 9.17139L9.17187 16.2425L7.75766 14.8282L14.8287 7.75717Z"></path>
    </symbol>
    <symbol id="icon-user" viewBox="0 0 24 24">
      <path d="M4 22C4 17.5817 7.58172 14 12 14C16.4183 14 20 17.5817 20 22H18C18 18.6863 15.3137 16 12 16C8.68629 16 6 18.6863 6 22H4ZM12 13C8.685 13 6 10.315 6 7C6 3.685 8.685 1 12 1C15.315 1 18 3.685 18 7C18 10.315 15.315 13 12 13ZM12 11C14.21 11 16 9.21 16 7C16 4.79 14.21 3 12 3C9.79 3 8 4.79 8 7C8 9.21 9.79 11 12 11Z" />
    </symbol>
    <symbol id="icon-users" viewBox="0 0 24 24">
			<path d="M2 22C2 17.5817 5.58172 14 10 14C14.4183 14 18 17.5817 18 22H16C16 18.6863 13.3137 16 10 16C6.68629 16 4 18.6863 4 22H2ZM10 13C6.685 13 4 10.315 4 7C4 3.685 6.685 1 10 1C13.315 1 16 3.685 16 7C16 10.315 13.315 13 10 13ZM10 11C12.21 11 14 9.21 14 7C14 4.79 12.21 3 10 3C7.79 3 6 4.79 6 7C6 9.21 7.79 11 10 11ZM18.2837 14.7028C21.0644 15.9561 23 18.752 23 22H21C21 19.564 19.5483 17.4671 17.4628 16.5271L18.2837 14.7028ZM17.5962 3.41321C19.5944 4.23703 21 6.20361 21 8.5C21 11.3702 18.8042 13.7252 16 13.9776V11.9646C17.6967 11.7222 19 10.264 19 8.5C19 7.11935 18.2016 5.92603 17.041 5.35635L17.5962 3.41321Z"></path>
    </symbol>
    <symbol id="icon-video" viewBox="0 0 24 24">
			<path d="M16 4C16.5523 4 17 4.44772 17 5V9.2L22.2133 5.55071C22.4395 5.39235 22.7513 5.44737 22.9096 5.6736C22.9684 5.75764 23 5.85774 23 5.96033V18.0397C23 18.3158 22.7761 18.5397 22.5 18.5397C22.3974 18.5397 22.2973 18.5081 22.2133 18.4493L17 14.8V19C17 19.5523 16.5523 20 16 20H2C1.44772 20 1 19.5523 1 19V5C1 4.44772 1.44772 4 2 4H16ZM15 6H3V18H15V6ZM7.4 8.82867C7.47607 8.82867 7.55057 8.85036 7.61475 8.8912L11.9697 11.6625C12.1561 11.7811 12.211 12.0284 12.0924 12.2148C12.061 12.2641 12.0191 12.306 11.9697 12.3375L7.61475 15.1088C7.42837 15.2274 7.18114 15.1725 7.06254 14.9861C7.02169 14.9219 7 14.8474 7 14.7713V9.22867C7 9.00776 7.17909 8.82867 7.4 8.82867ZM21 8.84131L17 11.641V12.359L21 15.1587V8.84131Z"></path>
    </symbol>
    <symbol id="icon-vimeo" viewBox="0 0 24 24">
      <path d="M1.17444 8.30112C0.892531 7.88758 0.922443 7.88758 1.50184 7.37867C2.73388 6.29651 3.8964 5.11316 5.23826 4.1668C6.45346 3.31485 8.06417 2.7652 9.16466 4.1202C10.1791 5.36886 10.203 7.26157 10.4599 8.76952C10.7168 10.3336 10.963 11.9336 11.5114 13.4308C11.6632 13.8514 11.9535 14.6472 12.4793 14.7141C13.1568 14.8073 13.8474 13.6184 14.1617 13.1739C14.979 11.9945 16.0867 10.4053 15.9469 8.88781C15.8094 7.27591 14.0685 7.57941 12.9811 7.96416C13.1556 6.1551 14.8392 4.1214 16.4607 3.43314C18.1801 2.71979 20.7372 2.73174 21.6011 4.67105C22.5235 6.77286 21.6943 9.21402 20.6894 11.1187C19.5925 13.187 18.1801 15.1012 16.671 16.8888C15.3399 18.4768 13.765 20.2189 11.7803 20.9777C9.51357 21.8416 8.17052 20.158 7.39862 18.2079C6.55622 16.0846 6.13682 13.702 5.52862 11.4915C5.27291 10.5571 4.96941 9.49362 4.3624 8.72292C3.57019 7.72757 2.67044 8.66317 1.88779 9.19968C1.61894 8.93322 1.39669 8.59267 1.17444 8.30112Z"></path>
    </symbol>
    <symbol id="icon-wand" viewBox="0 0 16 16">
      <path d="M8.046 4.985l2.97 2.97-7.99 7.99-2.97-2.97 7.99-7.99zM12.995 1.591l1.414 1.414-2.404 2.404-1.414-1.414 2.404-2.404zM13 7h3v2h-3V7zM12.243 10.834l2.121 2.121-1.414 1.414-2.121-2.121 1.414-1.414zM7 0h2v3H7V0zM3.05 1.631l2.121 2.121-1.414 1.414-2.121-2.121L3.05 1.631z" />
    </symbol>
    <symbol id="icon-whatsapp" viewBox="0 0 24 24">
      <path d="M12.001 2C17.5238 2 22.001 6.47715 22.001 12C22.001 17.5228 17.5238 22 12.001 22C10.1671 22 8.44851 21.5064 6.97086 20.6447L2.00516 22L3.35712 17.0315C2.49494 15.5536 2.00098 13.8345 2.00098 12C2.00098 6.47715 6.47813 2 12.001 2ZM8.59339 7.30019L8.39232 7.30833C8.26293 7.31742 8.13607 7.34902 8.02057 7.40811C7.93392 7.45244 7.85348 7.51651 7.72709 7.63586C7.60774 7.74855 7.53857 7.84697 7.46569 7.94186C7.09599 8.4232 6.89729 9.01405 6.90098 9.62098C6.90299 10.1116 7.03043 10.5884 7.23169 11.0336C7.63982 11.9364 8.31288 12.8908 9.20194 13.7759C9.4155 13.9885 9.62473 14.2034 9.85034 14.402C10.9538 15.3736 12.2688 16.0742 13.6907 16.4482C13.6907 16.4482 14.2507 16.5342 14.2589 16.5347C14.4444 16.5447 14.6296 16.5313 14.8153 16.5218C15.1066 16.5068 15.391 16.428 15.6484 16.2909C15.8139 16.2028 15.8922 16.159 16.0311 16.0714C16.0311 16.0714 16.0737 16.0426 16.1559 15.9814C16.2909 15.8808 16.3743 15.81 16.4866 15.6934C16.5694 15.6074 16.6406 15.5058 16.6956 15.3913C16.7738 15.2281 16.8525 14.9166 16.8838 14.6579C16.9077 14.4603 16.9005 14.3523 16.8979 14.2854C16.8936 14.1778 16.8047 14.0671 16.7073 14.0201L16.1258 13.7587C16.1258 13.7587 15.2563 13.3803 14.7245 13.1377C14.6691 13.1124 14.6085 13.1007 14.5476 13.097C14.4142 13.0888 14.2647 13.1236 14.1696 13.2238C14.1646 13.2218 14.0984 13.279 13.3749 14.1555C13.335 14.2032 13.2415 14.3069 13.0798 14.2972C13.0554 14.2955 13.0311 14.292 13.0074 14.2858C12.9419 14.2685 12.8781 14.2457 12.8157 14.2193C12.692 14.1668 12.6486 14.1469 12.5641 14.1105C11.9868 13.8583 11.457 13.5209 10.9887 13.108C10.8631 12.9974 10.7463 12.8783 10.6259 12.7616C10.2057 12.3543 9.86169 11.9211 9.60577 11.4938C9.5918 11.4705 9.57027 11.4368 9.54708 11.3991C9.50521 11.331 9.45903 11.25 9.44455 11.1944C9.40738 11.0473 9.50599 10.9291 9.50599 10.9291C9.50599 10.9291 9.74939 10.663 9.86248 10.5183C9.97128 10.379 10.0652 10.2428 10.125 10.1457C10.2428 9.95633 10.2801 9.76062 10.2182 9.60963C9.93764 8.92565 9.64818 8.24536 9.34986 7.56894C9.29098 7.43545 9.11585 7.33846 8.95659 7.32007C8.90265 7.31384 8.84875 7.30758 8.79459 7.30402C8.66053 7.29748 8.5262 7.29892 8.39232 7.30833L8.59339 7.30019Z"></path>
    </symbol>
    <symbol id="icon-wheelchair" viewBox="0 0 24 24">
      <path d="M7.99837 10.3413L7.99793 12.5352C6.80239 13.2268 5.99805 14.5195 5.99805 16C5.99805 18.2091 7.78891 20 9.99805 20C11.4786 20 12.7712 19.1957 13.4628 18.0001L15.6565 18.0004C14.8327 20.3306 12.6103 22 9.99805 22C6.68434 22 3.99805 19.3137 3.99805 16C3.99805 13.3874 5.66782 11.1649 7.99837 10.3413ZM11.998 17C10.3412 17 8.99805 15.6569 8.99805 14V10C8.99805 8.95561 9.53172 8.03587 10.3412 7.49861C9.53172 6.96413 8.99805 6.04439 8.99805 5C8.99805 3.34315 10.3412 2 11.998 2C13.6549 2 14.998 3.34315 14.998 5C14.998 6.04439 14.4644 6.96413 13.6548 7.50139C14.4644 8.03587 14.998 8.95561 14.998 10V14.999L16.4319 15C17.0803 15 17.6849 15.3141 18.0584 15.8362L18.1468 15.971L20.8555 20.4855L19.1406 21.5145L16.4319 17L14.998 16.999L11.998 17ZM11.998 9C11.4458 9 10.998 9.44772 10.998 10V14C10.998 14.5523 11.4458 15 11.998 15H12.997L12.998 10C12.998 9.44772 12.5503 9 11.998 9ZM11.998 4C11.4458 4 10.998 4.44772 10.998 5C10.998 5.55228 11.4458 6 11.998 6C12.5503 6 12.998 5.55228 12.998 5C12.998 4.44772 12.5503 4 11.998 4Z"></path>
    </symbol>
    <symbol id="icon-youtube" viewBox="0 0 24 24">
    	<path d="M12.2439 4C12.778 4.00294 14.1143 4.01586 15.5341 4.07273L16.0375 4.09468C17.467 4.16236 18.8953 4.27798 19.6037 4.4755C20.5486 4.74095 21.2913 5.5155 21.5423 6.49732C21.942 8.05641 21.992 11.0994 21.9982 11.8358L21.9991 11.9884L21.9991 11.9991C21.9991 11.9991 21.9991 12.0028 21.9991 12.0099L21.9982 12.1625C21.992 12.8989 21.942 15.9419 21.5423 17.501C21.2878 18.4864 20.5451 19.261 19.6037 19.5228C18.8953 19.7203 17.467 19.8359 16.0375 19.9036L15.5341 19.9255C14.1143 19.9824 12.778 19.9953 12.2439 19.9983L12.0095 19.9991L11.9991 19.9991C11.9991 19.9991 11.9956 19.9991 11.9887 19.9991L11.7545 19.9983C10.6241 19.9921 5.89772 19.941 4.39451 19.5228C3.4496 19.2573 2.70692 18.4828 2.45587 17.501C2.0562 15.9419 2.00624 12.8989 2 12.1625V11.8358C2.00624 11.0994 2.0562 8.05641 2.45587 6.49732C2.7104 5.51186 3.45308 4.73732 4.39451 4.4755C5.89772 4.05723 10.6241 4.00622 11.7545 4H12.2439ZM9.99911 8.49914V15.4991L15.9991 11.9991L9.99911 8.49914Z"></path>
    </symbol>
  </defs>
</svg>
