<svg aria-hidden="true" class="k-icons" xmlns="http://www.w3.org/2000/svg" overflow="hidden">
  <defs>
    <symbol id="icon-account" viewBox="0 0 24 24">
			<path d="M12 2C17.5228 2 22 6.47715 22 12C22 17.5228 17.5228 22 12 22C6.47715 22 2 17.5228 2 12C2 6.47715 6.47715 2 12 2ZM12.1597 16C10.1243 16 8.29182 16.8687 7.01276 18.2556C8.38039 19.3474 10.114 20 12 20C13.9695 20 15.7727 19.2883 17.1666 18.1081C15.8956 16.8074 14.1219 16 12.1597 16ZM12 4C7.58172 4 4 7.58172 4 12C4 13.8106 4.6015 15.4807 5.61557 16.8214C7.25639 15.0841 9.58144 14 12.1597 14C14.6441 14 16.8933 15.0066 18.5218 16.6342C19.4526 15.3267 20 13.7273 20 12C20 7.58172 16.4183 4 12 4ZM12 5C14.2091 5 16 6.79086 16 9C16 11.2091 14.2091 13 12 13C9.79086 13 8 11.2091 8 9C8 6.79086 9.79086 5 12 5ZM12 7C10.8954 7 10 7.89543 10 9C10 10.1046 10.8954 11 12 11C13.1046 11 14 10.1046 14 9C14 7.89543 13.1046 7 12 7Z"></path>
    </symbol>
    <symbol id="icon-add" viewBox="0 0 24 24">
			<path d="M11 11V7H13V11H17V13H13V17H11V13H7V11H11ZM12 22C6.47715 22 2 17.5228 2 12C2 6.47715 6.47715 2 12 2C17.5228 2 22 6.47715 22 12C22 17.5228 17.5228 22 12 22ZM12 20C16.4183 20 20 16.4183 20 12C20 7.58172 16.4183 4 12 4C7.58172 4 4 7.58172 4 12C4 16.4183 7.58172 20 12 20Z"></path>
    </symbol>
    <symbol id="icon-alert" viewBox="0 0 24 24">
			<path d="M12.865 3.00017L22.3912 19.5002C22.6674 19.9785 22.5035 20.5901 22.0252 20.8662C21.8732 20.954 21.7008 21.0002 21.5252 21.0002H2.47266C1.92037 21.0002 1.47266 20.5525 1.47266 20.0002C1.47266 19.8246 1.51886 19.6522 1.60663 19.5002L11.1329 3.00017C11.4091 2.52187 12.0206 2.358 12.4989 2.63414C12.651 2.72191 12.7772 2.84815 12.865 3.00017ZM4.20471 19.0002H19.7932L11.9989 5.50017L4.20471 19.0002ZM10.9989 16.0002H12.9989V18.0002H10.9989V16.0002ZM10.9989 9.00017H12.9989V14.0002H10.9989V9.00017Z" />
    </symbol>
    <symbol id="icon-anchor" viewBox="0 0 16 16">
			<path d="M15.8,9.114a.5.5,0,0,0-.466-.073L11.93,10.224a.5.5,0,0,0-.138.871l.87.659A6.034,6.034,0,0,1,9,13.906V9h1a1,1,0,0,0,0-2H9V5.816a3,3,0,1,0-2,0V7H6A1,1,0,0,0,6,9H7v4.906a6.034,6.034,0,0,1-3.662-2.152l.87-.659a.5.5,0,0,0-.138-.871L.664,9.041a.5.5,0,0,0-.663.5l.218,3.6a.5.5,0,0,0,.29.424.49.49,0,0,0,.209.046.5.5,0,0,0,.3-.1l.729-.552A8.03,8.03,0,0,0,8,16a8.03,8.03,0,0,0,6.252-3.042l.729.552a.5.5,0,0,0,.3.1.49.49,0,0,0,.209-.046.5.5,0,0,0,.29-.424L16,9.543A.5.5,0,0,0,15.8,9.114ZM8,2A1,1,0,1,1,7,3,1,1,0,0,1,8,2Z" />
    </symbol>
    <symbol id="icon-angle-down" viewBox="0 0 24 24">
			<path d="M11.9997 13.1714L16.9495 8.22168L18.3637 9.63589L11.9997 15.9999L5.63574 9.63589L7.04996 8.22168L11.9997 13.1714Z" />
    </symbol>
    <symbol id="icon-angle-left" viewBox="0 0 24 24">
			<path d="M10.8284 12.0007L15.7782 16.9504L14.364 18.3646L8 12.0007L14.364 5.63672L15.7782 7.05093L10.8284 12.0007Z" />
    </symbol>
    <symbol id="icon-angle-right" viewBox="0 0 24 24">
			<path d="M13.1714 12.0007L8.22168 7.05093L9.63589 5.63672L15.9999 12.0007L9.63589 18.3646L8.22168 16.9504L13.1714 12.0007Z" />
    </symbol>
    <symbol id="icon-angle-up" viewBox="0 0 24 24">
			<path d="M11.9997 10.8284L7.04996 15.7782L5.63574 14.364L11.9997 8L18.3637 14.364L16.9495 15.7782L11.9997 10.8284Z"></path>
    </symbol>
    <symbol id="icon-archive" viewBox="0 0 16 16">
      <path d="M15.977 4.887a.975.975 0 0 0-.04-.2.909.909 0 0 0-.089-.186 1.048 1.048 0 0 0-.048-.1l-3-4A1 1 0 0 0 12 0H4a1 1 0 0 0-.8.4l-3 4a1.048 1.048 0 0 0-.048.1.892.892 0 0 0-.089.187.957.957 0 0 0-.04.2A.885.885 0 0 0 0 5v9a2 2 0 0 0 2 2h12a2 2 0 0 0 2-2V5a.87.87 0 0 0-.023-.113ZM8 13.5 5 10h2V7h2v3h2ZM3 4l1.5-2h7L13 4Z" />
    </symbol>
    <symbol id="icon-attachment" viewBox="0 0 24 24">
			<path d="M14 13.5V8C14 5.79086 12.2091 4 10 4C7.79086 4 6 5.79086 6 8V13.5C6 17.0899 8.91015 20 12.5 20C16.0899 20 19 17.0899 19 13.5V4H21V13.5C21 18.1944 17.1944 22 12.5 22C7.80558 22 4 18.1944 4 13.5V8C4 4.68629 6.68629 2 10 2C13.3137 2 16 4.68629 16 8V13.5C16 15.433 14.433 17 12.5 17C10.567 17 9 15.433 9 13.5V8H11V13.5C11 14.3284 11.6716 15 12.5 15C13.3284 15 14 14.3284 14 13.5Z"></path>
    </symbol>
    <symbol id="icon-audio" viewBox="0 0 16 16">
      <path d="M14,0H5C4.4,0,4,0.4,4,1v9.2C3.7,10.1,3.4,10,3,10c-1.7,0-3,1.3-3,3s1.3,3,3,3s3-1.3,3-3V5h7v3.2 C12.7,8.1,12.4,8,12,8c-1.7,0-3,1.3-3,3s1.3,3,3,3s3-1.3,3-3V1C15,0.4,14.6,0,14,0z" />
    </symbol>
    <symbol id="icon-badge" viewBox="0 0 16 16">
      <path d="M14,6V3c0-0.552-0.448-1-1-1h-3L8,0L6,2H3C2.448,2,2,2.448,2,3v3L0,8l2,2v3c0,0.552,0.448,1,1,1h3l2,2l2-2h3 c0.552,0,1-0.448,1-1v-3l2-2L14,6z" />
    </symbol>
    <symbol id="icon-bars" viewBox="0 0 16 16">
      <path d="M15 7H1c-.6 0-1 .4-1 1s.4 1 1 1h14c.6 0 1-.4 1-1s-.4-1-1-1zM15 1H1c-.6 0-1 .4-1 1s.4 1 1 1h14c.6 0 1-.4 1-1s-.4-1-1-1zM15 13H1c-.6 0-1 .4-1 1s.4 1 1 1h14c.6 0 1-.4 1-1s-.4-1-1-1z" />
    </symbol>
    <symbol id="icon-bell" viewBox="0 0 16 16">
      <path d="M10,14H6c0,1.1,0.9,2,2,2S10,15.1,10,14z"/>
      <path d="M15,11h-0.5C13.8,10.3,13,9.3,13,8V5c0-2.8-2.2-5-5-5S3,2.2,3,5v3c0,1.3-0.8,2.3-1.5,3H1c-0.6,0-1,0.4-1,1 s0.4,1,1,1h14c0.6,0,1-0.4,1-1S15.6,11,15,11z"/>
    </symbol>
    <symbol id="icon-blank" viewBox="0 0 16 16" />
    <symbol id="icon-bold" viewBox="0 0 24 24">
			<path d="M8 11H12.5C13.8807 11 15 9.88071 15 8.5C15 7.11929 13.8807 6 12.5 6H8V11ZM18 15.5C18 17.9853 15.9853 20 13.5 20H6V4H12.5C14.9853 4 17 6.01472 17 8.5C17 9.70431 16.5269 10.7981 15.7564 11.6058C17.0979 12.3847 18 13.837 18 15.5ZM8 13V18H13.5C14.8807 18 16 16.8807 16 15.5C16 14.1193 14.8807 13 13.5 13H8Z"></path>
    </symbol>
    <symbol id="icon-bolt" viewBox="0 0 24 24">
			<path d="M13 9H21L11 24V15H4L13 0V9ZM11 11V7.22063L7.53238 13H13V17.3944L17.263 11H11Z"></path>
    </symbol>
    <symbol id="icon-book" viewBox="0 0 16 16">
      <path d="M7.6,15.9l-7-3C0.2,12.8,0,12.4,0,12V1c0-0.7,0.7-1.2,1.4-0.9L8,2.9l6.6-2.8C15.3-0.2,16,0.3,16,1v11 c0,0.4-0.2,0.8-0.6,0.9l-7,3C8.1,16,7.9,16,7.6,15.9z M2,11.3l6,2.6l6-2.6V2.5L8.4,4.9C8.1,5,7.9,5,7.6,4.9L2,2.5V11.3z"/>
      <rect x="2.8" y="6.2" transform="matrix(0.9191 0.3939 -0.3939 0.9191 3.0495 -1.4271)" width="4.4" height="1"/>
      <rect x="2.8" y="9.4" transform="matrix(0.9191 0.3939 -0.3939 0.9191 4.2872 -1.173)" width="4.4" height="1"/>
      <rect x="10.5" y="4.5" transform="matrix(0.3937 0.9192 -0.9192 0.3937 12.8415 -6.0395)" width="1" height="4.4"/>
      <rect x="10.5" y="7.7" transform="matrix(0.3937 0.9192 -0.9192 0.3937 15.7298 -4.1344)" width="1" height="4.4"/>
    </symbol>
    <symbol id="icon-bookmark" viewBox="0 0 16 16">
      <path d="M4,0C2.9,0,2,0.9,2,2v14l6-3l6,3V2c0-1.1-0.9-2-2-2H4z"/>
    </symbol>
    <symbol id="icon-box" viewBox="0 0 24 24">
			<path d="M4.5 7.65311V16.3469L12 20.689L19.5 16.3469V7.65311L12 3.311L4.5 7.65311ZM12 1L21.5 6.5V17.5L12 23L2.5 17.5V6.5L12 1ZM6.49896 9.97065L11 12.5765V17.625H13V12.5765L17.501 9.97066L16.499 8.2398L12 10.8445L7.50104 8.2398L6.49896 9.97065Z"></path>
    </symbol>
    <symbol id="icon-bug" viewBox="0 0 16 16">
      <path d="M16,4V3h-2v1c0,0.6-0.4,1-1,1h-1c-0.3-0.4-0.6-0.7-1-1V3c0-1.7-1.3-3-3-3S5,1.3,5,3v1C4.6,4.3,4.3,4.6,4,5H3 C2.4,5,2,4.6,2,4V3H0v1c0,1.7,1.3,3,3,3h0.1C3,7.3,3,7.7,3,8H0v2h3v1c-1.7,0-3,1.3-3,3v1h2v-1c0-0.6,0.4-1,1-1h0.4 C4.2,14.8,6,16,8,16s3.8-1.2,4.6-3H13c0.6,0,1,0.4,1,1v1h2v-1c0-1.7-1.3-3-3-3v-1h3V8h-3c0-0.3,0-0.7-0.1-1H13C14.7,7,16,5.7,16,4z"/>
    </symbol>
    <symbol id="icon-brush" viewBox="0 0 16 16">
      <path d="M9,10L6,7l6.4-6.4c0.8-0.8,2.2-0.8,3,0l0,0c0.8,0.8,0.8,2.2,0,3L9,10z" />
      <path d="M1.4,10.3c1.2-1.2,3.1-1.2,4.2,0s1.2,3.1,0,4.2S0,16,0,16S0.2,11.5,1.4,10.3z" />
    </symbol>
    <symbol id="icon-calendar" viewBox="0 0 16 16">
      <path d="M15 2h-2V0h-2v2H9V0H7v2H5V0H3v2H1a1 1 0 0 0-1 1v12a1 1 0 0 0 1 1h14a1 1 0 0 0 1-1V3a1 1 0 0 0-1-1zm-1 12H2V5h12v9z" />
      <path d="M4 7h2v2H4V7zM7 7h2v2H7V7zM4 10h2v2H4v-2zM7 10h2v2H7v-2zM10 7h2v2h-2V7zM10 10h2v2h-2v-2z" />
    </symbol>
    <symbol id="icon-cancel" viewBox="0 0 24 24">
			<path d="M12 22C6.47715 22 2 17.5228 2 12C2 6.47715 6.47715 2 12 2C17.5228 2 22 6.47715 22 12C22 17.5228 17.5228 22 12 22ZM12 20C16.4183 20 20 16.4183 20 12C20 7.58172 16.4183 4 12 4C7.58172 4 4 7.58172 4 12C4 16.4183 7.58172 20 12 20ZM12 10.5858L14.8284 7.75736L16.2426 9.17157L13.4142 12L16.2426 14.8284L14.8284 16.2426L12 13.4142L9.17157 16.2426L7.75736 14.8284L10.5858 12L7.75736 9.17157L9.17157 7.75736L12 10.5858Z"></path>
    </symbol>
    <symbol id="icon-cancel-small" viewBox="0 0 16 16">
      <polygon points="10.1,4.5 8,6.6 5.9,4.5 4.5,5.9 6.6,8 4.5,10.1 5.9,11.5 8,9.4 10.1,11.5 11.5,10.1 9.4,8 11.5,5.9 " />
    </symbol>
    <symbol id="icon-car" viewBox="0 0 16 16">
      <path d="M15.9,8.6L15,6.7l-1-5.9C13.9,0.4,13.5,0,13,0H3C2.5,0,2.1,0.4,2,0.8L1,6.7L0.1,8.6C0,8.7,0,8.8,0,9v4 c0,0.6,0.4,1,1,1v1c0,0.6,0.4,1,1,1h2c0.6,0,1-0.4,1-1v-1h6v1c0,0.6,0.4,1,1,1h2c0.6,0,1-0.4,1-1v-1c0.6,0,1-0.4,1-1V9 C16,8.8,16,8.7,15.9,8.6z M3.8,2h8.3l0.7,4H3.2L3.8,2z M2,12V9.2L2.6,8h10.8L14,9.2V12H2z"/>
      <circle cx="4" cy="10" r="1"/>
      <circle cx="12" cy="10" r="1"/>
    </symbol>
    <symbol id="icon-cart" viewBox="0 0 16 16">
      <path d="M15,3H4.5L4,0.8C3.9,0.3,3.5,0,3,0H0v2h2.2L4,10.2C4.1,10.7,4.5,11,5,11h8c0.4,0,0.8-0.3,0.9-0.7l2-6 C16.1,3.8,15.8,3,15,3z" />
      <circle cx="5" cy="14" r="2" />
      <circle cx="13" cy="14" r="2" />
    </symbol>
    <symbol id="icon-chart" viewBox="0 0 16 16">
      <path d="M1,15h13c0.552,0,1-0.448,1-1v0c0-0.552-0.448-1-1-1H1c-0.552,0-1,0.448-1,1v0 C0,14.552,0.448,15,1,15z"/>
      <rect x="6" y="1" width="3" height="10"/>
      <rect x="1" y="5" width="3" height="6"/>
      <rect x="11" y="7" width="3" height="4"/>
    </symbol>
    <symbol id="icon-chat" viewBox="0 0 16 16">
      <path d="M15,4h-1v6c0,0.552-0.448,1-1,1H6.828L5,13h5l3,3v-3h2c0.552,0,1-0.448,1-1V5 C16,4.448,15.552,4,15,4z"/>
      <path d="M1,0h10c0.552,0,1,0.448,1,1v7c0,0.552-0.448,1-1,1H6l-3,3V9H1C0.448,9,0,8.552,0,8V1C0,0.448,0.448,0,1,0z"/>
    </symbol>
    <symbol id="icon-check" viewBox="0 0 24 24">
			<path d="M12 22C6.47715 22 2 17.5228 2 12C2 6.47715 6.47715 2 12 2C17.5228 2 22 6.47715 22 12C22 17.5228 17.5228 22 12 22ZM12 20C16.4183 20 20 16.4183 20 12C20 7.58172 16.4183 4 12 4C7.58172 4 4 7.58172 4 12C4 16.4183 7.58172 20 12 20ZM11.0026 16L6.75999 11.7574L8.17421 10.3431L11.0026 13.1716L16.6595 7.51472L18.0737 8.92893L11.0026 16Z" />
    </symbol>
    <symbol id="icon-checklist" viewBox="0 0 16 16">
			<path d="M1,7H5A1,1,0,0,0,6,6V2A1,1,0,0,0,5,1H1A1,1,0,0,0,0,2V6A1,1,0,0,0,1,7ZM2,3H4V5H2Z" />
			<path d="M6.219,8.377v0L2.917,12.5l-1.21-1.21A1,1,0,0,0,.293,12.707l2,2A1,1,0,0,0,3,15h.055a1,1,0,0,0,.726-.373l4-5a1,1,0,1,0-1.562-1.25Z" />
			<path d="M9,5h6a1,1,0,0,0,0-2H9A1,1,0,0,0,9,5Z" />
			<path d="M15,11H9a1,1,0,0,0,0,2h6a1,1,0,0,0,0-2Z" />
    </symbol>
    <symbol id="icon-circle" viewBox="0 0 16 16">
      <circle cx="8" cy="8" r="8" />
    </symbol>
    <symbol id="icon-circle-filled" viewBox="0 0 16 16">
      <path d="M8,0C3.6,0,0,3.6,0,8s3.6,8,8,8s8-3.6,8-8S12.4,0,8,0z M8,14c-3.3,0-6-2.7-6-6s2.7-6,6-6s6,2.7,6,6 S11.3,14,8,14z" />
      <circle cx="8" cy="8" r="4" />
    </symbol>
    <symbol id="icon-circle-half" viewBox="0 0 16 16">
      <path d="M8,0C3.6,0,0,3.6,0,8s3.6,8,8,8s8-3.6,8-8S12.4,0,8,0z M2,8c0-3.3,2.7-6,6-6v12C4.7,14,2,11.3,2,8z" />
    </symbol>
    <symbol id="icon-circle-nested" viewBox="0 0 16 16">
      <path d="M8,0C3.6,0,0,3.6,0,8s3.6,8,8,8s8-3.6,8-8S12.4,0,8,0z M8,14c-3.3,0-6-2.7-6-6s2.7-6,6-6s6,2.7,6,6 S11.3,14,8,14z" />
      <path d="M8,4C5.8,4,4,5.8,4,8s1.8,4,4,4s4-1.8,4-4S10.2,4,8,4z M8,10c-1.1,0-2-0.9-2-2s0.9-2,2-2 s2,0.9,2,2S9.1,10,8,10z" />
    </symbol>
    <symbol id="icon-circle-outline" viewBox="0 0 16 16">
      <path d="M8 0C3.6 0 0 3.6 0 8s3.6 8 8 8 8-3.6 8-8-3.6-8-8-8zm0 14c-3.3 0-6-2.7-6-6s2.7-6 6-6 6 2.7 6 6-2.7 6-6 6z" />
    </symbol>
		<symbol id="icon-clear" viewBox="0 0 24 24">
			<path d="M8.58564 8.85461L3.63589 13.8044L8.83021 18.9987L9.99985 18.998V18.9967H11.1714L14.9496 15.2186L8.58564 8.85461ZM9.99985 7.44039L16.3638 13.8044L19.1922 10.9759L12.8283 4.61197L9.99985 7.44039ZM13.9999 18.9967H20.9999V20.9967H11.9999L8.00229 20.9992L1.51457 14.5115C1.12405 14.1209 1.12405 13.4878 1.51457 13.0972L12.1212 2.49065C12.5117 2.10012 13.1449 2.10012 13.5354 2.49065L21.3136 10.2688C21.7041 10.6593 21.7041 11.2925 21.3136 11.683L13.9999 18.9967Z"></path>
    </symbol>
    <symbol id="icon-clock" viewBox="0 0 16 16">
      <path d="M8 0C3.6 0 0 3.6 0 8s3.6 8 8 8 8-3.6 8-8-3.6-8-8-8zm0 14c-3.3 0-6-2.7-6-6s2.7-6 6-6 6 2.7 6 6-2.7 6-6 6z" />
      <path d="M9 4H7v5h5V7H9z" />
    </symbol>
    <symbol id="icon-code" viewBox="0 0 24 24">
			<path d="M24 12L18.3431 17.6569L16.9289 16.2426L21.1716 12L16.9289 7.75736L18.3431 6.34315L24 12ZM2.82843 12L7.07107 16.2426L5.65685 17.6569L0 12L5.65685 6.34315L7.07107 7.75736L2.82843 12ZM9.78845 21H7.66009L14.2116 3H16.3399L9.78845 21Z"></path>
    </symbol>
    <symbol id="icon-cog" viewBox="0 0 24 24">
			<path d="M2.21329 14.0601C1.92026 12.6755 1.93213 11.2743 2.21413 9.94038C3.32405 10.0711 4.29284 9.7035 4.60963 8.93871C4.92641 8.17392 4.50129 7.22896 3.62405 6.53655C4.36788 5.3939 5.35029 4.39471 6.53651 3.62289C7.22898 4.50059 8.17422 4.92601 8.9392 4.60914C9.70418 4.29227 10.0717 3.32308 9.94077 2.21281C11.3253 1.91977 12.7265 1.93164 14.0605 2.21364C13.9298 3.32356 14.2973 4.29235 15.0621 4.60914C15.8269 4.92593 16.7719 4.5008 17.4643 3.62356C18.6069 4.36739 19.6061 5.3498 20.3779 6.53602C19.5002 7.22849 19.0748 8.17373 19.3917 8.93871C19.7086 9.70369 20.6778 10.0713 21.788 9.94028C22.0811 11.3248 22.0692 12.726 21.7872 14.06C20.6773 13.9293 19.7085 14.2969 19.3917 15.0616C19.0749 15.8264 19.5 16.7714 20.3773 17.4638C19.6335 18.6064 18.651 19.6056 17.4648 20.3775C16.7724 19.4998 15.8271 19.0743 15.0621 19.3912C14.2971 19.7081 13.9296 20.6773 14.0606 21.7875C12.676 22.0806 11.2748 22.0687 9.94087 21.7867C10.0716 20.6768 9.70399 19.708 8.9392 19.3912C8.17441 19.0744 7.22945 19.4995 6.53703 20.3768C5.39439 19.633 4.3952 18.6506 3.62338 17.4643C4.50108 16.7719 4.92649 15.8266 4.60963 15.0616C4.29276 14.2967 3.32356 13.9291 2.21329 14.0601ZM4.00073 12.2104C5.10054 12.5148 6.00815 13.2117 6.45739 14.2963C6.90662 15.3808 6.75764 16.5154 6.19519 17.5083C6.29175 17.61 6.39096 17.7092 6.4927 17.8056C7.48558 17.2432 8.6201 17.0943 9.70456 17.5435C10.789 17.9927 11.4859 18.9002 11.7904 19.9999C11.9305 20.0037 12.0707 20.0038 12.2109 20.0001C12.5153 18.9003 13.2122 17.9927 14.2968 17.5435C15.3813 17.0942 16.5159 17.2432 17.5088 17.8057C17.6105 17.7091 17.7096 17.6099 17.806 17.5081C17.2437 16.5153 17.0947 15.3807 17.5439 14.2963C17.9931 13.2118 18.9007 12.5149 20.0004 12.2105C20.0042 12.0704 20.0043 11.9301 20.0006 11.7899C18.9008 11.4856 17.9932 10.7886 17.5439 9.70407C17.0947 8.61953 17.2437 7.48494 17.8061 6.49204C17.7096 6.39031 17.6104 6.2912 17.5086 6.19479C16.5158 6.75717 15.3812 6.9061 14.2968 6.4569C13.2123 6.0077 12.5154 5.10016 12.211 4.00044C12.0709 3.99666 11.9306 3.99659 11.7904 4.00024C11.486 5.10005 10.7891 6.00767 9.70456 6.4569C8.62002 6.90613 7.48543 6.75715 6.49252 6.1947C6.39079 6.29126 6.29169 6.39047 6.19528 6.49222C6.75766 7.48509 6.90659 8.61961 6.45739 9.70407C6.00819 10.7885 5.10065 11.4855 4.00092 11.7899C3.99715 11.93 3.99708 12.0702 4.00073 12.2104ZM12.0007 15.0002C10.3438 15.0002 9.00066 13.657 9.00066 12.0002C9.00066 10.3433 10.3438 9.00018 12.0007 9.00018C13.6575 9.00018 15.0007 10.3433 15.0007 12.0002C15.0007 13.657 13.6575 15.0002 12.0007 15.0002ZM12.0007 13.0002C12.5529 13.0002 13.0007 12.5525 13.0007 12.0002C13.0007 11.4479 12.5529 11.0002 12.0007 11.0002C11.4484 11.0002 11.0007 11.4479 11.0007 12.0002C11.0007 12.5525 11.4484 13.0002 12.0007 13.0002Z"></path>
    </symbol>
    <symbol id="icon-collapse" viewBox="0 0 16 16">
      <path d="M15.707 1.707A.999.999 0 1 0 14.293.293l-2.5 2.5L9 0v7h7l-2.793-2.793 2.5-2.5zM2.793 11.793l-2.5 2.5a.999.999 0 1 0 1.414 1.414l2.5-2.5L7 16V9H0l2.793 2.793z" />
    </symbol>
    <symbol id="icon-copy" viewBox="0 0 24 24">
			<path d="M6.9998 6V3C6.9998 2.44772 7.44752 2 7.9998 2H19.9998C20.5521 2 20.9998 2.44772 20.9998 3V17C20.9998 17.5523 20.5521 18 19.9998 18H16.9998V20.9991C16.9998 21.5519 16.5499 22 15.993 22H4.00666C3.45059 22 3 21.5554 3 20.9991L3.0026 7.00087C3.0027 6.44811 3.45264 6 4.00942 6H6.9998ZM5.00242 8L5.00019 20H14.9998V8H5.00242ZM8.9998 6H16.9998V16H18.9998V4H8.9998V6Z" />
    </symbol>
    <symbol id="icon-credit-card" viewBox="0 0 16 16">
      <path d="M16,5V3c0-0.6-0.4-1-1-1H1C0.4,2,0,2.4,0,3v2H16z"/>
      <path d="M0,7v6c0,0.6,0.4,1,1,1h14c0.6,0,1-0.4,1-1V7H0z M6,11H2v-1h4V11z M14,11h-2v-1h2V11z"/>
    </symbol>
    <symbol id="icon-crop" viewBox="0 0 16 16">
      <rect x="10" y="13" width="3" height="3" />
      <polygon points="13,9 13,2 6,2 6,0 3,0 3,2 0,2 0,5 10,5 10,9 6,9 6,6 3,6 3,12 16,12 16,9 " />
    </symbol>
    <symbol id="icon-dashboard" viewBox="0 0 24 24">
			<path d="M22 20C22 20.5523 21.5523 21 21 21H3C2.44772 21 2 20.5523 2 20V4C2 3.44772 2.44772 3 3 3H21C21.5523 3 22 3.44772 22 4V20ZM11 15H4V19H11V15ZM20 11H13V19H20V11ZM11 5H4V13H11V5ZM20 5H13V9H20V5Z"></path>    </symbol>
    <symbol id="icon-discord" viewBox="0 0 16 16">
      <path d="M6.552,6.712a.891.891,0,0,0,0,1.776A.852.852,0,0,0,7.368,7.6.847.847,0,0,0,6.552,6.712Zm2.92,0a.891.891,0,1,0,.816.888A.852.852,0,0,0,9.472,6.712Z" />
      <path d="M13.36,0H2.64A1.644,1.644,0,0,0,1,1.648V12.464a1.644,1.644,0,0,0,1.64,1.648h9.072l-.424-1.48,1.024.952.968.9L15,16V1.648A1.644,1.644,0,0,0,13.36,0ZM10.272,10.448S9.984,10.1,9.744,9.8a2.524,2.524,0,0,0,1.448-.952,4.578,4.578,0,0,1-.92.472,5.265,5.265,0,0,1-1.16.344A5.6,5.6,0,0,1,7.04,9.656a6.716,6.716,0,0,1-1.176-.344,4.683,4.683,0,0,1-.912-.472,2.488,2.488,0,0,0,1.4.944c-.24.3-.536.664-.536.664a2.9,2.9,0,0,1-2.44-1.216A10.713,10.713,0,0,1,4.528,4.568a3.956,3.956,0,0,1,2.248-.84l.08.1a5.4,5.4,0,0,0-2.1,1.048s.176-.1.472-.232a6.008,6.008,0,0,1,1.816-.5.788.788,0,0,1,.136-.016A6.769,6.769,0,0,1,8.792,4.1a6.521,6.521,0,0,1,2.408.768A5.324,5.324,0,0,0,9.208,3.856l.112-.128a3.956,3.956,0,0,1,2.248.84A10.713,10.713,0,0,1,12.72,9.232,2.924,2.924,0,0,1,10.272,10.448Z" />
    </symbol>
    <symbol id="icon-discount" viewBox="0 0 16 16">
      <rect x="-0.211" y="7" width="16.422" height="2" transform="translate(-3.094 10.219) rotate(-56.31)" />
      <path d="M7,4A3,3,0,1,0,4,7,3,3,0,0,0,7,4ZM3,4A1,1,0,1,1,4,5,1,1,0,0,1,3,4Z" />
      <path d="M12,9a3,3,0,1,0,3,3A3,3,0,0,0,12,9Zm0,4a1,1,0,1,1,1-1A1,1,0,0,1,12,13Z" />
    </symbol>
    <symbol id="icon-display" viewBox="0 0 16 16">
      <path d="M15,0H1C0.4,0,0,0.4,0,1v11c0,0.6,0.4,1,1,1h5v1H3v2h10v-2h-3v-1h5c0.6,0,1-0.4,1-1V1C16,0.4,15.6,0,15,0z M14,2v7H2V2H14z" />
    </symbol>
    <symbol id="icon-divider" viewBox="0 0 24 24">
			<path d="M19 11V5H5V11H19ZM19 13H5V19H19V13ZM4 3H20C20.5523 3 21 3.44772 21 4V20C21 20.5523 20.5523 21 20 21H4C3.44772 21 3 20.5523 3 20V4C3 3.44772 3.44772 3 4 3Z"></path>
    </symbol>
    <symbol id="icon-document" viewBox="0 0 16 16">
      <path d="M14 0H2c-.6 0-1 .4-1 1v14c0 .6.4 1 1 1h12c.6 0 1-.4 1-1V1c0-.6-.4-1-1-1zm-1 14H3V2h10v12z" />
      <path d="M4 3h4v4H4V3zM9 4h3v1H9V4zM9 6h3v1H9V6zM4 8h8v1H4V8zM4 10h8v1H4v-1zM4 12h5v1H4v-1z" />
    </symbol>
    <symbol id="icon-dots" viewBox="0 0 24 24">
			<path d="M5 10C3.9 10 3 10.9 3 12C3 13.1 3.9 14 5 14C6.1 14 7 13.1 7 12C7 10.9 6.1 10 5 10ZM19 10C17.9 10 17 10.9 17 12C17 13.1 17.9 14 19 14C20.1 14 21 13.1 21 12C21 10.9 20.1 10 19 10ZM12 10C10.9 10 10 10.9 10 12C10 13.1 10.9 14 12 14C13.1 14 14 13.1 14 12C14 10.9 13.1 10 12 10Z"></path>
    </symbol>
    <symbol id="icon-download" viewBox="0 0 24 24">
			<path d="M13 10H18L12 16L6 10H11V3H13V10ZM4 19H20V12H22V20C22 20.5523 21.5523 21 21 21H3C2.44772 21 2 20.5523 2 20V12H4V19Z"></path>
    </symbol>
    <symbol id="icon-draft" viewBox="0 0 16 16">
      <path d="M4 0v9H0v4c0 1.7 1.3 3 3 3h10c1.7 0 3-1.3 3-3V0H4zm10 13c0 .6-.4 1-1 1H6V2h8v11z" />
      <path d="M8 5h4v2H8V5zM8 9h4v2H8V9z" />
    </symbol>
    <symbol id="icon-edit" viewBox="0 0 16 16">
      <path d="M8.1 3.5L.3 11.3c-.2.2-.3.4-.3.7v3c0 .6.4 1 1 1h3c.3 0 .5-.1.7-.3l7.8-7.8-4.4-4.4zM15.7 3.3l-3-3c-.4-.4-1-.4-1.4 0L9.5 2.1l4.4 4.4 1.8-1.8c.4-.4.4-1 0-1.4z" />
    </symbol>
		<symbol id="icon-edit-sheet" viewBox="0 0 24 24">
			<path d="M6.41421 15.89L16.5563 5.74786L15.1421 4.33365L5 14.4758V15.89H6.41421ZM7.24264 17.89H3V13.6474L14.435 2.21233C14.8256 1.8218 15.4587 1.8218 15.8492 2.21233L18.6777 5.04075C19.0682 5.43128 19.0682 6.06444 18.6777 6.45497L7.24264 17.89ZM3 19.89H21V21.89H3V19.89Z"></path>
		</symbol>
    <symbol id="icon-email" viewBox="0 0 24 24">
			<path d="M3 3H21C21.5523 3 22 3.44772 22 4V20C22 20.5523 21.5523 21 21 21H3C2.44772 21 2 20.5523 2 20V4C2 3.44772 2.44772 3 3 3ZM20 7.23792L12.0718 14.338L4 7.21594V19H20V7.23792ZM4.51146 5L12.0619 11.662L19.501 5H4.51146Z"></path>
    </symbol>
    <symbol id="icon-expand" viewBox="0 0 16 16">
      <path d="M7.4 10L6 8.6l-2.7 2.7L0 8v8h8l-3.3-3.3zM11.3 3.3L8.6 6 10 7.4l2.7-2.7L16 8V0H8z" />
    </symbol>
    <symbol id="icon-facebook" viewBox="0 0 16 16">
      <path d="M15.3 0H.7C.3 0 0 .3 0 .7v14.7c0 .3.3.6.7.6H8v-5H6V8h2V6c0-2.1 1.2-3 3-3h2v3h-1c-.6 0-1 .4-1 1v1h2.6l-.6 3h-2v5h4.3c.4 0 .7-.3.7-.7V.7c0-.4-.3-.7-.7-.7z" />
    </symbol>
    <symbol id="icon-file" viewBox="0 0 32 32">
      <use href="#icon-attachment" />
    </symbol>
    <symbol id="icon-file-audio" viewBox="0 0 32 32">
      <use href="#icon-audio" />
    </symbol>
    <symbol id="icon-file-code" viewBox="0 0 32 32">
      <use href="#icon-code" />
    </symbol>
    <symbol id="icon-file-document" viewBox="0 0 32 32">
      <use href="#icon-document" />
    </symbol>
    <symbol id="icon-file-image" viewBox="0 0 32 32">
      <use href="#icon-image" />
    </symbol>
    <symbol id="icon-file-spreadsheet" viewBox="0 0 32 32">
      <use href="#icon-table" />
    </symbol>
    <symbol id="icon-file-text" viewBox="0 0 32 32">
      <use href="#icon-markdown" />
    </symbol>
    <symbol id="icon-file-video" viewBox="0 0 32 32">
      <use href="#icon-video" />
    </symbol>
    <symbol id="icon-file-word" viewBox="0 0 32 32">
      <use href="#icon-pen" />
    </symbol>
    <symbol id="icon-file-zip" viewBox="0 0 32 32">
      <use href="#icon-archive" />
    </symbol>
    <symbol id="icon-filter" viewBox="0 0 16 16">
      <use href="#icon-funnel" />
    </symbol>
    <symbol id="icon-flag" viewBox="0 0 16 16">
      <path d="M13,6l2-5H3c0-0.6-0.4-1-1-1S1,0.4,1,1v14c0,0.6,0.4,1,1,1s1-0.4,1-1v-4h12L13,6z" />
    </symbol>
    <symbol id="icon-folder" viewBox="0 0 16 16">
      <path d="M15,3H8V1c0-0.6-0.4-1-1-1H1C0.4,0,0,0.4,0,1v14c0,0.6,0.4,1,1,1h14c0.6,0,1-0.4,1-1V4C16,3.4,15.6,3,15,3z M6,2v2c0,0.6,0.4,1,1,1h7v2H2V2H6z M2,14V9h12v5H2z"/>
    </symbol>
    <symbol id="icon-folder-structure" viewBox="0 0 16 16">
      <path d="M15,10H7c-0.552,0-1,0.448-1,1v1v2v1c0,0.552,0.448,1,1,1h8c0.552,0,1-0.448,1-1v-4 C16,10.448,15.552,10,15,10z" />
      <path d="M5,12H2V6h3V4H2V1c0-0.552-0.448-1-1-1S0,0.448,0,1v12c0,0.553,0.448,1,1,1h4V12z" />
      <path d="M15,2H7C6.448,2,6,2.448,6,3v1v2v1c0,0.552,0.448,1,1,1h8c0.552,0,1-0.448,1-1V3C16,2.448,15.552,2,15,2z" />
    </symbol>
    <symbol id="icon-food" viewBox="0 0 16 16">
      <path d="M6,0,5.6,5H4.4L4,0H3L2.6,5H1.4L1,0H0V6A2,2,0,0,0,2,8v6.5a1.5,1.5,0,0,0,3,0V8A2,2,0,0,0,7,6V0Z" />
      <path d="M15,0a5,5,0,0,0-5,5v6h2v3.5A1.5,1.5,0,0,0,13.5,16h0A1.5,1.5,0,0,0,15,14.5V0Z" />
    </symbol>
    <symbol id="icon-funnel" viewBox="0 0 24 24">
			<path d="M10 18H14V16H10V18ZM3 6V8H21V6H3ZM6 13H18V11H6V13Z"></path>
    </symbol>
    <symbol id="icon-github" viewBox="0 0 16 16">
      <path fill-rule="evenodd" clip-rule="evenodd" d="M8,0.2c-4.4,0-8,3.6-8,8c0,3.5,2.3,6.5,5.5,7.6 C5.9,15.9,6,15.6,6,15.4c0-0.2,0-0.7,0-1.4C3.8,14.5,3.3,13,3.3,13c-0.4-0.9-0.9-1.2-0.9-1.2c-0.7-0.5,0.1-0.5,0.1-0.5 c0.8,0.1,1.2,0.8,1.2,0.8C4.4,13.4,5.6,13,6,12.8c0.1-0.5,0.3-0.9,0.5-1.1c-1.8-0.2-3.6-0.9-3.6-4c0-0.9,0.3-1.6,0.8-2.1 c-0.1-0.2-0.4-1,0.1-2.1c0,0,0.7-0.2,2.2,0.8c0.6-0.2,1.3-0.3,2-0.3c0.7,0,1.4,0.1,2,0.3c1.5-1,2.2-0.8,2.2-0.8 c0.4,1.1,0.2,1.9,0.1,2.1c0.5,0.6,0.8,1.3,0.8,2.1c0,3.1-1.9,3.7-3.7,3.9C9.7,12,10,12.5,10,13.2c0,1.1,0,1.9,0,2.2 c0,0.2,0.1,0.5,0.6,0.4c3.2-1.1,5.5-4.1,5.5-7.6C16,3.8,12.4,0.2,8,0.2z" />
    </symbol>
    <symbol id="icon-globe" viewBox="0 0 24 24">
			<path d="M6.23509 6.45329C4.85101 7.89148 4 9.84636 4 12C4 16.4183 7.58172 20 12 20C13.0808 20 14.1116 19.7857 15.0521 19.3972C15.1671 18.6467 14.9148 17.9266 14.8116 17.6746C14.582 17.115 13.8241 16.1582 12.5589 14.8308C12.2212 14.4758 12.2429 14.2035 12.3636 13.3943L12.3775 13.3029C12.4595 12.7486 12.5971 12.4209 14.4622 12.1248C15.4097 11.9746 15.6589 12.3533 16.0043 12.8777C16.0425 12.9358 16.0807 12.9928 16.1198 13.0499C16.4479 13.5297 16.691 13.6394 17.0582 13.8064C17.2227 13.881 17.428 13.9751 17.7031 14.1314C18.3551 14.504 18.3551 14.9247 18.3551 15.8472V15.9518C18.3551 16.3434 18.3168 16.6872 18.2566 16.9859C19.3478 15.6185 20 13.8854 20 12C20 8.70089 18.003 5.8682 15.1519 4.64482C14.5987 5.01813 13.8398 5.54726 13.575 5.91C13.4396 6.09538 13.2482 7.04166 12.6257 7.11976C12.4626 7.14023 12.2438 7.12589 12.012 7.11097C11.3905 7.07058 10.5402 7.01606 10.268 7.75495C10.0952 8.2232 10.0648 9.49445 10.6239 10.1543C10.7134 10.2597 10.7307 10.4547 10.6699 10.6735C10.59 10.9608 10.4286 11.1356 10.3783 11.1717C10.2819 11.1163 10.0896 10.8931 9.95938 10.7412C9.64554 10.3765 9.25405 9.92233 8.74797 9.78176C8.56395 9.73083 8.36166 9.68867 8.16548 9.64736C7.6164 9.53227 6.99443 9.40134 6.84992 9.09302C6.74442 8.8672 6.74488 8.55621 6.74529 8.22764C6.74529 7.8112 6.74529 7.34029 6.54129 6.88256C6.46246 6.70541 6.35689 6.56446 6.23509 6.45329ZM12 22C6.47715 22 2 17.5228 2 12C2 6.47715 6.47715 2 12 2C17.5228 2 22 6.47715 22 12C22 17.5228 17.5228 22 12 22Z"></path>
    </symbol>
    <symbol id="icon-grid" viewBox="0 0 16 16">
      <path d="M6 0H1C0.4 0 0 0.4 0 1V6C0 6.6 0.4 7 1 7H6C6.6 7 7 6.6 7 6V1C7 0.4 6.6 0 6 0Z" />
      <path d="M15 0H10C9.4 0 9 0.4 9 1V6C9 6.6 9.4 7 10 7H15C15.6 7 16 6.6 16 6V1C16 0.4 15.6 0 15 0Z" />
      <path d="M6 9H1C0.4 9 0 9.4 0 10V15C0 15.6 0.4 16 1 16H6C6.6 16 7 15.6 7 15V10C7 9.4 6.6 9 6 9Z" />
      <path d="M15 9H10C9.4 9 9 9.4 9 10V15C9 15.6 9.4 16 10 16H15C15.6 16 16 15.6 16 15V10C16 9.4 15.6 9 15 9Z" />
    </symbol>
    <symbol id="icon-grid-bottom" viewBox="0 0 16 16">
      <path d="M6 0H1C0.4 0 0 0.4 0 1V6C0 6.6 0.4 7 1 7H6C6.6 7 7 6.6 7 6V1C7 0.4 6.6 0 6 0Z" fill-opacity="0.25"/>
      <path d="M15 0H10C9.4 0 9 0.4 9 1V6C9 6.6 9.4 7 10 7H15C15.6 7 16 6.6 16 6V1C16 0.4 15.6 0 15 0Z" fill-opacity="0.25"/>
      <path d="M15 9H1C0.4 9 0 9.4 0 10V15C0 15.6 0.4 16 1 16H15C15.6 16 16 15.6 16 15V10C16 9.4 15.6 9 15 9Z"/>
    </symbol>
    <symbol id="icon-grid-bottom-left" viewBox="0 0 16 16">
      <path d="M6 0H1C0.4 0 0 0.4 0 1V6C0 6.6 0.4 7 1 7H6C6.6 7 7 6.6 7 6V1C7 0.4 6.6 0 6 0Z" fill-opacity="0.25"/>
      <path d="M15 0H10C9.4 0 9 0.4 9 1V6C9 6.6 9.4 7 10 7H15C15.6 7 16 6.6 16 6V1C16 0.4 15.6 0 15 0Z" fill-opacity="0.25"/>
      <path d="M6 9H1C0.4 9 0 9.4 0 10V15C0 15.6 0.4 16 1 16H6C6.6 16 7 15.6 7 15V10C7 9.4 6.6 9 6 9Z"/>
      <path d="M15 9H10C9.4 9 9 9.4 9 10V15C9 15.6 9.4 16 10 16H15C15.6 16 16 15.6 16 15V10C16 9.4 15.6 9 15 9Z" fill-opacity="0.25"/>
    </symbol>
    <symbol id="icon-grid-bottom-right" viewBox="0 0 16 16">
      <path d="M6 0H1C0.4 0 0 0.4 0 1V6C0 6.6 0.4 7 1 7H6C6.6 7 7 6.6 7 6V1C7 0.4 6.6 0 6 0Z" fill-opacity="0.25"/>
      <path d="M15 0H10C9.4 0 9 0.4 9 1V6C9 6.6 9.4 7 10 7H15C15.6 7 16 6.6 16 6V1C16 0.4 15.6 0 15 0Z" fill-opacity="0.25"/>
      <path d="M6 9H1C0.4 9 0 9.4 0 10V15C0 15.6 0.4 16 1 16H6C6.6 16 7 15.6 7 15V10C7 9.4 6.6 9 6 9Z" fill-opacity="0.25"/>
      <path d="M15 9H10C9.4 9 9 9.4 9 10V15C9 15.6 9.4 16 10 16H15C15.6 16 16 15.6 16 15V10C16 9.4 15.6 9 15 9Z"/>
    </symbol>
    <symbol id="icon-grid-full" viewBox="0 0 16 16">
      <path d="M15 0H1C0.4 0 0 0.4 0 1L0 15C0 15.6 0.4 16 1 16H15C15.6 16 16 15.6 16 15V1C16 0.4 15.6 0 15 0Z"/>
    </symbol>
    <symbol id="icon-grid-left" viewBox="0 0 16 16">
      <path d="M6 0H1C0.4 0 0 0.4 0 1V15C0 15.6 0.4 16 1 16H6C6.6 16 7 15.6 7 15V1C7 0.4 6.6 0 6 0Z"/>
      <path d="M15 0H10C9.4 0 9 0.4 9 1V6C9 6.6 9.4 7 10 7H15C15.6 7 16 6.6 16 6V1C16 0.4 15.6 0 15 0Z" fill-opacity="0.25"/>
      <path d="M15 9H10C9.4 9 9 9.4 9 10V15C9 15.6 9.4 16 10 16H15C15.6 16 16 15.6 16 15V10C16 9.4 15.6 9 15 9Z" fill-opacity="0.25"/>
    </symbol>
    <symbol id="icon-grid-right" viewBox="0 0 16 16">
      <path d="M6 0H1C0.4 0 0 0.4 0 1V6C0 6.6 0.4 7 1 7H6C6.6 7 7 6.6 7 6V1C7 0.4 6.6 0 6 0Z" fill-opacity="0.25"/>
      <path d="M6 9H1C0.4 9 0 9.4 0 10V15C0 15.6 0.4 16 1 16H6C6.6 16 7 15.6 7 15V10C7 9.4 6.6 9 6 9Z" fill-opacity="0.25"/>
      <path d="M15 0H10C9.4 0 9 0.4 9 1V15C9 15.6 9.4 16 10 16H15C15.6 16 16 15.6 16 15V1C16 0.4 15.6 0 15 0Z"/>
    </symbol>
    <symbol id="icon-grid-top" viewBox="0 0 16 16">
      <path d="M15 0L1 0C0.4 0 0 0.4 0 1V6C0 6.6 0.4 7 1 7H15C15.6 7 16 6.6 16 6V1C16 0.4 15.6 0 15 0Z"/>
      <path d="M6 9H1C0.4 9 0 9.4 0 10V15C0 15.6 0.4 16 1 16H6C6.6 16 7 15.6 7 15V10C7 9.4 6.6 9 6 9Z" fill-opacity="0.25"/>
      <path d="M15 9H10C9.4 9 9 9.4 9 10V15C9 15.6 9.4 16 10 16H15C15.6 16 16 15.6 16 15V10C16 9.4 15.6 9 15 9Z" fill-opacity="0.25"/>
    </symbol>
    <symbol id="icon-grid-top-left" viewBox="0 0 16 16">
      <path d="M6 0H1C0.4 0 0 0.4 0 1V6C0 6.6 0.4 7 1 7H6C6.6 7 7 6.6 7 6V1C7 0.4 6.6 0 6 0Z"/>
      <path d="M15 0H10C9.4 0 9 0.4 9 1V6C9 6.6 9.4 7 10 7H15C15.6 7 16 6.6 16 6V1C16 0.4 15.6 0 15 0Z" fill-opacity="0.25"/>
      <path d="M6 9H1C0.4 9 0 9.4 0 10V15C0 15.6 0.4 16 1 16H6C6.6 16 7 15.6 7 15V10C7 9.4 6.6 9 6 9Z" fill-opacity="0.25"/>
      <path d="M15 9H10C9.4 9 9 9.4 9 10V15C9 15.6 9.4 16 10 16H15C15.6 16 16 15.6 16 15V10C16 9.4 15.6 9 15 9Z" fill-opacity="0.25"/>
    </symbol>
    <symbol id="icon-grid-top-right" viewBox="0 0 16 16">
      <path d="M6 0H1C0.4 0 0 0.4 0 1V6C0 6.6 0.4 7 1 7H6C6.6 7 7 6.6 7 6V1C7 0.4 6.6 0 6 0Z" fill-opacity="0.25"/>
      <path d="M15 0H10C9.4 0 9 0.4 9 1V6C9 6.6 9.4 7 10 7H15C15.6 7 16 6.6 16 6V1C16 0.4 15.6 0 15 0Z"/>
      <path d="M6 9H1C0.4 9 0 9.4 0 10V15C0 15.6 0.4 16 1 16H6C6.6 16 7 15.6 7 15V10C7 9.4 6.6 9 6 9Z" fill-opacity="0.25"/>
      <path d="M15 9H10C9.4 9 9 9.4 9 10V15C9 15.6 9.4 16 10 16H15C15.6 16 16 15.6 16 15V10C16 9.4 15.6 9 15 9Z" fill-opacity="0.25"/>
    </symbol>
    <symbol id="icon-h1" viewBox="0 0 24 24">
			<path d="M13 20H11V13H4V20H2V4H4V11H11V4H13V20ZM21.0005 8V20H19.0005L19 10.204L17 10.74V8.67L19.5005 8H21.0005Z" />
    </symbol>
    <symbol id="icon-h2" viewBox="0 0 24 24">
			<path d="M4 4V11H11V4H13V20H11V13H4V20H2V4H4ZM18.5 8C20.5711 8 22.25 9.67893 22.25 11.75C22.25 12.6074 21.9623 13.3976 21.4781 14.0292L21.3302 14.2102L18.0343 18H22V20H15L14.9993 18.444L19.8207 12.8981C20.0881 12.5908 20.25 12.1893 20.25 11.75C20.25 10.7835 19.4665 10 18.5 10C17.5818 10 16.8288 10.7071 16.7558 11.6065L16.75 11.75H14.75C14.75 9.67893 16.4289 8 18.5 8Z" />
    </symbol>
    <symbol id="icon-h3" viewBox="0 0 24 24">
			<path d="M22 8L21.9984 10L19.4934 12.883C21.0823 13.3184 22.25 14.7728 22.25 16.5C22.25 18.5711 20.5711 20.25 18.5 20.25C16.674 20.25 15.1528 18.9449 14.8184 17.2166L16.7821 16.8352C16.9384 17.6413 17.6481 18.25 18.5 18.25C19.4665 18.25 20.25 17.4665 20.25 16.5C20.25 15.5335 19.4665 14.75 18.5 14.75C18.214 14.75 17.944 14.8186 17.7056 14.9403L16.3992 13.3932L19.3484 10H15V8H22ZM4 4V11H11V4H13V20H11V13H4V20H2V4H4Z"></path>
    </symbol>
    <symbol id="icon-h4" viewBox="0 0 24 24">
			<path d="M13 20H11V13H4V20H2V4H4V11H11V4H13V20ZM22 8V16H23.5V18H22V20H20V18H14.5V16.66L19.5 8H22ZM20 11.133L17.19 16H20V11.133Z"></path>
		</symbol>
    <symbol id="icon-h5" viewBox="0 0 24 24">
			<path d="M22 8V10H17.6769L17.2126 12.6358C17.5435 12.5472 17.8912 12.5 18.25 12.5C20.4591 12.5 22.25 14.2909 22.25 16.5C22.25 18.7091 20.4591 20.5 18.25 20.5C16.4233 20.5 14.8827 19.2756 14.4039 17.6027L16.3271 17.0519C16.5667 17.8881 17.3369 18.5 18.25 18.5C19.3546 18.5 20.25 17.6046 20.25 16.5C20.25 15.3954 19.3546 14.5 18.25 14.5C17.6194 14.5 17.057 14.7918 16.6904 15.2478L14.8803 14.3439L16 8H22ZM4 4V11H11V4H13V20H11V13H4V20H2V4H4Z"></path>
    </symbol>
    <symbol id="icon-h6" viewBox="0 0 24 24">
			<path d="M21.097 8L18.499 12.5C20.7091 12.5 22.5 14.2909 22.5 16.5C22.5 18.7091 20.7091 20.5 18.5 20.5C16.2909 20.5 14.5 18.7091 14.5 16.5C14.5 15.7636 14.699 15.0737 15.0461 14.4811L18.788 8H21.097ZM4 4V11H11V4H13V20H11V13H4V20H2V4H4ZM18.5 14.5C17.3954 14.5 16.5 15.3954 16.5 16.5C16.5 17.6046 17.3954 18.5 18.5 18.5C19.6046 18.5 20.5 17.6046 20.5 16.5C20.5 15.3954 19.6046 14.5 18.5 14.5Z"></path>
    </symbol>
    <symbol id="icon-headline" viewBox="0 0 16 16">
      <path d="M0 0v6h1l2-3h3v10l-3 2v1h10v-1l-3-2V3h3l2 3h1V0z" />
    </symbol>
    <symbol id="icon-heart" viewBox="0 0 16 16">
      <path d="M11.6,0C10.1,0,8.8,0.8,8,2C7.2,0.8,5.9,0,4.4,0C2,0,0,2,0,4.4c0,4.4,8,10.9,8,10.9s8-6.5,8-10.9 C16,2,14,0,11.6,0z"/>
    </symbol>
    <symbol id="icon-heart-outline" viewBox="0 0 16 16">
      <path d="M7.4,15.5C6.6,14.8,0,9.3,0,5.1c0-2.7,2.2-4.8,4.8-4.8C6,0.3,7.1,0.8,8,1.5c0.9-0.8,2-1.2,3.2-1.2 c2.7,0,4.8,2.2,4.8,4.8c0,4.2-6.6,9.7-7.4,10.3C8.3,15.8,7.7,15.8,7.4,15.5z M4.8,2.3C3.3,2.3,2,3.6,2,5.1c0,2.2,3.5,6,6,8.2 c2.1-1.9,6-5.8,6-8.2c0-1.6-1.3-2.8-2.8-2.8c-0.9,0-1.8,0.5-2.3,1.3c-0.4,0.6-1.3,0.6-1.7,0C6.6,2.8,5.8,2.3,4.8,2.3z" />
    </symbol>
    <symbol id="icon-hidden" viewBox="0 0 16 16">
      <path d="M14.574,5.669l-1.424,1.424C13.428,7.44,13.656,7.757,13.819,8c-0.76,1.13-2.85,3.82-5.561,3.985L6.443,13.8 C6.939,13.924,7.457,14,8,14c4.707,0,7.744-5.284,7.871-5.508c0.171-0.304,0.172-0.676,0.001-0.98 C15.825,7.427,15.372,6.631,14.574,5.669z" />
      <path d="M0.293,15.707C0.488,15.902,0.744,16,1,16s0.512-0.098,0.707-0.293l14-14c0.391-0.391,0.391-1.023,0-1.414 s-1.023-0.391-1.414,0l-2.745,2.745C10.515,2.431,9.331,2,8,2C3.245,2,0.251,7.289,0.126,7.514 c-0.169,0.303-0.168,0.672,0.002,0.975c0.07,0.125,1.044,1.802,2.693,3.276l-2.529,2.529C-0.098,14.684-0.098,15.316,0.293,15.707z M2.181,7.999C2.958,6.835,5.146,4,8,4c0.742,0,1.437,0.201,2.078,0.508L8.512,6.074C8.348,6.029,8.178,6,8,6C6.895,6,6,6.895,6,8 c0,0.178,0.029,0.348,0.074,0.512L4.24,10.346C3.285,9.51,2.559,8.562,2.181,7.999z" />
    </symbol>
    <symbol id="icon-home" viewBox="0 0 24 24">
			<path d="M19 21.0001H5C4.44772 21.0001 4 20.5524 4 20.0001V11.0001L1 11.0001L11.3273 1.61162C11.7087 1.26488 12.2913 1.26488 12.6727 1.61162L23 11.0001L20 11.0001V20.0001C20 20.5524 19.5523 21.0001 19 21.0001ZM13 19.0001H18V9.15757L12 3.70302L6 9.15757V19.0001H11V13.0001H13V19.0001Z"></path>
    </symbol>
    <symbol id="icon-image" viewBox="0 0 24 24">
			<path d="M2.9918 21C2.44405 21 2 20.5551 2 20.0066V3.9934C2 3.44476 2.45531 3 2.9918 3H21.0082C21.556 3 22 3.44495 22 3.9934V20.0066C22 20.5552 21.5447 21 21.0082 21H2.9918ZM20 15V5H4V19L14 9L20 15ZM20 17.8284L14 11.8284L6.82843 19H20V17.8284ZM8 11C6.89543 11 6 10.1046 6 9C6 7.89543 6.89543 7 8 7C9.10457 7 10 7.89543 10 9C10 10.1046 9.10457 11 8 11Z" />
    </symbol>
    <symbol id="icon-images" viewBox="0 0 16 16">
      <path d="M15,4H1A.945.945,0,0,0,0,5V15a.945.945,0,0,0,1,1H15a.945.945,0,0,0,1-1V5A.945.945,0,0,0,15,4ZM14,14H2V6H14Z" />
      <rect x="2" width="12" height="2" />
      <polygon points="5 13 10 8 13 13 5 13" />
      <circle cx="5" cy="9" r="1" />
    </symbol>
    <symbol id="icon-import" viewBox="0 0 16 16">
      <use href="#icon-download" />
    </symbol>
    <symbol id="icon-info" viewBox="0 0 24 24">
			<path d="M12 22C6.47715 22 2 17.5228 2 12C2 6.47715 6.47715 2 12 2C17.5228 2 22 6.47715 22 12C22 17.5228 17.5228 22 12 22ZM12 20C16.4183 20 20 16.4183 20 12C20 7.58172 16.4183 4 12 4C7.58172 4 4 7.58172 4 12C4 16.4183 7.58172 20 12 20ZM11 7H13V9H11V7ZM11 11H13V17H11V11Z"></path>
    </symbol>
    <symbol id="icon-instagram" viewBox="0 0 16 16">
      <path d="M13.105 3.892a.96.96 0 1 1-1.92 0 .96.96 0 0 1 1.92 0zM8 12c-2.206 0-4-1.794-4-4s1.794-4 4-4 4 1.794 4 4-1.794 4-4 4zm0-6c-1.103 0-2 .897-2 2s.897 2 2 2 2-.897 2-2-.897-2-2-2z" />
      <path d="M12 16H4c-2.056 0-4-1.944-4-4V4c0-2.056 1.944-4 4-4h8c2.056 0 4 1.944 4 4v8c0 2.056-1.944 4-4 4zM4 2c-.935 0-2 1.065-2 2v8c0 .953 1.047 2 2 2h8c.935 0 2-1.065 2-2V4c0-.935-1.065-2-2-2H4z" />
    </symbol>
    <symbol id="icon-italic" viewBox="0 0 24 24">
			<path d="M15 20H7V18H9.92661L12.0425 6H9V4H17V6H14.0734L11.9575 18H15V20Z"></path>
    </symbol>
    <symbol id="icon-key" viewBox="0 0 24 24">
			<path d="M10.7577 11.8279L18.6066 3.979L20.0208 5.39322L18.6066 6.80743L21.0815 9.28231L19.6673 10.6965L17.1924 8.22164L15.7782 9.63586L17.8995 11.7572L16.4853 13.1714L14.364 11.0501L12.1719 13.2421C13.4581 15.1835 13.246 17.8249 11.5355 19.5354C9.58291 21.488 6.41709 21.488 4.46447 19.5354C2.51184 17.5827 2.51184 14.4169 4.46447 12.4643C6.17493 10.7538 8.81633 10.5417 10.7577 11.8279ZM10.1213 18.1211C11.2929 16.9496 11.2929 15.0501 10.1213 13.8785C8.94975 12.7069 7.05025 12.7069 5.87868 13.8785C4.70711 15.0501 4.70711 16.9496 5.87868 18.1211C7.05025 19.2927 8.94975 19.2927 10.1213 18.1211Z"></path>
    </symbol>
    <symbol id="icon-layers" viewBox="0 0 16 16">
      <path d="M8,6H1C0.4,6,0,6.4,0,7v8c0,0.6,0.4,1,1,1h7c0.6,0,1-0.4,1-1V7C9,6.4,8.6,6,8,6z"/>
      <path d="M11,3H3v2h7v8h2V4C12,3.4,11.6,3,11,3z"/>
      <path d="M14,0H6v2h7v8h2V1C15,0.4,14.6,0,14,0z"/>
    </symbol>
    <symbol id="icon-linkedin" viewBox="0 0 16 16">
      <path d="M15.3,0H0.7C0.3,0,0,0.3,0,0.7v14.7C0,15.7,0.3,16,0.7,16h14.7c0.4,0,0.7-0.3,0.7-0.7V0.7 C16,0.3,15.7,0,15.3,0z M4.7,13.6H2.4V6h2.4V13.6z M3.6,5C2.8,5,2.2,4.3,2.2,3.6c0-0.8,0.6-1.4,1.4-1.4c0.8,0,1.4,0.6,1.4,1.4 C4.9,4.3,4.3,5,3.6,5z M13.6,13.6h-2.4V9.9c0-0.9,0-2-1.2-2c-1.2,0-1.4,1-1.4,2v3.8H6.2V6h2.3v1h0c0.3-0.6,1.1-1.2,2.2-1.2 c2.4,0,2.8,1.6,2.8,3.6V13.6z"/>
    </symbol>
    <symbol id="icon-list-bullet" viewBox="0 0 24 24">
			<path d="M8 4H21V6H8V4ZM4.5 6.5C3.67157 6.5 3 5.82843 3 5C3 4.17157 3.67157 3.5 4.5 3.5C5.32843 3.5 6 4.17157 6 5C6 5.82843 5.32843 6.5 4.5 6.5ZM4.5 13.5C3.67157 13.5 3 12.8284 3 12C3 11.1716 3.67157 10.5 4.5 10.5C5.32843 10.5 6 11.1716 6 12C6 12.8284 5.32843 13.5 4.5 13.5ZM4.5 20.4C3.67157 20.4 3 19.7284 3 18.9C3 18.0716 3.67157 17.4 4.5 17.4C5.32843 17.4 6 18.0716 6 18.9C6 19.7284 5.32843 20.4 4.5 20.4ZM8 11H21V13H8V11ZM8 18H21V20H8V18Z"></path>
    </symbol>
    <symbol id="icon-list-numbers" viewBox="0 0 24 24">
			<path d="M5.75024 3.5H4.71733L3.25 3.89317V5.44582L4.25002 5.17782L4.25018 8.5H3V10H7V8.5H5.75024V3.5ZM10 4H21V6H10V4ZM10 11H21V13H10V11ZM10 18H21V20H10V18ZM2.875 15.625C2.875 14.4514 3.82639 13.5 5 13.5C6.17361 13.5 7.125 14.4514 7.125 15.625C7.125 16.1106 6.96183 16.5587 6.68747 16.9167L6.68271 16.9229L5.31587 18.5H7V20H3.00012L2.99959 18.8786L5.4717 16.035C5.5673 15.9252 5.625 15.7821 5.625 15.625C5.625 15.2798 5.34518 15 5 15C4.67378 15 4.40573 15.2501 4.37747 15.5688L4.3651 15.875H2.875V15.625Z"></path>
    </symbol>
    <symbol id="icon-live" viewBox="0 0 16 16">
      <circle cx="8" cy="8" r="3" />
      <path d="M2,8c0-1.6,0.6-3.1,1.8-4.3c0.4-0.4,0.4-1,0-1.4c-0.4-0.4-1-0.4-1.4,0C0.9,3.8,0,5.8,0,8 c0,2.2,0.9,4.2,2.4,5.7C2.6,13.9,2.9,14,3.1,14c0.3,0,0.5-0.1,0.7-0.3c0.4-0.4,0.4-1,0-1.4C2.6,11.1,2,9.6,2,8z" />
      <path d="M13.6,2.3c-0.4-0.4-1-0.4-1.4,0c-0.4,0.4-0.4,1,0,1.4C13.4,4.9,14,6.4,14,8c0,1.6-0.6,3.1-1.8,4.3 c-0.4,0.4-0.4,1,0,1.4c0.2,0.2,0.5,0.3,0.7,0.3c0.3,0,0.5-0.1,0.7-0.3C15.1,12.2,16,10.2,16,8C16,5.8,15.1,3.8,13.6,2.3z" />
    </symbol>
    <symbol id="icon-loader" viewBox="0 0 24 24">
			<path d="M18.364 5.63604L16.9497 7.05025C15.683 5.7835 13.933 5 12 5C8.13401 5 5 8.13401 5 12C5 15.866 8.13401 19 12 19C15.866 19 19 15.866 19 12H21C21 16.9706 16.9706 21 12 21C7.02944 21 3 16.9706 3 12C3 7.02944 7.02944 3 12 3C14.4853 3 16.7353 4.00736 18.364 5.63604Z" />
    </symbol>
    <symbol id="icon-lock" viewBox="0 0 16 16">
      <path d="M8 0C5.8 0 4 1.8 4 4v1H2c-.6 0-1 .4-1 1v9c0 .6.4 1 1 1h12c.6 0 1-.4 1-1V6c0-.6-.4-1-1-1h-2V4c0-2.2-1.8-4-4-4zm1 11.7V13H7v-1.3c-.6-.3-1-1-1-1.7 0-1.1.9-2 2-2s2 .9 2 2c0 .7-.4 1.4-1 1.7zM10 5H6V4c0-1.1.9-2 2-2s2 .9 2 2v1z" />
    </symbol>
    <symbol id="icon-logout" viewBox="0 0 24 24">
			<path d="M5 22C4.44772 22 4 21.5523 4 21V3C4 2.44772 4.44772 2 5 2H19C19.5523 2 20 2.44772 20 3V6H18V4H6V20H18V18H20V21C20 21.5523 19.5523 22 19 22H5ZM18 16V13H11V11H18V8L23 12L18 16Z"></path>
    </symbol>
    <symbol id="icon-map" viewBox="0 0 16 16">
      <path d="M14.6,0.1L10,1.9L6.4,0.1C6.2,0,5.9,0,5.6,0.1l-5,2C0.2,2.2,0,2.6,0,3v12c0,0.7,0.7,1.2,1.4,0.9L6,14.1 l3.6,1.8c0.3,0.1,0.5,0.1,0.8,0l5-1.9c0.4-0.1,0.6-0.5,0.6-0.9V1C16,0.3,15.3-0.2,14.6,0.1z M7,2.6l2,1v9.8l-2-1V2.6z M2,3.7l3-1.2 v9.8l-3,1.2V3.7z M14,12.4l-3,1.1V3.7l3-1.2V12.4z"/>
    </symbol>
    <symbol id="icon-markdown" viewBox="0 0 24 24">
			<path d="M3 3H21C21.5523 3 22 3.44772 22 4V20C22 20.5523 21.5523 21 21 21H3C2.44772 21 2 20.5523 2 20V4C2 3.44772 2.44772 3 3 3ZM4 5V19H20V5H4ZM7 15.5H5V8.5H7L9 10.5L11 8.5H13V15.5H11V11.5L9 13.5L7 11.5V15.5ZM18 12.5H20L17 15.5L14 12.5H16V8.5H18V12.5Z"></path>
    </symbol>
    <symbol id="icon-mastodon" viewBox="0 0 16 16">
			<path d="M14.943 3.935c-.215-1.591-1.612-2.845-3.268-3.088-.28-.041-1.338-.19-3.79-.19h-.019c-2.453 0-2.979.148-3.258.19-1.61.236-3.08 1.363-3.437 2.973-.172.793-.19 1.672-.158 2.478.045 1.157.054 2.311.16 3.463.073.765.2 1.524.382 2.27.339 1.38 1.711 2.53 3.056 2.998 1.44.488 2.988.57 4.472.234.163-.038.325-.081.484-.131.36-.114.783-.241 1.093-.465a.036.036 0 0 0 .015-.027v-1.116a.033.033 0 0 0-.041-.031c-.951.225-1.925.338-2.902.336-1.682 0-2.134-.792-2.264-1.122a3.463 3.463 0 0 1-.196-.884.032.032 0 0 1 .04-.033c.935.224 1.893.337 2.855.336.231 0 .461 0 .693-.006.967-.027 1.986-.076 2.938-.26l.067-.015c1.501-.286 2.93-1.184 3.075-3.458.005-.09.018-.938.018-1.03.001-.316.103-2.24-.015-3.422Zm-2.31 5.674h-1.578V5.772c0-.808-.339-1.22-1.028-1.22-.758 0-1.138.488-1.138 1.45v2.1H7.32v-2.1c0-.962-.38-1.45-1.138-1.45-.686 0-1.029.412-1.03 1.22v3.837H3.577V5.656c0-.808.208-1.45.623-1.926.429-.474.991-.718 1.689-.718.808 0 1.418.308 1.825.924l.393.655.393-.655c.407-.616 1.017-.924 1.823-.924.698 0 1.26.244 1.69.718.415.475.623 1.117.623 1.926l-.002 3.953Z"/>
    </symbol>
		<symbol id="icon-merge" viewBox="0 0 16 16">
      <path d="M11.5,5a.5.5,0,0,0,.376-.829l-3.5-4a.516.516,0,0,0-.752,0l-3.5,4A.5.5,0,0,0,4.5,5H7V9.586L2.293,14.293a1,1,0,1,0,1.414,1.414l5-5A1,1,0,0,0,9,10V5Z" /><path d="M13.707,14.293l-2.458-2.458a1,1,0,0,0-1.415,1.414l2.459,2.458a1,1,0,0,0,1.414-1.414Z" />
    </symbol>
    <symbol id="icon-menu" viewBox="0 0 16 16">
      <path d="M0 0h16v3H0V0zM0 6h16v3H0V6zM0 12h16v3H0v-3z" />
    </symbol>
    <symbol id="icon-mobile" viewBox="0 0 16 16">
      <path d="M12,0H4C2.897,0,2,0.897,2,2v12c0,1.103,0.897,2,2,2h8c1.103,0,2-0.897,2-2V2C14,0.897,13.103,0,12,0z M8,14 c-0.552,0-1-0.448-1-1s0.448-1,1-1s1,0.448,1,1S8.552,14,8,14z M12,10H4V2h8V10z" />
    </symbol>
    <symbol id="icon-money" viewBox="0 0 16 16">
      <path d="M15,2H1C0.4,2,0,2.4,0,3v10c0,0.6,0.4,1,1,1h14c0.6,0,1-0.4,1-1V3C16,2.4,15.6,2,15,2z M11.1,12H4.9 C4.5,10.6,3.4,9.5,2,9.1V6.9C3.4,6.5,4.5,5.4,4.9,4h6.3c0.4,1.4,1.5,2.5,2.9,2.9v2.3C12.6,9.5,11.5,10.6,11.1,12z" />
      <circle cx="8" cy="8" r="2" />
    </symbol>
    <symbol id="icon-moon" viewBox="0 0 16 16">
      <path d="M5.2,2C2.2,2.8,0,5.6,0,8.9C0,12.8,3.2,16,7.1,16c3.3,0,6-2.2,6.9-5.2C8.7,12.2,3.8,7.3,5.2,2z" />
      <circle cx="10" cy="1" r="1" />
      <circle cx="15" cy="7" r="1" />
      <circle cx="10" cy="6" r="1" />
    </symbol>
    <symbol id="icon-open" viewBox="0 0 24 24">
			<path d="M10 3V5H5V19H19V14H21V20C21 20.5523 20.5523 21 20 21H4C3.44772 21 3 20.5523 3 20V4C3 3.44772 3.44772 3 4 3H10ZM17.5858 5H13V3H21V11H19V6.41421L12 13.4142L10.5858 12L17.5858 5Z"></path>
    </symbol>
    <symbol id="icon-order-alpha-asc" viewBox="0 0 16 16">
      <path d="M5.473,7,5.13,5.693H2.865L2.512,7H.442L2.717,0H5.23l2.3,7ZM4.739,4.149,4.438,3c-.069-.255-.155-.584-.255-.987s-.166-.693-.2-.868q-.042.243-.169.8t-.56,2.2Z" />
      <path d="M6.714,16H1.261V14.831l3.031-4.3H1.333V9H6.638v1.164L3.607,14.473H6.714Z" />
      <polygon points="13 11 13 0 11 0 11 11 8 11 12 16 16 11 13 11" />
    </symbol>
    <symbol id="icon-order-alpha-desc" viewBox="0 0 16 16">
      <path d="M5.031 7L4.688 5.693H2.423L2.07 7H0L2.275 0H4.788L7.088 7H5.031ZM4.297 4.149L3.996 3C3.927 2.745 3.841 2.416 3.741 2.013C3.641 1.61 3.575 1.32 3.541 1.145C3.513 1.307 3.45667 1.57367 3.372 1.945C3.28733 2.31633 3.10067 3.04967 2.812 4.145L4.297 4.149Z" />
      <path d="M6.453 16H1V14.831L4.031 10.531H1.072V9H6.377V10.164L3.346 14.473H6.453V16Z" />
      <path d="M11 5L11 16L13 16L13 5L16 5L12 -3.49691e-07L8 5L11 5Z" />
    </symbol>
    <symbol id="icon-order-num-asc" viewBox="0 0 16 16">
      <path d="M13 11L13 -1.52588e-05L11 -1.52588e-05L11 11H8L12 16L16 11L13 11Z" />
      <path d="M5.17 0.2V7H3.25V2.08L1.86 2.93L1 1.64L3.41 0.2H5.17Z" />
      <path d="M3.88 9.04C4.46667 9.04 4.96667 9.15333 5.38 9.38C5.79333 9.6 6.10333 9.91 6.31 10.31C6.51667 10.7033 6.62 11.1567 6.62 11.67C6.62 12.5833 6.45667 13.3533 6.13 13.98C5.80333 14.6067 5.3 15.11 4.62 15.49C3.94667 15.87 3.08 16.1467 2.02 16.32L1.63 14.96C2.21667 14.8333 2.69 14.6967 3.05 14.55C3.41 14.4033 3.7 14.2233 3.92 14.01C4.14667 13.79 4.32667 13.51 4.46 13.17C4.27333 13.3567 4.07667 13.4933 3.87 13.58C3.67 13.6667 3.42333 13.71 3.13 13.71C2.77 13.71 2.44 13.62 2.14 13.44C1.84 13.2533 1.6 12.99 1.42 12.65C1.24 12.3033 1.15 11.9 1.15 11.44C1.15 10.9733 1.26667 10.56 1.5 10.2C1.74 9.83333 2.06667 9.55 2.48 9.35C2.9 9.14333 3.36667 9.04 3.88 9.04ZM3.79 12.37C3.93667 12.37 4.08 12.3333 4.22 12.26C4.36 12.1867 4.48333 12.0733 4.59 11.92C4.59667 11.5333 4.57667 11.2333 4.53 11.02C4.49 10.8 4.41667 10.6433 4.31 10.55C4.21 10.45 4.06 10.4 3.86 10.4C3.64 10.4 3.46333 10.48 3.33 10.64C3.19667 10.8 3.13 11.0333 3.13 11.34C3.13 12.0267 3.35 12.37 3.79 12.37Z" />
    </symbol>
    <symbol id="icon-order-num-desc" viewBox="0 0 16 16">
      <path d="M11 5L11 16L13 16L13 5L16 5L12 -3.49691e-07L8 5L11 5Z"/>
      <path d="M5.17 0.2V7H3.25V2.08L1.86 2.93L1 1.64L3.41 0.2H5.17Z"/>
      <path d="M3.88 9.04C4.46667 9.04 4.96667 9.15333 5.38 9.38C5.79333 9.6 6.10333 9.91 6.31 10.31C6.51667 10.7033 6.62 11.1567 6.62 11.67C6.62 12.5833 6.45667 13.3533 6.13 13.98C5.80333 14.6067 5.3 15.11 4.62 15.49C3.94667 15.87 3.08 16.1467 2.02 16.32L1.63 14.96C2.21667 14.8333 2.69 14.6967 3.05 14.55C3.41 14.4033 3.7 14.2233 3.92 14.01C4.14667 13.79 4.32667 13.51 4.46 13.17C4.27333 13.3567 4.07667 13.4933 3.87 13.58C3.67 13.6667 3.42333 13.71 3.13 13.71C2.77 13.71 2.44 13.62 2.14 13.44C1.84 13.2533 1.6 12.99 1.42 12.65C1.24 12.3033 1.15 11.9 1.15 11.44C1.15 10.9733 1.26667 10.56 1.5 10.2C1.74 9.83333 2.06667 9.55 2.48 9.35C2.9 9.14333 3.36667 9.04 3.88 9.04ZM3.79 12.37C3.93667 12.37 4.08 12.3333 4.22 12.26C4.36 12.1867 4.48333 12.0733 4.59 11.92C4.59667 11.5333 4.57667 11.2333 4.53 11.02C4.49 10.8 4.41667 10.6433 4.31 10.55C4.21 10.45 4.06 10.4 3.86 10.4C3.64 10.4 3.46333 10.48 3.33 10.64C3.19667 10.8 3.13 11.0333 3.13 11.34C3.13 12.0267 3.35 12.37 3.79 12.37Z"/>
    </symbol>
    <symbol id="icon-page" viewBox="0 0 24 24">
			<path d="M9 2.00318V2H19.9978C20.5513 2 21 2.45531 21 2.9918V21.0082C21 21.556 20.5551 22 20.0066 22H3.9934C3.44476 22 3 21.5501 3 20.9932V8L9 2.00318ZM5.82918 8H9V4.83086L5.82918 8ZM11 4V9C11 9.55228 10.5523 10 10 10H5V20H19V4H11Z"></path>
    </symbol>
    <symbol id="icon-palette" viewBox="0 0 16 16">
      <path d="M13.9,3.8c-3.6-1.7-6.6,1.8-8,0c-0.5-0.7,0.7-2,0-2.9c-0.5-0.6-1.7-0.5-2.4,0C1.4,2.4,0,4.8,0,7.5 c0,4.4,3.6,8,8,8c3.7,0,6.8-2.5,7.7-5.9C16.1,8.5,16.5,5.1,13.9,3.8z M3,8C2.4,8,2,7.6,2,7c0-0.6,0.4-1,1-1s1,0.4,1,1 C4,7.6,3.6,8,3,8z M5,12c-0.6,0-1-0.4-1-1c0-0.6,0.4-1,1-1s1,0.4,1,1C6,11.6,5.6,12,5,12z M9,14c-0.6,0-1-0.4-1-1c0-0.6,0.4-1,1-1 s1,0.4,1,1C10,13.6,9.6,14,9,14z M12,10c-1.1,0-2-0.9-2-2c0-1.1,0.9-2,2-2s2,0.9,2,2C14,9.1,13.1,10,12,10z" />
    </symbol>
    <symbol id="icon-paragraph" viewBox="0 0 24 24">
			<path d="M12 6V21H10V16C6.68629 16 4 13.3137 4 10C4 6.68629 6.68629 4 10 4H20V6H17V21H15V6H12ZM10 6C7.79086 6 6 7.79086 6 10C6 12.2091 7.79086 14 10 14V6Z"></path>
    </symbol>
    <symbol id="icon-parent" viewBox="0 0 16 16">
      <path d="M14,6H3.4l4-4L6,0.6L0.3,6.3c-0.4,0.4-0.4,1,0,1.4L6,13.4L7.4,12l-4-4H13v7h2V7C15,6.4,14.6,6,14,6z" />
    </symbol>
    <symbol id="icon-paypal" viewBox="0 0 16 16">
      <path d="M12.8,1.2C12,0.4,10.7,0,9,0H4C3.6,0,3.4,0.3,3.3,0.6L1.2,13.7c0,0.3,0.2,0.5,0.4,0.5h3.1l0.7-4.7 c0.1-0.3,0.4-0.6,0.7-0.6h1.5c2.9,0,5.1-1.2,5.8-4.5C13.4,4.3,13.7,2.3,12.8,1.2z" />
      <path d="M14.3,4.8c-0.8,3.3-3,5.1-6.7,5.1H6.4L5.5,16h2c0.3,0,0.6-0.2,0.6-0.5l0.5-3.2l0-0.2c0.1-0.6,1-0.5,1-0.5 c2.5,0,4.5-1,5-4C14.9,6.5,14.8,5.5,14.3,4.8z" />
    </symbol>
    <symbol id="icon-pen" viewBox="0 0 16 16">
      <path d="M15.207,8.793l-5.5-5.5c-0.391-0.391-1.023-0.391-1.414,0l-7,7c-0.128,0.128-0.219,0.289-0.263,0.464l-1,4 c-0.085,0.341,0.015,0.701,0.263,0.95C0.483,15.897,0.738,16,1,16c0.081,0,0.162-0.01,0.243-0.03l4-1 c0.176-0.044,0.336-0.135,0.464-0.263L12,8.414L13.086,9.5l-3.293,3.293c-0.391,0.391-0.391,1.023,0,1.414 c0.391,0.391,1.023,0.391,1.414,0l4-4C15.598,9.816,15.598,9.184,15.207,8.793z"></path> <path d="M11.121,1.879l3,3l1.258-1.258c0.828-0.828,0.828-2.172,0-3v0c-0.828-0.828-2.172-0.828-3,0 L11.121,1.879L11.121,1.879z" />
    </symbol>
    <symbol id="icon-phone" viewBox="0 0 16 16">
      <path d="M15.285 12.305l-2.578-2.594a1 1 0 0 0-1.416-.002L9 12 4 7l2.294-2.294a1 1 0 0 0 .001-1.414L3.715.708a1 1 0 0 0-1.415 0L.004 3.003 0 3c0 7.18 5.82 13 13 13l2.283-2.283a1 1 0 0 0 .002-1.412z" />
    </symbol>
    <symbol id="icon-pin" viewBox="0 0 16 16">
      <circle cx="8" cy="7" r="2" />
      <path d="M7.3,15.7c-0.1-0.1-4.2-3.7-4.2-3.8C1.7,10.7,1,8.9,1,7c0-3.9,3.1-7,7-7s7,3.1,7,7c0,1.9-0.7,3.7-2.1,5 c-0.1,0.1-4.1,3.7-4.2,3.8C8.3,16.1,7.7,16.1,7.3,15.7z M4.6,10.7l3.4,3l3.4-3c0,0,0,0,0,0c1-1,1.6-2.2,1.6-3.6c0-2.8-2.2-5-5-5 S3,4.2,3,7C3,8.4,3.6,9.7,4.6,10.7C4.6,10.6,4.6,10.6,4.6,10.7z" />
    </symbol>
    <symbol id="icon-pinterest" viewBox="0 0 16 16">
      <path d="M8 0C3.6 0 0 3.6 0 8c0 3.4 2.1 6.3 5.1 7.4-.1-.6-.1-1.6 0-2.3.1-.6.9-4 .9-4s-.2-.4-.2-1.1c0-1.1.7-2 1.5-2 .7 0 1 .5 1 1.1 0 .7-.4 1.7-.7 2.7-.2.8.4 1.4 1.2 1.4 1.4 0 2.5-1.5 2.5-3.7 0-1.9-1.4-3.3-3.3-3.3-2.3 0-3.6 1.7-3.6 3.5 0 .7.3 1.4.6 1.8v.4c-.1.3-.2.8-.2.9s-.1.2-.3.1c-1-.5-1.6-1.9-1.6-3.1C2.9 5.3 4.7 3 8.2 3c2.8 0 4.9 2 4.9 4.6 0 2.8-1.7 5-4.2 5-.8 0-1.6-.4-1.8-.9 0 0-.4 1.5-.5 1.9-.2.7-.7 1.6-1 2.1.8.2 1.6.3 2.4.3 4.4 0 8-3.6 8-8s-3.6-8-8-8z" />
    </symbol>
    <symbol id="icon-pipette" viewBox="0 0 24 24">
			<path d="M6.45711 18.954L15.0208 10.3903L13.6066 8.97608L5.04289 17.5398L6.45711 18.954ZM12.1924 7.56186L10.7782 6.14765L12.1924 4.73344L13.9602 6.5012L16.7886 3.67278C17.1791 3.28225 17.8123 3.28225 18.2028 3.67278L20.3241 5.7941C20.7146 6.18462 20.7146 6.81779 20.3241 7.20831L17.4957 10.0367L19.2635 11.8045L17.8492 13.2187L16.435 11.8045L7.24264 20.9969H3V16.7543L12.1924 7.56186Z"></path>
    </symbol>
    <symbol id="icon-plane" viewBox="0 0 16 16">
			<path d="M15.707,.293c-.273-.272-.68-.365-1.043-.234L.664,5.059C.287,5.193,.026,5.54,.002,5.939c-.024,.4,.192,.775,.551,.955l4.586,2.292,4.641-3.314c.23-.164,.513,.119,.349,.349l-3.315,4.642,2.292,4.586c.171,.339,.518,.552,.895,.552,.021,0,.041-.001,.061-.002,.4-.024,.747-.284,.882-.662L15.943,1.336c.129-.363,.037-.77-.236-1.043Z" />
    </symbol>
    <symbol id="icon-play" viewBox="0 0 16 16">
      <path d="M13.6,7.2l-10-7C2.9-0.3,2,0.2,2,1v14c0,0.8,0.9,1.3,1.6,0.8l10-7C14.1,8.4,14.1,7.6,13.6,7.2z" />
    </symbol>
    <symbol id="icon-plus" viewBox="0 0 16 16">
			<path d="M11.5,7H9V4.5A.5.5,0,0,0,8.5,4h-1a.5.5,0,0,0-.5.5V7H4.5a.5.5,0,0,0-.5.5v1a.5.5,0,0,0,.5.5H7v2.5a.5.5,0,0,0,.5.5h1a.5.5,0,0,0,.5-.5V9h2.5a.5.5,0,0,0,.5-.5v-1A.5.5,0,0,0,11.5,7Z" />
    </symbol>
    <symbol id="icon-preview" viewBox="0 0 24 24">
			<path d="M12.0003 3C17.3924 3 21.8784 6.87976 22.8189 12C21.8784 17.1202 17.3924 21 12.0003 21C6.60812 21 2.12215 17.1202 1.18164 12C2.12215 6.87976 6.60812 3 12.0003 3ZM12.0003 19C16.2359 19 19.8603 16.052 20.7777 12C19.8603 7.94803 16.2359 5 12.0003 5C7.7646 5 4.14022 7.94803 3.22278 12C4.14022 16.052 7.7646 19 12.0003 19ZM12.0003 16.5C9.51498 16.5 7.50026 14.4853 7.50026 12C7.50026 9.51472 9.51498 7.5 12.0003 7.5C14.4855 7.5 16.5003 9.51472 16.5003 12C16.5003 14.4853 14.4855 16.5 12.0003 16.5ZM12.0003 14.5C13.381 14.5 14.5003 13.3807 14.5003 12C14.5003 10.6193 13.381 9.5 12.0003 9.5C10.6196 9.5 9.50026 10.6193 9.50026 12C9.50026 13.3807 10.6196 14.5 12.0003 14.5Z"></path>
    </symbol>
    <symbol id="icon-print" viewBox="0 0 16 16">
      <rect x="3" width="10" height="3" />
      <path d="M15,5H1C0.4,5,0,5.4,0,6v6c0,0.6,0.4,1,1,1h2v2c0,0.6,0.4,1,1,1h8c0.6,0,1-0.4,1-1v-2h2c0.6,0,1-0.4,1-1V6 C16,5.4,15.6,5,15,5z M11,14H5V9h6V14z" />
    </symbol>
    <symbol id="icon-protected" viewBox="0 0 16 16">
      <path d="M8,0C3.6,0,0,3.6,0,8s3.6,8,8,8s8-3.6,8-8S12.4,0,8,0z M8,2c1.3,0,2.5,0.4,3.5,1.1l-8.4,8.4 C2.4,10.5,2,9.3,2,8C2,4.7,4.7,2,8,2z M8,14c-1.3,0-2.5-0.4-3.5-1.1l8.4-8.4C13.6,5.5,14,6.7,14,8C14,11.3,11.3,14,8,14z" />
    </symbol>
    <symbol id="icon-qr-code" viewBox="0 0 16 16">
      <path d="M6,7H1C0.4,7,0,6.6,0,6V1c0-0.6,0.4-1,1-1h5c0.6,0,1,0.4,1,1v5C7,6.6,6.6,7,6,7z M2,5h3V2H2V5z" />
      <path d="M6,16H1c-0.6,0-1-0.4-1-1v-5c0-0.6,0.4-1,1-1h5c0.6,0,1,0.4,1,1v5C7,15.6,6.6,16,6,16z M2,14 h3v-3H2V14z" />
      <path d="M15,7h-5C9.4,7,9,6.6,9,6V1c0-0.6,0.4-1,1-1h5c0.6,0,1,0.4,1,1v5C16,6.6,15.6,7,15,7z M11,5 h3V2h-3V5z" />
      <rect x="3" y="3" width="1" height="1" />
      <rect x="3" y="12" width="1" height="1" />
      <rect x="9" y="14" width="7" height="2" />
      <path d="M16,13h-2v-2h-3V9h4c0.6,0,1,0.4,1,1V13z" />
      <rect x="12" y="12" width="1" height="1" />
      <rect x="12" y="3" width="1" height="1" />
    </symbol>
    <symbol id="icon-question" viewBox="0 0 24 24">
			<path d="M12 22C6.47715 22 2 17.5228 2 12C2 6.47715 6.47715 2 12 2C17.5228 2 22 6.47715 22 12C22 17.5228 17.5228 22 12 22ZM12 20C16.4183 20 20 16.4183 20 12C20 7.58172 16.4183 4 12 4C7.58172 4 4 7.58172 4 12C4 16.4183 7.58172 20 12 20ZM11 15H13V17H11V15ZM13 13.3551V14H11V12.5C11 11.9477 11.4477 11.5 12 11.5C12.8284 11.5 13.5 10.8284 13.5 10C13.5 9.17157 12.8284 8.5 12 8.5C11.2723 8.5 10.6656 9.01823 10.5288 9.70577L8.56731 9.31346C8.88637 7.70919 10.302 6.5 12 6.5C13.933 6.5 15.5 8.067 15.5 10C15.5 11.5855 14.4457 12.9248 13 13.3551Z"></path>
    </symbol>
    <symbol id="icon-quote" viewBox="0 0 24 24">
			<path d="M4.58341 17.3211C3.55316 16.2275 3 15 3 13.0104C3 9.51092 5.45651 6.37372 9.03059 4.82324L9.92328 6.20085C6.58804 8.00545 5.93618 10.3461 5.67564 11.8221C6.21263 11.5444 6.91558 11.4467 7.60471 11.5106C9.40908 11.6778 10.8312 13.1591 10.8312 15C10.8312 16.933 9.26416 18.5 7.33116 18.5C6.2581 18.5 5.23196 18.0096 4.58341 17.3211ZM14.5834 17.3211C13.5532 16.2275 13 15 13 13.0104C13 9.51092 15.4565 6.37372 19.0306 4.82324L19.9233 6.20085C16.588 8.00545 15.9362 10.3461 15.6756 11.8221C16.2126 11.5444 16.9156 11.4467 17.6047 11.5106C19.4091 11.6778 20.8312 13.1591 20.8312 15C20.8312 16.933 19.2642 18.5 17.3312 18.5C16.2581 18.5 15.232 18.0096 14.5834 17.3211Z"></path>
    </symbol>
    <symbol id="icon-refresh" viewBox="0 0 24 24">
			<path d="M12 4C9.25144 4 6.82508 5.38626 5.38443 7.5H8V9.5H2V3.5H4V5.99936C5.82381 3.57166 8.72764 2 12 2C17.5228 2 22 6.47715 22 12H20C20 7.58172 16.4183 4 12 4ZM4 12C4 16.4183 7.58172 20 12 20C14.7486 20 17.1749 18.6137 18.6156 16.5H16V14.5H22V20.5H20V18.0006C18.1762 20.4283 15.2724 22 12 22C6.47715 22 2 17.5228 2 12H4Z"></path>
    </symbol>
    <symbol id="icon-road-sign" viewBox="0 0 16 16">
      <path d="M9,10v5c0,0.6-0.4,1-1,1H6c-0.6,0-1-0.4-1-1v-5H9z" />
      <path d="M13,2l3,3l-3,3H1C0.4,8,0,7.6,0,7l0-4c0-0.6,0.4-1,1-1H13z" />
      <path d="M6,0l2,0c0.6,0,1,0.4,1,1v1H5V1C5,0.4,5.4,0,6,0z" />
    </symbol>
    <symbol id="icon-remove" viewBox="0 0 16 16">
      <rect x="4" y="7" width="8" height="2" />
      <path d="M8,0C3.6,0,0,3.6,0,8s3.6,8,8,8s8-3.6,8-8S12.4,0,8,0z M8,14c-3.3,0-6-2.7-6-6s2.7-6,6-6s6,2.7,6,6 S11.3,14,8,14z" />
    </symbol>
    <symbol id="icon-search" viewBox="0 0 24 24">
			<path d="M18.031 16.6168L22.3137 20.8995L20.8995 22.3137L16.6168 18.031C15.0769 19.263 13.124 20 11 20C6.032 20 2 15.968 2 11C2 6.032 6.032 2 11 2C15.968 2 20 6.032 20 11C20 13.124 19.263 15.0769 18.031 16.6168ZM16.0247 15.8748C17.2475 14.6146 18 12.8956 18 11C18 7.1325 14.8675 4 11 4C7.1325 4 4 7.1325 4 11C4 14.8675 7.1325 18 11 18C12.8956 18 14.6146 17.2475 15.8748 16.0247L16.0247 15.8748Z"></path>
    </symbol>
    <symbol id="icon-server" viewBox="0 0 16 16">
      <path d="M15,7H1A1,1,0,0,1,0,6V1A1,1,0,0,1,1,0H15a1,1,0,0,1,1,1V6A1,1,0,0,1,15,7ZM2,5H14V2H2Z" />
      <circle cx="12.5" cy="3.5" r="0.5" />
      <rect x="3" y="3" width="4" height="1" />
      <path d="M15,16H1a1,1,0,0,1-1-1V10A1,1,0,0,1,1,9H15a1,1,0,0,1,1,1v5A1,1,0,0,1,15,16ZM2,14H14V11H2Z" />
      <circle cx="12.5" cy="12.5" r="0.5" />
      <rect x="3" y="12" width="4" height="1" />
    </symbol>
    <symbol id="icon-settings" viewBox="0 0 24 24">
			<path d="M21 18V21H19V18H17V16H23V18H21ZM5 18V21H3V18H1V16H7V18H5ZM11 6V3H13V6H15V8H9V6H11ZM11 10H13V21H11V10ZM3 14V3H5V14H3ZM19 14V3H21V14H19Z"></path>
    </symbol>
    <symbol id="icon-share" viewBox="0 0 16 16">
      <path d="M15,16H1c-0.6,0-1-0.4-1-1V3c0-0.6,0.4-1,1-1h3v2H2v10h12V9h2v6C16,15.6,15.6,16,15,16z" />
      <path d="M10,3c-3.2,0-6,2.5-6,7c1.1-1.7,2.4-3,6-3v3l6-5l-6-5V3z" />
    </symbol>
    <symbol id="icon-shuffle" viewBox="0 0 24 24">
			<path d="M18 17.8832V16L23 19L18 22V19.9095C14.9224 19.4698 12.2513 17.4584 11.0029 14.5453L11 14.5386L10.9971 14.5453C9.57893 17.8544 6.32508 20 2.72483 20H2V18H2.72483C5.52503 18 8.05579 16.3312 9.15885 13.7574L9.91203 12L9.15885 10.2426C8.05579 7.66878 5.52503 6 2.72483 6H2V4H2.72483C6.32508 4 9.57893 6.14557 10.9971 9.45473L11 9.46141L11.0029 9.45473C12.2513 6.5416 14.9224 4.53022 18 4.09051V2L23 5L18 8V6.11684C15.7266 6.53763 13.7737 8.0667 12.8412 10.2426L12.088 12L12.8412 13.7574C13.7737 15.9333 15.7266 17.4624 18 17.8832Z"></path>
    </symbol>
    <symbol id="icon-sitemap" viewBox="0 0 16 16">
      <rect x="6" y="12" width="4" height="4" />
      <rect x="6" width="4" height="4" />
      <rect x="12" y="12" width="4" height="4" />
      <rect y="12" width="4" height="4" />
      <path d="M3,9h4v2h2V9h4v2h2V8c0-0.6-0.4-1-1-1H9V5H7v2H2C1.4,7,1,7.4,1,8v3h2V9z" />
    </symbol>
    <symbol id="icon-smile" viewBox="0 0 16 16">
      <path d="M8 0C3.6 0 0 3.6 0 8s3.6 8 8 8 8-3.6 8-8-3.6-8-8-8zm0 14c-3.3 0-6-2.7-6-6s2.7-6 6-6 6 2.7 6 6-2.7 6-6 6z" />
      <path d="M7 6a1 1 0 1 1-2 0 1 1 0 0 1 2 0zM11 6a1 1 0 1 1-2 0 1 1 0 0 1 2 0zM8 12c1.7 0 3-1.3 3-3H5c0 1.7 1.3 3 3 3z" />
    </symbol>
    <symbol id="icon-sort" viewBox="0 0 24 24">
			<path d="M8.5 7C9.32843 7 10 6.32843 10 5.5C10 4.67157 9.32843 4 8.5 4C7.67157 4 7 4.67157 7 5.5C7 6.32843 7.67157 7 8.5 7ZM8.5 13.5C9.32843 13.5 10 12.8284 10 12C10 11.1716 9.32843 10.5 8.5 10.5C7.67157 10.5 7 11.1716 7 12C7 12.8284 7.67157 13.5 8.5 13.5ZM10 18.5C10 19.3284 9.32843 20 8.5 20C7.67157 20 7 19.3284 7 18.5C7 17.6716 7.67157 17 8.5 17C9.32843 17 10 17.6716 10 18.5ZM15.5 7C16.3284 7 17 6.32843 17 5.5C17 4.67157 16.3284 4 15.5 4C14.6716 4 14 4.67157 14 5.5C14 6.32843 14.6716 7 15.5 7ZM17 12C17 12.8284 16.3284 13.5 15.5 13.5C14.6716 13.5 14 12.8284 14 12C14 11.1716 14.6716 10.5 15.5 10.5C16.3284 10.5 17 11.1716 17 12ZM15.5 20C16.3284 20 17 19.3284 17 18.5C17 17.6716 16.3284 17 15.5 17C14.6716 17 14 17.6716 14 18.5C14 19.3284 14.6716 20 15.5 20Z"></path>
    </symbol>
		<symbol id="icon-split" viewBox="0 0 16 16">
      <path d="M15.5 16h-5a.5.5 0 0 1-.354-.854l1.793-1.792-1.646-1.647a1 1 0 1 1 1.414-1.414l1.647 1.646 1.792-1.793A.5.5 0 0 1 16 10.5v5a.5.5 0 0 1-.5.5ZM4.061 13.354l1.793 1.792A.5.5 0 0 1 5.5 16h-5a.5.5 0 0 1-.5-.5v-5a.5.5 0 0 1 .854-.354l1.792 1.793L7 7.586V1a1 1 0 1 1 2 0v7a1 1 0 0 1-.293.707Z"/>
    </symbol>
    <symbol id="icon-star" viewBox="0 0 16 16">
      <path d="M15.144,5.439l-4.317-.628L8.9.9A1.041,1.041,0,0,0,7.1.9L5.173,4.812.856,5.439A1,1,0,0,0,.3,7.145l3.123,3.045-.737,4.3a1,1,0,0,0,1.451,1.054L8,13.513l3.861,2.029a1,1,0,0,0,1.451-1.054l-.737-4.3L15.7,7.145a1,1,0,0,0-.554-1.705Z"/>
    </symbol>
    <symbol id="icon-star-outline" viewBox="0 0 16 16">
      <path d="M11.86,15.542L8,13.513l-3.86,2.029c-0.727,0.387-1.592-0.235-1.451-1.054l0.737-4.299L0.302,7.145 c-0.594-0.58-0.263-1.587,0.555-1.706l4.316-0.627L7.104,0.9c0.336-0.683,1.457-0.683,1.793,0l1.931,3.911l4.316,0.627 c0.818,0.119,1.148,1.126,0.555,1.706l-3.124,3.045l0.737,4.299C13.453,15.311,12.586,15.924,11.86,15.542z M8.466,11.498 l2.532,1.331l-0.483-2.82c-0.056-0.324,0.052-0.655,0.287-0.885l2.049-1.998L10.02,6.715C9.693,6.668,9.412,6.463,9.267,6.168 L8,3.602L6.733,6.168c-0.146,0.295-0.427,0.5-0.753,0.547L3.149,7.126l2.049,1.998c0.235,0.229,0.343,0.561,0.287,0.885 l-0.483,2.82l2.532-1.331C7.826,11.344,8.174,11.344,8.466,11.498z" />
    </symbol>
		<symbol id="icon-status-draft" viewBox="0 0 32 32">
      <use href="#icon-circle-outline" />
    </symbol>
		<symbol id="icon-status-unlisted" viewBox="0 0 32 32">
      <use href="#icon-circle-half" />
    </symbol>
		<symbol id="icon-status-listed" viewBox="0 0 32 32">
      <use href="#icon-circle" />
    </symbol>
    <symbol id="icon-store" viewBox="0 0 16 16">
      <path d="M13.9,0.5C13.7,0.2,13.4,0,13,0H3C2.6,0,2.3,0.2,2.1,0.5C0,4.5,0,4.7,0,5c0,1.1,0.9,2,2,2v8c0,0.6,0.4,1,1,1 h10c0.6,0,1-0.4,1-1V7c1.1,0,2-0.9,2-2C16,4.7,16,4.5,13.9,0.5z M10,14v-4H6v4H4V6.7C4.3,6.9,4.6,7,5,7c0.6,0,1.1-0.3,1.5-0.7 C6.9,6.7,7.4,7,8,7s1.1-0.3,1.5-0.7C9.9,6.7,10.4,7,11,7c0.4,0,0.7-0.1,1-0.3V14H10z" />
    </symbol>
    <symbol id="icon-strikethrough" viewBox="0 0 24 24">
			<path d="M13 9H11V6H5V4H19V6H13V9ZM13 15V20H11V15H13ZM3 11H21V13H3V11Z"></path>
    </symbol>
    <symbol id="icon-sun" viewBox="0 0 16 16">
      <rect x="7" width="2" height="2" />
      <rect x="11.9" y="2.1" transform="matrix(0.7069 0.7074 -0.7074 0.7069 5.9537 -8.2658)" width="2" height="2" />
      <rect x="14" y="7" width="2" height="2" />
      <rect x="11.9" y="11.9" transform="matrix(-0.7074 -0.7069 0.7069 -0.7074 12.956 31.2634)" width="2" height="2" />
      <rect x="7" y="14" width="2" height="2" />
      <rect x="2.1" y="11.9" transform="matrix(-0.7069 -0.7074 0.7074 -0.7069 -3.9536 24.261)" width="2" height="2" />
      <rect y="7" width="2" height="2" />
      <rect x="2.1" y="2.1" transform="matrix(0.7074 0.7069 -0.7069 0.7074 3.0488 -1.2635)" width="2" height="2" />
      <path d="M8,4C5.8,4,4,5.8,4,8s1.8,4,4,4s4-1.8,4-4S10.2,4,8,4z" />
    </symbol>
		<symbol id="icon-subscript" viewBox="0 0 16 16">
      <path d="M15,13.5h-.736c.018-.019,.036-.037,.053-.055l.112-.118c.657-.686,1.176-1.228,1.173-2.06,0-.29-.07-.571-.199-.812-.292-.548-.884-.903-1.583-.952-.942-.065-1.783,.56-2.001,1.482-.096,.403,.153,.807,.556,.903,.405,.099,.807-.154,.903-.556,.048-.203,.234-.347,.441-.333,.168,.012,.317,.078,.362,.162,.003,.007,.021,.043,.021,.11,0,.216-.259,.497-.756,1.017l-.114,.119c-.29,.303-.719,.759-1.242,1.34-.198,.22-.248,.536-.127,.807s.389,.445,.685,.445h2.452c.414,0,.75-.336,.75-.75s-.336-.75-.75-.75Z" /><path d="M9.555,1.168c-.46-.308-1.081-.182-1.387,.277l-3.168,4.752L1.832,1.445c-.307-.459-.928-.585-1.387-.277C-.014,1.474-.138,2.095,.168,2.555l3.63,5.445L.168,13.445c-.306,.459-.182,1.081,.277,1.387,.17,.114,.363,.168,.554,.168,.323,0,.64-.156,.833-.445l3.168-4.752,3.168,4.752c.193,.289,.51,.445,.833,.445,.19,0,.383-.054,.554-.168,.459-.306,.583-.927,.277-1.387l-3.63-5.445,3.63-5.445c.306-.459,.182-1.081-.277-1.387Z" />
    </symbol>
		<symbol id="icon-superscript" viewBox="0 0 16 16">
      <path d="M15,4.5h-.736c.018-.019,.036-.037,.053-.055l.112-.118c.657-.686,1.176-1.228,1.173-2.06,0-.29-.07-.571-.199-.812-.292-.548-.884-.903-1.583-.952-.951-.069-1.783,.561-2.001,1.482-.096,.403,.153,.807,.556,.903,.402,.098,.808-.153,.903-.556,.048-.204,.236-.344,.441-.333,.168,.012,.317,.078,.362,.162,.003,.007,.021,.043,.021,.11,0,.216-.259,.497-.756,1.017l-.114,.119c-.29,.303-.719,.759-1.242,1.34-.198,.22-.248,.536-.127,.807s.389,.445,.685,.445h2.452c.414,0,.75-.336,.75-.75s-.336-.75-.75-.75Z"/><path d="M9.555,1.168c-.46-.308-1.08-.182-1.387,.277l-3.168,4.752L1.832,1.445c-.307-.459-.927-.585-1.387-.277C-.014,1.474-.138,2.095,.168,2.555l3.63,5.445L.168,13.445c-.306,.459-.182,1.081,.277,1.387,.17,.114,.363,.168,.554,.168,.323,0,.64-.156,.833-.445l3.168-4.752,3.168,4.752c.193,.289,.51,.445,.833,.445,.19,0,.383-.054,.554-.168,.459-.306,.583-.927,.277-1.387l-3.63-5.445,3.63-5.445c.306-.459,.182-1.081-.277-1.387Z"/>
    </symbol>
    <symbol id="icon-table" viewBox="0 0 16 16">
      <path fill-rule="evenodd" d="M0 1C0 0.447723 0.447715 0 1 0H15C15.5523 0 16 0.447723 16 1V15C16 15.5523 15.5523 16 15 16H1C0.447715 16 0 15.5523 0 15V1ZM6 3H10V5H6V3ZM5 5V3H2V5H5ZM2 6V8H5V6H2ZM6 8V6H10V8H6ZM5 9H2V11H5V9ZM6 11V9H10V11H6ZM5 12H2V14H5V12ZM6 12H10V14H6V12ZM11 12V14H14V12H11ZM14 11V9H11V11H14ZM11 8H14V6H11V8ZM11 5H14V3H11V5Z" />
    </symbol>
    <symbol id="icon-tablet" viewBox="0 0 16 16">
      <path d="M14,0H2A2,2,0,0,0,0,2V14a2,2,0,0,0,2,2H14a2,2,0,0,0,2-2V2A2,2,0,0,0,14,0ZM2,13V3H14V13Z" />
    </symbol>
    <symbol id="icon-tag" viewBox="0 0 16 16">
      <path d="M15.7 8.3l-8-8C7.5.1 7.3 0 7 0H1C.4 0 0 .4 0 1v6c0 .3.1.5.3.7l8 8c.2.2.4.3.7.3s.5-.1.7-.3l6-6c.4-.4.4-1 0-1.4zM4 5c-.6 0-1-.4-1-1s.4-1 1-1 1 .4 1 1-.4 1-1 1z" />
    </symbol>
    <symbol id="icon-template" viewBox="0 0 24 24">
			<path d="M7 4V2H17V4H20.0066C20.5552 4 21 4.44495 21 4.9934V21.0066C21 21.5552 20.5551 22 20.0066 22H3.9934C3.44476 22 3 21.5551 3 21.0066V4.9934C3 4.44476 3.44495 4 3.9934 4H7ZM7 6H5V20H19V6H17V8H7V6ZM9 4V6H15V4H9Z"></path>
    </symbol>
    <symbol id="icon-text" viewBox="0 0 16 16">
      <use href="#icon-text-left" />
    </symbol>
    <symbol id="icon-text-center" viewBox="0 0 16 16">
      <rect y="1" width="16" height="2" />
      <rect x="3" y="5" width="10" height="2" />
      <rect y="9" width="16" height="2" />
      <rect x="3" y="13" width="10" height="2" />
    </symbol>
    <symbol id="icon-text-justify" viewBox="0 0 16 16">
      <rect y="1" width="16" height="2" />
      <rect y="5" width="16" height="2" />
      <rect y="9" width="16" height="2" />
      <rect y="13" width="16" height="2" />
    </symbol>
    <symbol id="icon-text-left" viewBox="0 0 24 24">
			<path d="M3 4H21V6H3V4ZM3 19H17V21H3V19ZM3 14H21V16H3V14ZM3 9H17V11H3V9Z"></path>
    </symbol>
    <symbol id="icon-text-right" viewBox="0 0 16 16">
      <rect y="1" width="16" height="2" />
      <rect x="6" y="5" width="10" height="2" />
      <rect y="9" width="16" height="2" />
      <rect x="6" y="13" width="10" height="2" />
    </symbol>
    <symbol id="icon-ticket" viewBox="0 0 16 16">
      <path d="M16,6.003v-4c0-0.552-0.448-1-1-1H1c-0.552,0-1,0.448-1,1v4c1.1,0,2,0.9,2,2c0,1.1-0.9,2-2,2V14 c0,0.552,0.448,1,1,1h14c0.552,0,1-0.448,1-1v-3.997c-1.1,0-2-0.9-2-2C14,6.902,14.9,6.003,16,6.003z" />
    </symbol>
    <symbol id="icon-tiktok" viewBox="0 0 16 16">
      <path d="M6.793,5.958V8.706a2.392,2.392,0,0,0-3,2.216,2.163,2.163,0,0,0,2.312,2.3,2.155,2.155,0,0,0,2.311-2.326V0h2.719c.463,2.876,1.9,3.544,3.827,3.852V6.608a8.19,8.19,0,0,1-3.75-1.266v5.445C11.21,13.25,9.75,16,6.125,16A5.11,5.11,0,0,1,1.04,10.761,5.01,5.01,0,0,1,6.793,5.958Z" />
    </symbol>
    <symbol id="icon-title" viewBox="0 0 24 24">
			<path d="M13 6V21H11V6H5V4H19V6H13Z"></path>
    </symbol>
    <symbol id="icon-toggle-off" viewBox="0 0 16 16">
      <path d="M8 8a2 2 0 1 1-3.999.001A2 2 0 0 1 8 8z" />
      <path d="M10 2H6C2.7 2 0 4.7 0 8s2.7 6 6 6h4c3.3 0 6-2.7 6-6s-2.7-6-6-6zm0 10H6c-2.2 0-4-1.8-4-4s1.8-4 4-4h4c2.2 0 4 1.8 4 4s-1.8 4-4 4z" />
    </symbol>
    <symbol id="icon-toggle-on" viewBox="0 0 16 16">
      <path d="M8,8 C8,6.3 9.3,5 11,5 C12.7,5 14,6.3 14,8 C14,9.7 12.7,11 11,11 C9.3,11 8,9.7 8,8 M0,8 C0,10.8 2.2,13 5,13 L11,13 C13.8,13 16,10.8 16,8 C16,5.2 13.8,3 11,3 L5,3 C2.2,3 0,5.2 0,8" />
    </symbol>
    <symbol id="icon-trash" viewBox="0 0 24 24">
			<path d="M17 6H22V8H20V21C20 21.5523 19.5523 22 19 22H5C4.44772 22 4 21.5523 4 21V8H2V6H7V3C7 2.44772 7.44772 2 8 2H16C16.5523 2 17 2.44772 17 3V6ZM18 8H6V20H18V8ZM9 11H11V17H9V11ZM13 11H15V17H13V11ZM9 4V6H15V4H9Z"></path>
    </symbol>
    <symbol id="icon-underline" viewBox="0 0 24 24">
			<path d="M8 3V12C8 14.2091 9.79086 16 12 16C14.2091 16 16 14.2091 16 12V3H18V12C18 15.3137 15.3137 18 12 18C8.68629 18 6 15.3137 6 12V3H8ZM4 20H20V22H4V20Z"></path>
    </symbol>
    <symbol id="icon-undo" viewBox="0 0 16 16">
      <path d="M2.502 12.333a6.996 6.996 0 0 1-1.405-3.168l1.973-.331a4.982 4.982 0 0 0 1.003 2.26l-1.571 1.239zM6.834 14.903a7.015 7.015 0 0 1-2.976-1.259l1.186-1.611c.624.459 1.358.77 2.122.898l-.332 1.972zM9.165 14.903l-.33-1.973a4.99 4.99 0 0 0 2.209-.964l1.219 1.586a6.997 6.997 0 0 1-3.098 1.351zM8 1c-1.873 0-3.65.759-4.948 2.052L.9.9.2 7.3l6.4-.7-2.135-2.135A5.023 5.023 0 0 1 8 3c2.757 0 5 2.243 5 5 0 1.06-.327 2.072-.947 2.928l1.621 1.173A6.96 6.96 0 0 0 15 8c0-3.86-3.141-7-7-7z" />
    </symbol>
    <symbol id="icon-unlock" viewBox="0 0 16 16">
      <path d="M1,15c0,0.6,0.4,1,1,1h12c0.6,0,1-0.4,1-1V6c0-0.6-0.4-1-1-1h-2H6V4c0-1.1,0.9-2,2-2c0.6,0,1.1,0.2,1.5,0.7 l0.7,0.7l1.5-1.3L11,1.3C10.2,0.5,9.1,0,8,0C5.8,0,4,1.8,4,4v1H2C1.4,5,1,5.4,1,6V15z M8,8c1.1,0,2,0.9,2,2c0,0.7-0.4,1.4-1,1.7V13 H7v-1.3c-0.6-0.3-1-1-1-1.7C6,8.9,6.9,8,8,8z" />
    </symbol>
    <symbol id="icon-upload" viewBox="0 0 24 24">
			<path d="M4 19H20V12H22V20C22 20.5523 21.5523 21 21 21H3C2.44772 21 2 20.5523 2 20V12H4V19ZM13 9V16H11V9H6L12 3L18 9H13Z"></path>
    </symbol>
    <symbol id="icon-url" viewBox="0 0 24 24">
			<path d="M18.3643 15.5353L16.95 14.1211L18.3643 12.7069C20.3169 10.7543 20.3169 7.58847 18.3643 5.63585C16.4116 3.68323 13.2458 3.68323 11.2932 5.63585L9.87898 7.05007L8.46477 5.63585L9.87898 4.22164C12.6127 1.48797 17.0448 1.48797 19.7785 4.22164C22.5121 6.95531 22.5121 11.3875 19.7785 14.1211L18.3643 15.5353ZM15.5358 18.3638L14.1216 19.778C11.388 22.5117 6.9558 22.5117 4.22213 19.778C1.48846 17.0443 1.48846 12.6122 4.22213 9.87849L5.63634 8.46428L7.05055 9.87849L5.63634 11.2927C3.68372 13.2453 3.68372 16.4112 5.63634 18.3638C7.58896 20.3164 10.7548 20.3164 12.7074 18.3638L14.1216 16.9496L15.5358 18.3638ZM14.8287 7.75717L16.2429 9.17139L9.17187 16.2425L7.75766 14.8282L14.8287 7.75717Z"></path>
    </symbol>
    <symbol id="icon-user" viewBox="0 0 24 24">
      <path d="M4 22C4 17.5817 7.58172 14 12 14C16.4183 14 20 17.5817 20 22H18C18 18.6863 15.3137 16 12 16C8.68629 16 6 18.6863 6 22H4ZM12 13C8.685 13 6 10.315 6 7C6 3.685 8.685 1 12 1C15.315 1 18 3.685 18 7C18 10.315 15.315 13 12 13ZM12 11C14.21 11 16 9.21 16 7C16 4.79 14.21 3 12 3C9.79 3 8 4.79 8 7C8 9.21 9.79 11 12 11Z" />
    </symbol>
    <symbol id="icon-users" viewBox="0 0 24 24">
			<path d="M2 22C2 17.5817 5.58172 14 10 14C14.4183 14 18 17.5817 18 22H16C16 18.6863 13.3137 16 10 16C6.68629 16 4 18.6863 4 22H2ZM10 13C6.685 13 4 10.315 4 7C4 3.685 6.685 1 10 1C13.315 1 16 3.685 16 7C16 10.315 13.315 13 10 13ZM10 11C12.21 11 14 9.21 14 7C14 4.79 12.21 3 10 3C7.79 3 6 4.79 6 7C6 9.21 7.79 11 10 11ZM18.2837 14.7028C21.0644 15.9561 23 18.752 23 22H21C21 19.564 19.5483 17.4671 17.4628 16.5271L18.2837 14.7028ZM17.5962 3.41321C19.5944 4.23703 21 6.20361 21 8.5C21 11.3702 18.8042 13.7252 16 13.9776V11.9646C17.6967 11.7222 19 10.264 19 8.5C19 7.11935 18.2016 5.92603 17.041 5.35635L17.5962 3.41321Z"></path>
    </symbol>
    <symbol id="icon-video" viewBox="0 0 24 24">
			<path d="M16 4C16.5523 4 17 4.44772 17 5V9.2L22.2133 5.55071C22.4395 5.39235 22.7513 5.44737 22.9096 5.6736C22.9684 5.75764 23 5.85774 23 5.96033V18.0397C23 18.3158 22.7761 18.5397 22.5 18.5397C22.3974 18.5397 22.2973 18.5081 22.2133 18.4493L17 14.8V19C17 19.5523 16.5523 20 16 20H2C1.44772 20 1 19.5523 1 19V5C1 4.44772 1.44772 4 2 4H16ZM15 6H3V18H15V6ZM7.4 8.82867C7.47607 8.82867 7.55057 8.85036 7.61475 8.8912L11.9697 11.6625C12.1561 11.7811 12.211 12.0284 12.0924 12.2148C12.061 12.2641 12.0191 12.306 11.9697 12.3375L7.61475 15.1088C7.42837 15.2274 7.18114 15.1725 7.06254 14.9861C7.02169 14.9219 7 14.8474 7 14.7713V9.22867C7 9.00776 7.17909 8.82867 7.4 8.82867ZM21 8.84131L17 11.641V12.359L21 15.1587V8.84131Z"></path>
    </symbol>
    <symbol id="icon-vimeo" viewBox="0 0 16 16">
      <path d="M16,4.3c-0.1,1.6-1.2,3.7-3.3,6.4c-2.2,2.8-4,4.2-5.5,4.2c-0.9,0-1.7-0.9-2.4-2.6C4,9.9,3.4,5,2,5 C1.9,5,1.5,5.3,0.8,5.8L0,4.8c0.8-0.7,3.5-3.4,4.7-3.5C5.9,1.2,6.7,2,7,3.8c0.3,2,0.8,6.1,1.8,6.1c0.9,0,2.5-3.4,2.6-4 c0.1-0.9-0.3-1.9-2.3-1.1c0.8-2.6,2.3-3.8,4.5-3.8C15.3,1.1,16.1,2.2,16,4.3z"/>
    </symbol>
    <symbol id="icon-wand" viewBox="0 0 16 16">
      <path d="M8.046 4.985l2.97 2.97-7.99 7.99-2.97-2.97 7.99-7.99zM12.995 1.591l1.414 1.414-2.404 2.404-1.414-1.414 2.404-2.404zM13 7h3v2h-3V7zM12.243 10.834l2.121 2.121-1.414 1.414-2.121-2.121 1.414-1.414zM7 0h2v3H7V0zM3.05 1.631l2.121 2.121-1.414 1.414-2.121-2.121L3.05 1.631z" />
    </symbol>
    <symbol id="icon-whatsapp" viewBox="0 0 16 16">
      <path d="M13.6,2.3C12.1,0.8,10.2,0,8,0C3.7,0,0.1,3.6,0.1,7.9c0,1.4,0.4,2.8,1.1,4L0,16l4.2-1.1c1.2,0.6,2.5,1,3.8,1 h0h0c4.4,0,7.9-3.6,7.9-7.9C16,5.8,15.1,3.8,13.6,2.3z M11.9,10.8c-0.2,0.5-1,0.9-1.3,0.9c-0.3,0.1-1.3,0-2.4-0.5 c-2-0.9-3.3-2.9-3.4-3C4.7,8.1,4,7.1,4,6.2s0.5-1.5,0.7-1.7c0.4-0.4,1.2-0.3,1.4,0.1C6.2,5,6.6,6,6.7,6.1s0.1,0.5-0.2,0.7 C6.4,6.8,5.9,7.2,6.1,7.5c0.1,0.2,0.5,0.8,1.1,1.4c0.8,0.7,1.4,0.9,1.6,1C9,10,9.1,10,9.2,9.8C9.3,9.7,9.7,9.2,9.8,9 c0.1-0.2,0.3-0.2,0.4-0.1s1.2,0.5,1.4,0.6C11.8,9.7,12,9.7,12,9.8C12.1,9.9,12.1,10.3,11.9,10.8z"/>
    </symbol>
    <symbol id="icon-wheelchair" viewBox="0 0 16 16">
      <circle cx="11" cy="15" r="1"/>
      <circle cx="11" cy="2" r="2"/>
      <path d="M14.949,5.684a1,1,0,0,0-1.265-.632l-2.414.8L9.707,4.293A1,1,0,0,0,9,4H6a1,1,0,0,0-.447.105l-2,1A1,1,0,1,0,4.447,6.9L6.236,6H7.523L6.071,9.629A1,1,0,0,0,7,11h3v2h2V10a1,1,0,0,0-1-1H8.477l.888-2.221.928.928A1,1,0,0,0,11,8a.987.987,0,0,0,.316-.052l3-1A1,1,0,0,0,14.949,5.684Z"/>
      <path d="M5,16A4,4,0,0,1,5,8v2a2,2,0,1,0,2,2H9A4,4,0,0,1,5,16Z"/>
    </symbol>
    <symbol id="icon-youtube" viewBox="0 0 16 16">
      <path d="M15.8,4.8c-0.2-1.3-0.8-2.2-2.2-2.4C11.4,2,8,2,8,2S4.6,2,2.4,2.4C1,2.6,0.3,3.5,0.2,4.8C0,6.1,0,8,0,8 s0,1.9,0.2,3.2c0.2,1.3,0.8,2.2,2.2,2.4C4.6,14,8,14,8,14s3.4,0,5.6-0.4c1.4-0.3,2-1.1,2.2-2.4C16,9.9,16,8,16,8S16,6.1,15.8,4.8z M6,11V5l5,3L6,11z"/>
    </symbol>
  </defs>
</svg>
