<svg xmlns="http://www.w3.org/2000/svg" width="500" height="500" viewBox="0 0 500 500"><path d="M500 406.25v-375H156.25v36.082L74.406 78.834l5.316 37.832-79.723 22.86L103.363 500l318.392-91.297 17.451-2.453h60.793zM187.5 62.5h281.25V375H187.5V62.5zm-31.25 33.431V406.25h79.468L150.7 418.198l-44.307-315.262 49.856-7.006zm-33.469 369.04L35.029 158.945l48.675-13.957 42.893 305.197 93.649-13.162-97.465 27.948zM218.75 93.75H437.5V125H218.75zm0 62.5H437.5v31.25H218.75zm0 62.5H437.5V250H218.75zm0 62.5H375v31.25H218.75z" fill="#261e66"/></svg>