<svg width="500" height="500" viewBox="0 0 500 500" xmlns="http://www.w3.org/2000/svg"><path d="M250 0C111.929 0 0 111.929 0 250s111.929 250 250 250 250-111.929 250-250S388.071 0 250 0zm148.465 398.465c-19.296 19.295-41.754 34.439-66.752 45.013a208.926 208.926 0 0 1-19.336 7.076v-37.468c0-19.694-6.755-34.18-20.264-43.457 8.464-.813 16.235-1.953 23.315-3.418s14.567-3.581 22.461-6.348 14.974-6.063 21.24-9.888 12.288-8.789 18.066-14.893 10.62-13.021 14.526-20.752 6.999-17.009 9.277-27.832 3.418-22.746 3.418-35.767c0-25.228-8.22-46.712-24.658-64.453 7.487-19.531 6.673-40.771-2.441-63.721l-6.104-.732c-4.231-.488-11.841 1.302-22.827 5.371s-23.315 10.742-36.987 20.02c-19.368-5.371-39.47-8.057-60.303-8.057-20.996 0-41.016 2.686-60.059 8.057-8.626-5.859-16.805-10.701-24.536-14.526s-13.916-6.429-18.555-7.813-8.952-2.238-12.939-2.563-6.551-.407-7.69-.244-1.953.325-2.441.488c-9.114 23.112-9.929 44.353-2.441 63.721-16.438 17.741-24.658 39.226-24.658 64.453 0 13.021 1.14 24.943 3.418 35.767s5.371 20.101 9.277 27.832 8.748 14.648 14.526 20.752 11.8 11.067 18.066 14.893 13.347 7.121 21.24 9.888 15.381 4.883 22.461 6.348 14.852 2.604 23.315 3.418c-13.347 9.114-20.02 23.601-20.02 43.457v38.198a208.441 208.441 0 0 1-21.777-7.807c-24.997-10.573-47.455-25.718-66.751-45.013s-34.44-41.754-45.013-66.752C45.582 305.855 40.037 278.362 40.037 250s5.546-55.854 16.483-81.714c10.573-24.997 25.718-47.455 45.013-66.751s41.754-34.44 66.751-45.013c25.859-10.938 53.352-16.483 81.714-16.483s55.854 5.546 81.714 16.483c24.998 10.573 47.456 25.718 66.752 45.013s34.439 41.754 45.013 66.751c10.937 25.859 16.482 53.352 16.482 81.714s-5.546 55.854-16.483 81.714c-10.573 24.997-25.718 47.456-45.013 66.751z" fill="#261e66"/></svg>